<svg xmlns="http://www.w3.org/2000/svg" width="1052.234" height="921.194" viewBox="0 0 1052.234 921.194">
  <g id="_7meeples-logo-red" data-name="7meeples-logo-red" transform="translate(3781 -14339)">
    <g id="Grupo_254" data-name="Grupo 254" transform="translate(2 160)">
      <g id="Grupo_224" data-name="Grupo 224" transform="translate(-15201 11873)">
        <path id="Intersección_3" data-name="Intersección 3" d="M102.7,375.28a12.853,12.853,0,0,1-2.171-3.272Q-15.011,211.319,2.243,125.681C19,42.561,115.784,122.561,164.73,147.825c5.813,1.626,16.578,2.232,23.755-11.8C190.358,102.2,194.252-.09,301.22,0,426.892-.1,410.282,141.122,415.284,146.564c6.544,7.134,107.228,29.475,175.452,70.75C418.148,378.706,188.442,471.832,38.366,519.378,76.339,451.033,116.237,389.883,102.7,375.28Z" transform="translate(11817.441 2529.613)" fill="rgba(255,255,255,0.1)"/>
      </g>
      <g id="Grupo_234" data-name="Grupo 234" transform="translate(-3403.313 14402.612)">
        <path id="Unión_32" data-name="Unión 32" d="M1.167,657.9c14.571-100.4,144.812-258.506,121.91-283.207a12.819,12.819,0,0,1-2.167-3.266Q5.554,210.987,22.781,125.484c16.731-82.989,113.363-3.114,162.231,22.11,5.8,1.623,16.552,2.229,23.718-11.786C210.6,102.044,214.489-.09,321.289,0c125.475-.1,108.89,140.9,113.885,146.335,10.026,10.929,241.381,57.612,237.32,153.494-4.039,95.889-126.822,46.642-153,74.856C496.6,399.385,626.838,557.492,641.4,657.891c4.757,32.722-4.523,39.071-36.581,39.071-58.14,0-113.654-.035-164.763-.035-23.093,0-31.3-13.158-43.212-31.306-26.373-40.154-58.232-104.707-75.556-104.7S272.1,625.467,245.73,665.629c-11.914,18.142-20.125,31.309-43.22,31.309-51.115,0-106.621.032-164.761.032C5.693,696.969-3.583,690.62,1.167,657.9Z" transform="translate(0 0.614)" fill="#ea4335"/>
        <path id="Sustracción_5" data-name="Sustracción 5" d="M39.163,517.022v0h0c6.684-12,13.4-23.746,19.893-35.1l0-.007c14.721-25.742,28.625-50.057,37.123-68.817,9.394-20.739,11.412-32.941,6.35-38.4a12.9,12.9,0,0,1-2.167-3.266C81.232,344.81,64.614,319.4,50.977,295.889S26.3,250.118,18.157,229.718A311.67,311.67,0,0,1,7.962,200.146a221.077,221.077,0,0,1-6.051-27.23A158.487,158.487,0,0,1,0,148.028,118.621,118.621,0,0,1,2.24,125.483a69.23,69.23,0,0,1,5.6-17.142,38.3,38.3,0,0,1,8.368-11.375,30.507,30.507,0,0,1,10.717-6.31,39.164,39.164,0,0,1,12.652-1.947c12.1,0,27.084,4.406,45.809,13.47,16.322,7.9,33.325,18.293,48.326,27.463l.006.005h0c11.227,6.862,21.831,13.344,30.75,17.947a21.632,21.632,0,0,0,5.819.826,17.388,17.388,0,0,0,9.147-2.514c3.451-2.092,6.4-5.489,8.751-10.1q.037-.662.075-1.36l.014-.249a310,310,0,0,1,3.6-35.844,185.212,185.212,0,0,1,5.1-22.113,137.307,137.307,0,0,1,8.809-22.366,104.278,104.278,0,0,1,13.641-20.713,89.032,89.032,0,0,1,19.6-17.154A95.771,95.771,0,0,1,265.711,4.32,133.352,133.352,0,0,1,300.606,0h.28A133.39,133.39,0,0,1,335.78,4.319a95.774,95.774,0,0,1,26.683,11.686,89.018,89.018,0,0,1,19.6,17.149A104.231,104.231,0,0,1,395.7,53.862a137.228,137.228,0,0,1,8.808,22.361,185.129,185.129,0,0,1,5.1,22.11,310.074,310.074,0,0,1,3.6,35.848c.37,6.788.615,11.273,1.425,12.154,2.2,2.4,14.8,6.434,33.853,12.535,16.791,5.376,37.687,12.066,60.026,20.388,26.4,9.835,48.418,19.564,67.314,29.743-21.9,19.458-45.057,38.66-68.825,57.077-22.58,17.5-46.311,34.745-70.532,51.269-22.9,15.624-46.836,31-71.137,45.712-22.86,13.836-46.626,27.431-70.639,40.405-43.337,23.416-88.883,45.585-135.374,65.891C120.055,486.5,79.629,502.541,39.163,517.022Z" transform="translate(20.419 0)" fill="#fff" opacity="0.1"/>
      </g>
      <g id="Grupo_219" data-name="Grupo 219" transform="translate(-4842.338 13493.54)">
        <path id="Trazado_144" data-name="Trazado 144" d="M173.353,332H747.67V437.265Q410.2,841.3,405.557,1251.525H236.822l-23.22-34.057Q383.885,688.045,538.687,480.61q-303.413-13.933-359.142,4.644Q162.517,358.316,173.353,332Z" transform="translate(890.199 354.46)" fill="#b5b5b5"/>
      </g>
      <path id="Intersección_4" data-name="Intersección 4" d="M996.342,207.156Q692.93,193.222,637.2,211.8,620.172,84.861,631.009,58.545h574.317V163.81Q914.3,512.236,870.8,865.248c-59.665,16.76-122.371,31.359-187.945,43.03Q846.815,407.529,996.342,207.156Z" transform="translate(-4409.794 14120.455)" fill="#fff" opacity="0.2"/>
    </g>
  </g>
</svg>
