<svg xmlns="http://www.w3.org/2000/svg" width="14.327" height="18.805" viewBox="0 0 14.327 18.805">
  <g id="Grupo_1769" data-name="Grupo 1769" transform="translate(14285.396 -14861.039)">
    <g id="Grupo_1396" data-name="Grupo 1396" transform="translate(-14285.396 14861.039)">
      <g id="Director" transform="translate(0 0)">
        <path id="Trazado_234" data-name="Trazado 234" d="M108.068,56.89a1.168,1.168,0,1,0-.554-2.269c-.361.084-.744.159-1.145.227V52.421h1.282a.355.355,0,0,0,.355-.355V45.582a.355.355,0,0,0-.355-.355h-.25v-.016h-1.032v-.9a.355.355,0,1,0-.709,0v.917H97.915v-.917a.355.355,0,0,0-.709,0v.9H95.833v.028a.355.355,0,0,0-.265.343v6.484a.355.355,0,0,0,.355.355h1.282v2.545c-.411-.055-.808-.118-1.188-.189a1.168,1.168,0,0,0-1.385,1.147v.017a1.17,1.17,0,0,0,.93,1.143q.485.1,1,.18l4.422,2.191-5.312,2.632a.355.355,0,1,0,.315.636l5.8-2.872,5.8,2.872a.355.355,0,1,0,.315-.636l-5.312-2.632,4.9-2.428Q107.786,56.962,108.068,56.89ZM105.66,45.937v5.775H97.915V45.937Zm-7.745,6.484h7.745v2.533a32.029,32.029,0,0,1-4.269.274,33.052,33.052,0,0,1-3.476-.177Zm3.873,6.639-3.135-1.553c.878.07,1.8.105,2.738.105a33.6,33.6,0,0,0,3.723-.2Z" transform="translate(-94.632 -43.956)"/>
      </g>
      <g id="Grupo_1394" data-name="Grupo 1394" transform="translate(3.274 4.074)">
        <g id="Grupo_1389" data-name="Grupo 1389" transform="translate(0 0)">
          <path id="Unión_32" data-name="Unión 32" d="M.012.4C.162,1.437,1.5,3.066,1.268,3.32a.132.132,0,0,0-.022.034A3.732,3.732,0,0,0,.235,5.888c.172.855,1.168.032,1.671-.228a.2.2,0,0,1,.244.121c.019.348.059,1.4,1.16,1.4,1.293,0,1.122-1.452,1.173-1.508.1-.113,2.487-.594,2.445-1.581S5.622,3.611,5.352,3.32C5.116,3.066,6.458,1.437,6.608.4,6.657.065,6.561,0,6.231,0h-1.7C4.3,0,4.211.136,4.088.323,3.817.737,3.488,1.4,3.31,1.4S2.8.737,2.532.323C2.409.136,2.324,0,2.086,0H.389C.059,0-.037.065.012.4Z" transform="translate(6.929 7.187) rotate(180)" fill="#ea4335"/>
          <path id="Sustracción_5" data-name="Sustracción 5" d="M.4,0h0c.069.124.138.245.2.362h0C.76.627.9.877.991,1.071c.1.214.118.339.065.4a.133.133,0,0,0-.022.034c-.2.274-.368.536-.509.778a5.277,5.277,0,0,0-.338.682,3.211,3.211,0,0,0-.105.3,2.278,2.278,0,0,0-.062.281A1.633,1.633,0,0,0,0,3.8a1.222,1.222,0,0,0,.023.232.713.713,0,0,0,.058.177.4.4,0,0,0,.086.117.314.314,0,0,0,.11.065.4.4,0,0,0,.13.02A1.138,1.138,0,0,0,.88,4.274c.168-.081.343-.188.5-.283h0c.116-.071.225-.137.317-.185a.223.223,0,0,1,.06-.009.179.179,0,0,1,.094.026.251.251,0,0,1,.09.1v.017a3.194,3.194,0,0,0,.037.369,1.908,1.908,0,0,0,.053.228,1.415,1.415,0,0,0,.091.23,1.074,1.074,0,0,0,.141.213.917.917,0,0,0,.2.177.987.987,0,0,0,.275.12,1.374,1.374,0,0,0,.359.045h0a1.374,1.374,0,0,0,.359-.044.987.987,0,0,0,.275-.12.917.917,0,0,0,.2-.177,1.074,1.074,0,0,0,.141-.213,1.414,1.414,0,0,0,.091-.23,1.907,1.907,0,0,0,.053-.228,3.2,3.2,0,0,0,.037-.369.4.4,0,0,1,.015-.125A1.647,1.647,0,0,1,4.62,3.69c.173-.055.388-.124.618-.21a5.537,5.537,0,0,0,.693-.306c-.226-.2-.464-.4-.709-.588s-.477-.358-.727-.528-.483-.319-.733-.471-.48-.283-.728-.416C2.589.929,2.12.7,1.641.491,1.237.314.82.149.4,0Z" transform="translate(6.718 5.327) rotate(180)" fill="#fff" opacity="0.1"/>
        </g>
        <g id="Layer_8" transform="translate(5.476 0.389)">
          <path id="Trazado_223" data-name="Trazado 223" d="M16.327,11.965a.149.149,0,0,1,.228-.127.149.149,0,1,1,.276-.113.148.148,0,0,1,.167,0,.149.149,0,0,1,.276-.1.148.148,0,0,1,.072-.019.149.149,0,0,1,.149.149.141.141,0,0,1,0,.016.148.148,0,0,1,.066-.016h.012a.149.149,0,1,1,.287-.057s0,0,0,.006a.148.148,0,0,1,.04-.006l.024,0v0a.149.149,0,1,1,.3,0,.149.149,0,0,1,.149.149.147.147,0,0,1,0,.024.149.149,0,0,1,.011.293l.074.1L17.5,12.5l-.805-.157-.285-.132.015-.1A.15.15,0,0,1,16.327,11.965Z" transform="translate(-16.256 -11.548)" fill="#fff" stroke="#191919" stroke-miterlimit="10" stroke-width="0.2"/>
          <g id="Grupo_1384" data-name="Grupo 1384" transform="translate(0 0.49)">
            <path id="Trazado_224" data-name="Trazado 224" d="M16.227,28.851a.065.065,0,0,0,.064-.054l.333-2a.065.065,0,0,0-.064-.076H14.387a.065.065,0,0,0-.064.076l.333,2a.065.065,0,0,0,.064.055Z" transform="translate(-14.322 -26.72)" fill="#efefef" stroke="#000" stroke-width="0.2"/>
          </g>
          <path id="Trazado_226" data-name="Trazado 226" d="M14.054,27.889l.205,0,.038-.027.34-2.044-.029-.051-.3,0Z" transform="translate(-12.336 -25.274)" fill="#a52929"/>
          <path id="Trazado_227" data-name="Trazado 227" d="M34.807,29.346h.228l.15-2.126h-.328Z" transform="translate(-33.542 -26.73)" fill="#a52929"/>
          <path id="Trazado_228" data-name="Trazado 228" d="M53.482,28.1l.229,0-.051-2.126h-.328Z" transform="translate(-52.671 -25.489)" fill="#a52929"/>
          <path id="Trazado_229" data-name="Trazado 229" d="M67.755,28.373l.236.007-.252-2.121h-.273l-.058.029Z" transform="translate(-67.405 -25.764)" fill="#a52929"/>
          <g id="Grupo_1390" data-name="Grupo 1390" transform="translate(0 0.49)">
            <path id="Trazado_224-2" data-name="Trazado 224" d="M16.227,28.851a.065.065,0,0,0,.064-.054l.333-2a.065.065,0,0,0-.064-.076H14.387a.065.065,0,0,0-.064.076l.333,2a.065.065,0,0,0,.064.055Z" transform="translate(-14.322 -26.72)" fill="none" stroke="#000" stroke-width="0.2"/>
          </g>
        </g>
      </g>
      <g id="Grupo_1395" data-name="Grupo 1395" transform="translate(12.688 11.256)">
        <g id="Grupo_245" data-name="Grupo 245" transform="translate(0 0.002)">
          <g id="Grupo_219" data-name="Grupo 219" transform="translate(0 0)">
            <path id="Trazado_144" data-name="Trazado 144" d="M169.145,332h.871v.16a1.963,1.963,0,0,0-.519,1.235h-.256l-.035-.052a4.124,4.124,0,0,1,.493-1.118,2.426,2.426,0,0,0-.545.007A.673.673,0,0,1,169.145,332Z" transform="translate(-169.139 -332)"/>
          </g>
        </g>
        <path id="Intersección_4" data-name="Intersección 4" d="M.561.225A2.424,2.424,0,0,0,.016.233.674.674,0,0,1,.006,0H.878V.16A2.067,2.067,0,0,0,.37,1.224c-.091.025-.186.048-.285.065A3.975,3.975,0,0,1,.561.225Z" transform="translate(0)" fill="#fff"/>
      </g>
    </g>
  </g>
</svg>
