<svg xmlns="http://www.w3.org/2000/svg" width="36.064" height="27.986" viewBox="0 0 36.064 27.986">
  <path id="rulebook" d="M35.505,12.645h-.032a.719.719,0,0,1-.725-.783V7.96A.754.754,0,0,0,34,7.206H22.84c-2.8,0-3.843,1.037-4.1,1.363l-.071.1v0l-.221.3h0c-.3.407-.554.234-.678.1l-.422-.527-.209-.252a4.089,4.089,0,0,0-3.079-1.088H2.171a.754.754,0,0,0-.754.754v3.852c0,.674-.366.81-.591.832H.659c-.183.011-.608.117-.608.9V31.9a.815.815,0,0,0,.816.815H11.713c3.46,0,4.968,1.3,5.42,1.806l.258.319h0a.921.921,0,0,0,1.421,0h0l.151-.177h0l0,0,.193-.226c.006-.007.052-.059.119-.128a6.705,6.705,0,0,1,4.843-1.593H35.3a.815.815,0,0,0,.816-.815V13.367C36.115,12.7,35.635,12.648,35.505,12.645ZM33.068,29.023a.665.665,0,0,1-.678.654h-9.2c-3.273,0-4.461,1.479-4.461,1.479l-.151.2-.071.1h0c-.312.424-.771,0-.773,0l-.212-.265c-.157-.189-1.359-1.515-4.269-1.515H3.775a.665.665,0,0,1-.677-.654V9.46a.665.665,0,0,1,.677-.654h7.361c5.476,0,5.994,3.11,6.03,4.014V26.425c0,.989.471,1.175.737,1.2h.4c.271-.027.7-.188.7-.959V12.645h0c.041-1.132.482-3.839,3.775-3.839H32.39a.665.665,0,0,1,.678.654Z" transform="translate(-0.051 -7.206)" fill="#241f20"/>
</svg>
