<svg xmlns="http://www.w3.org/2000/svg" width="22" height="32" viewBox="0 0 22 32">
  <g id="scoresheet" transform="translate(-545 -4240)">
    <g id="Rectángulo_287" data-name="Rectángulo 287" transform="translate(545 4243)" fill="none" stroke="#000" stroke-width="1">
      <rect width="22" height="29" rx="3" stroke="none"/>
      <rect x="0.5" y="0.5" width="21" height="28" rx="2.5" fill="none"/>
    </g>
    <rect id="Rectángulo_288" data-name="Rectángulo 288" width="10" height="4" rx="1" transform="translate(551 4242)"/>
    <g id="Elipse_165" data-name="Elipse 165" transform="translate(554 4240)" fill="#fff" stroke="#000" stroke-width="1">
      <circle cx="2" cy="2" r="2" stroke="none"/>
      <circle cx="2" cy="2" r="1.5" fill="none"/>
    </g>
    <g id="Rectángulo_289" data-name="Rectángulo 289" transform="translate(548 4250)" fill="#fff" stroke="#000" stroke-width="0.5">
      <rect width="16" height="4" stroke="none"/>
      <rect x="0.25" y="0.25" width="15.5" height="3.5" fill="none"/>
    </g>
    <g id="Rectángulo_290" data-name="Rectángulo 290" transform="translate(548 4255)" fill="#fff" stroke="#000" stroke-width="0.5">
      <rect width="16" height="4" stroke="none"/>
      <rect x="0.25" y="0.25" width="15.5" height="3.5" fill="none"/>
    </g>
    <g id="Rectángulo_291" data-name="Rectángulo 291" transform="translate(548 4260)" fill="#fff" stroke="#000" stroke-width="0.5">
      <rect width="16" height="4" stroke="none"/>
      <rect x="0.25" y="0.25" width="15.5" height="3.5" fill="none"/>
    </g>
    <g id="Rectángulo_292" data-name="Rectángulo 292" transform="translate(548 4265)" fill="#fff" stroke="#000" stroke-width="0.5">
      <rect width="16" height="4" stroke="none"/>
      <rect x="0.25" y="0.25" width="15.5" height="3.5" fill="none"/>
    </g>
    <line id="Línea_144" data-name="Línea 144" y1="3" transform="translate(551.5 4265.5)" fill="none" stroke="#000" stroke-width="0.5"/>
    <line id="Línea_145" data-name="Línea 145" y1="3" transform="translate(551.5 4260.5)" fill="none" stroke="#000" stroke-width="0.5"/>
    <line id="Línea_146" data-name="Línea 146" y1="3" transform="translate(551.5 4255.5)" fill="none" stroke="#000" stroke-width="0.5"/>
    <line id="Línea_147" data-name="Línea 147" y1="3" transform="translate(551.5 4250.5)" fill="none" stroke="#000" stroke-width="0.5"/>
  </g>
</svg>
