<svg xmlns="http://www.w3.org/2000/svg" width="15.11" height="15.657" viewBox="0 0 15.11 15.657">
  <path id="token" d="M9.887,15.656c-.519,0-.7-.3-.971-.7-.592-.9-1.308-2.352-1.7-2.352s-1.105,1.45-1.7,2.352c-.268.408-.452.7-.971.7H.848c-.72,0-.929-.143-.822-.877C.354,12.524,3.28,8.972,2.765,8.417a.283.283,0,0,1-.048-.072Q.125,4.74.512,2.819c.376-1.864,2.547-.07,3.645.5a.433.433,0,0,0,.533-.265C4.732,2.292,4.819,0,7.219,0c2.819,0,2.446,3.165,2.558,3.287C10,3.533,15.2,4.581,15.109,6.735S12.26,7.783,11.672,8.417c-.514.555,2.412,4.107,2.739,6.362.107.735-.1.878-.822.878Z"/>
</svg>
