<svg xmlns="http://www.w3.org/2000/svg" width="221.485" height="45.057" viewBox="0 0 221.485 45.057">
  <g id="_2-jugadores.icon" data-name="2-jugadores.icon" transform="translate(-68.479 -1080.5)">
    <path id="Trazado_451" data-name="Trazado 451" d="M-56,.25a5.1,5.1,0,0,1-2.763-.775A5.459,5.459,0,0,1-60.7-2.6a1.144,1.144,0,0,1-.175-.575.841.841,0,0,1,.325-.687,1.035,1.035,0,0,1,.65-.263.942.942,0,0,1,.513.15,1.605,1.605,0,0,1,.412.375,4.068,4.068,0,0,0,1.25,1.35A3.037,3.037,0,0,0-56-1.75a3.588,3.588,0,0,0,1.813-.45,3.361,3.361,0,0,0,1.25-1.237,3.463,3.463,0,0,0,.462-1.788V-16.5a.929.929,0,0,1,.313-.712A1.085,1.085,0,0,1-51.4-17.5a1,1,0,0,1,.738.288.968.968,0,0,1,.287.712V-5.225a5.359,5.359,0,0,1-.737,2.775,5.413,5.413,0,0,1-2,1.975A5.694,5.694,0,0,1-56,.25Zm19.325-13.175a.957.957,0,0,1,.725.287.991.991,0,0,1,.275.713V-5.1a5.236,5.236,0,0,1-1.412,3.912A5.378,5.378,0,0,1-41.025.2a5.343,5.343,0,0,1-3.912-1.388A5.236,5.236,0,0,1-46.35-5.1v-6.825a.968.968,0,0,1,.288-.713.968.968,0,0,1,.712-.287.957.957,0,0,1,.725.287.991.991,0,0,1,.275.713V-5.1a3.491,3.491,0,0,0,.875,2.575,3.312,3.312,0,0,0,2.45.875,3.339,3.339,0,0,0,2.488-.875A3.522,3.522,0,0,0-37.675-5.1v-6.825a.968.968,0,0,1,.288-.713A.968.968,0,0,1-36.675-12.925Zm9.75-.325a5.5,5.5,0,0,1,2.025.362,5.773,5.773,0,0,1,1.612.938,5.073,5.073,0,0,1,1.075,1.2,2.252,2.252,0,0,1,.388,1.175l-.5-.3V-12.05a.968.968,0,0,1,.288-.713.968.968,0,0,1,.712-.287.957.957,0,0,1,.725.287.991.991,0,0,1,.275.713V-1.1a6.267,6.267,0,0,1-.862,3.413A5.285,5.285,0,0,1-23.5,4.338,7.67,7.67,0,0,1-26.725,5a8.322,8.322,0,0,1-1.663-.187A9.054,9.054,0,0,1-30,4.338a1.8,1.8,0,0,1-.875-.587,1.153,1.153,0,0,1-.463-.575A.675.675,0,0,1-31.25,2.6a.685.685,0,0,1,.6-.363,3.1,3.1,0,0,1,.9.213q.25.075.725.25a8.465,8.465,0,0,0,1.1.313A5.691,5.691,0,0,0-26.7,3.15a4.46,4.46,0,0,0,3.25-1.1A3.937,3.937,0,0,0-22.325-.9V-3.225l.275.125a3.3,3.3,0,0,1-.6,1.3A4.835,4.835,0,0,1-23.763-.738a5.528,5.528,0,0,1-1.475.725A5.3,5.3,0,0,1-26.875.25a5.758,5.758,0,0,1-3.138-.875,6.247,6.247,0,0,1-2.2-2.4A7.275,7.275,0,0,1-33.025-6.5a7.33,7.33,0,0,1,.813-3.5,6.186,6.186,0,0,1,2.188-2.387A5.712,5.712,0,0,1-26.925-13.25Zm.275,1.85a4.186,4.186,0,0,0-2.3.637,4.474,4.474,0,0,0-1.575,1.738A5.371,5.371,0,0,0-31.1-6.5a5.337,5.337,0,0,0,.575,2.487A4.546,4.546,0,0,0-28.95-2.25a4.126,4.126,0,0,0,2.3.65,4.186,4.186,0,0,0,2.3-.637,4.474,4.474,0,0,0,1.575-1.737A5.371,5.371,0,0,0-22.2-6.5a5.427,5.427,0,0,0-.575-2.55,4.381,4.381,0,0,0-1.575-1.725A4.248,4.248,0,0,0-26.65-11.4Zm20.425-1.65a.957.957,0,0,1,.725.287.991.991,0,0,1,.275.713V-1.025A1.01,1.01,0,0,1-5.513-.3a.947.947,0,0,1-.713.3.947.947,0,0,1-.712-.3,1.01,1.01,0,0,1-.288-.725V-3.4l.475-.05a2.434,2.434,0,0,1-.375,1.2A4.757,4.757,0,0,1-8.15-1.037a5.562,5.562,0,0,1-1.525.925,4.915,4.915,0,0,1-1.9.362,5.489,5.489,0,0,1-3.062-.887A6.129,6.129,0,0,1-16.775-3.05a7.563,7.563,0,0,1-.775-3.475,7.444,7.444,0,0,1,.788-3.487,6.125,6.125,0,0,1,2.125-2.375,5.439,5.439,0,0,1,3.013-.862,5.605,5.605,0,0,1,2,.35,5.253,5.253,0,0,1,1.612.95A4.516,4.516,0,0,1-6.95-10.625a3.132,3.132,0,0,1,.375,1.45l-.65-.15V-12.05a.968.968,0,0,1,.288-.713A.968.968,0,0,1-6.225-13.05ZM-11.375-1.6a3.86,3.86,0,0,0,2.212-.65A4.466,4.466,0,0,0-7.65-4.013,5.594,5.594,0,0,0-7.1-6.525a5.536,5.536,0,0,0-.55-2.487,4.372,4.372,0,0,0-1.512-1.75,3.914,3.914,0,0,0-2.212-.637,3.928,3.928,0,0,0-2.187.625A4.3,4.3,0,0,0-15.075-9.05a5.573,5.573,0,0,0-.55,2.525,5.594,5.594,0,0,0,.55,2.512A4.466,4.466,0,0,0-13.563-2.25,3.818,3.818,0,0,0-11.375-1.6ZM9-18.5a.957.957,0,0,1,.725.288A.991.991,0,0,1,10-17.5V-1.025A1.01,1.01,0,0,1,9.713-.3.947.947,0,0,1,9,0a.947.947,0,0,1-.712-.3A1.01,1.01,0,0,1,8-1.025V-3.4l.475-.175a2.637,2.637,0,0,1-.363,1.263A4.53,4.53,0,0,1,7.088-1.075a5.828,5.828,0,0,1-1.538.95A4.772,4.772,0,0,1,3.65.25,5.485,5.485,0,0,1,.6-.625a6.164,6.164,0,0,1-2.137-2.4A7.464,7.464,0,0,1-2.325-6.5,7.52,7.52,0,0,1-1.538-10,6.1,6.1,0,0,1,.588-12.387,5.439,5.439,0,0,1,3.6-13.25a5.433,5.433,0,0,1,1.962.35,5.457,5.457,0,0,1,1.613.95,4.615,4.615,0,0,1,1.087,1.325,3.052,3.052,0,0,1,.388,1.45L8-9.325V-17.5a.968.968,0,0,1,.288-.712A.968.968,0,0,1,9-18.5ZM3.85-1.6a3.9,3.9,0,0,0,2.225-.637,4.409,4.409,0,0,0,1.5-1.75A5.594,5.594,0,0,0,8.125-6.5a5.573,5.573,0,0,0-.55-2.525,4.391,4.391,0,0,0-1.512-1.738A3.914,3.914,0,0,0,3.85-11.4a3.872,3.872,0,0,0-2.187.637A4.391,4.391,0,0,0,.15-9.025,5.573,5.573,0,0,0-.4-6.5,5.536,5.536,0,0,0,.15-4.013,4.466,4.466,0,0,0,1.662-2.25,3.818,3.818,0,0,0,3.85-1.6Zm22-4.9A7.016,7.016,0,0,1,25-3.025a6.337,6.337,0,0,1-2.313,2.4A6.326,6.326,0,0,1,19.375.25a6.279,6.279,0,0,1-3.288-.875,6.431,6.431,0,0,1-2.325-2.4A6.935,6.935,0,0,1,12.9-6.5a6.935,6.935,0,0,1,.863-3.475,6.431,6.431,0,0,1,2.325-2.4,6.279,6.279,0,0,1,3.288-.875,6.326,6.326,0,0,1,3.313.875A6.337,6.337,0,0,1,25-9.975,7.016,7.016,0,0,1,25.85-6.5Zm-2,0a5.332,5.332,0,0,0-.588-2.55,4.44,4.44,0,0,0-1.6-1.725,4.266,4.266,0,0,0-2.288-.625,4.285,4.285,0,0,0-2.275.625A4.409,4.409,0,0,0,15.488-9.05,5.332,5.332,0,0,0,14.9-6.5a5.277,5.277,0,0,0,.587,2.525A4.5,4.5,0,0,0,17.1-2.237a4.221,4.221,0,0,0,2.275.637,4.2,4.2,0,0,0,2.288-.637,4.534,4.534,0,0,0,1.6-1.737A5.277,5.277,0,0,0,23.85-6.5ZM29.75,0a.947.947,0,0,1-.712-.3,1.01,1.01,0,0,1-.288-.725v-10.9a.968.968,0,0,1,.288-.713.968.968,0,0,1,.712-.287.957.957,0,0,1,.725.287.991.991,0,0,1,.275.713v3.3l-.3-.525a5.479,5.479,0,0,1,.538-1.512,5.284,5.284,0,0,1,.988-1.325,4.538,4.538,0,0,1,1.375-.925,4.212,4.212,0,0,1,1.7-.337,2.016,2.016,0,0,1,1.012.262.813.813,0,0,1,.463.738,1,1,0,0,1-.275.775.9.9,0,0,1-.625.25A1.484,1.484,0,0,1,35-11.363a1.8,1.8,0,0,0-.75-.137,2.54,2.54,0,0,0-1.237.337,3.9,3.9,0,0,0-1.125.963,5.285,5.285,0,0,0-.825,1.412A4.533,4.533,0,0,0,30.75-7.1v6.075a1.01,1.01,0,0,1-.288.725A.947.947,0,0,1,29.75,0ZM44.075.25a6.979,6.979,0,0,1-3.5-.85A5.971,5.971,0,0,1,38.25-2.937a6.97,6.97,0,0,1-.825-3.437,7.479,7.479,0,0,1,.862-3.712,6.148,6.148,0,0,1,2.237-2.35,5.657,5.657,0,0,1,2.925-.812,5.969,5.969,0,0,1,2.237.425,5.8,5.8,0,0,1,1.9,1.238,6.106,6.106,0,0,1,1.337,1.95A6.536,6.536,0,0,1,49.45-7.1a.967.967,0,0,1-.325.675,1,1,0,0,1-.7.275H38.55L38.1-7.875h9.625l-.4.35v-.55a3.123,3.123,0,0,0-.662-1.762,3.983,3.983,0,0,0-1.437-1.138,4.121,4.121,0,0,0-1.775-.4,4.408,4.408,0,0,0-1.487.262,3.538,3.538,0,0,0-1.325.85A4.209,4.209,0,0,0,39.7-8.75a6.3,6.3,0,0,0-.35,2.225,5.332,5.332,0,0,0,.588,2.55,4.441,4.441,0,0,0,1.638,1.737A4.579,4.579,0,0,0,44-1.6a4.754,4.754,0,0,0,1.55-.225,4.214,4.214,0,0,0,1.113-.563,5.474,5.474,0,0,0,.787-.687A1.136,1.136,0,0,1,48.1-3.3a.818.818,0,0,1,.6.25.818.818,0,0,1,.25.6.95.95,0,0,1-.4.75A6.579,6.579,0,0,1,46.637-.338,5.7,5.7,0,0,1,44.075.25ZM51.6-2.05a1.054,1.054,0,0,1-.2-.687.853.853,0,0,1,.425-.638.88.88,0,0,1,.588-.15.915.915,0,0,1,.612.325,5.569,5.569,0,0,0,1.6,1.313,4.566,4.566,0,0,0,2.2.487,5.019,5.019,0,0,0,1.2-.2,2.217,2.217,0,0,0,1.013-.613,1.625,1.625,0,0,0,.413-1.163,1.479,1.479,0,0,0-.425-1.112,3.244,3.244,0,0,0-1.1-.675,12.312,12.312,0,0,0-1.475-.463q-.825-.225-1.625-.512a6.28,6.28,0,0,1-1.437-.725,3.4,3.4,0,0,1-1.025-1.1,3.143,3.143,0,0,1-.388-1.612,3.18,3.18,0,0,1,.612-1.95,3.973,3.973,0,0,1,1.65-1.275,5.625,5.625,0,0,1,2.263-.45,7.017,7.017,0,0,1,1.462.162,5.64,5.64,0,0,1,1.488.55,4.178,4.178,0,0,1,1.275,1.063,1,1,0,0,1,.25.625.8.8,0,0,1-.325.675.9.9,0,0,1-.612.175.858.858,0,0,1-.562-.25,3.47,3.47,0,0,0-1.312-.963,4.366,4.366,0,0,0-1.737-.337,4.014,4.014,0,0,0-1.175.175,2.153,2.153,0,0,0-.963.588A1.6,1.6,0,0,0,53.9-9.65a1.576,1.576,0,0,0,.45,1.1,3.083,3.083,0,0,0,1.15.688q.725.263,1.6.513.8.2,1.538.463a5.477,5.477,0,0,1,1.337.688,3.069,3.069,0,0,1,.95,1.087,3.535,3.535,0,0,1,.35,1.663,3.146,3.146,0,0,1-.65,1.987A4.087,4.087,0,0,1,58.913-.187,5.949,5.949,0,0,1,56.625.25a7.368,7.368,0,0,1-2.713-.525A5.435,5.435,0,0,1,51.6-2.05Z" transform="translate(181 1113.875)"/>
    <g id="Grupo_1861" data-name="Grupo 1861">
      <g id="categoria-en-pareja" transform="translate(52.418 1068.836)">
        <g id="icons" transform="translate(16.582 12.164)">
          <path id="favorite" d="M26,3.334l5.052,10.983a2.322,2.322,0,0,0,1.538,1.318l11.422,1.757a1.989,1.989,0,0,1,1.318,3.515l-8.347,8.567a3.066,3.066,0,0,0-.659,1.977L38.3,43.312c.22,1.757-1.538,3.295-3.075,2.416L24.9,40.017a1.647,1.647,0,0,0-1.977,0L12.6,45.729a2.12,2.12,0,0,1-3.075-2.416L11.5,31.45a2.214,2.214,0,0,0-.659-1.977L2.493,20.907A2.282,2.282,0,0,1,3.81,17.172l11.422-1.757A1.884,1.884,0,0,0,16.771,14.1L21.823,3.114A2.382,2.382,0,0,1,26,3.334Z" transform="translate(-1.956 -1.987)" fill="none" stroke="#000" stroke-width="1"/>
        </g>
      </g>
      <path id="Trazado_450" data-name="Trazado 450" d="M5.013-1.875a.918.918,0,0,1,.675.275.918.918,0,0,1,.275.675.877.877,0,0,1-.275.663A.941.941,0,0,1,5.013,0H-4.062A1.051,1.051,0,0,1-4.8-.262a.917.917,0,0,1-.287-.713,1.044,1.044,0,0,1,.3-.725L.862-7.875a13.222,13.222,0,0,0,1.875-2.437,4.451,4.451,0,0,0,.65-2.212A3.461,3.461,0,0,0,2.95-14.3a3.016,3.016,0,0,0-1.212-1.162,3.83,3.83,0,0,0-1.825-.413A3.78,3.78,0,0,0-2-15.35a3.585,3.585,0,0,0-1.437,1.625,1.073,1.073,0,0,1-.388.387.924.924,0,0,1-.437.113,1.063,1.063,0,0,1-.675-.263.772.772,0,0,1-.325-.613.949.949,0,0,1,.162-.525,6,6,0,0,1,.387-.525,5.242,5.242,0,0,1,2.075-1.925A5.739,5.739,0,0,1,.037-17.75a6.087,6.087,0,0,1,2.912.65A4.46,4.46,0,0,1,4.8-15.288a5.394,5.394,0,0,1,.637,2.638A5.969,5.969,0,0,1,5.1-10.712,8.887,8.887,0,0,1,4.063-8.675a17.417,17.417,0,0,1-1.775,2.2l-4.375,4.85-.25-.25Z" transform="translate(90.263 1112.75)"/>
    </g>
    <g id="Grupo_280" data-name="Grupo 280" transform="translate(122.058 787.875)">
      <path id="Trazado_13" data-name="Trazado 13" d="M25.648,26.249c-.02-.224-.035-.583-.047-.955,3.386-.347,5.76-1.159,5.76-2.1-.009,0-.009-.039-.009-.055-2.531-2.281,2.194-18.488-6.6-18.159a4.475,4.475,0,0,0-2.906-.883c-11.914.9-6.646,16.207-9.361,19.1h-.005s0,0,0,0v0h0c.011.926,2.306,1.724,5.593,2.079-.009.226-.029.506-.072.974-1.365,3.67-10.576,2.64-11,9.718H36.609C36.184,28.888,27.013,29.919,25.648,26.249Z" transform="translate(131.297 295.033)" fill="#787878"/>
      <path id="Trazado_12" data-name="Trazado 12" d="M25.648,26.315a32.208,32.208,0,0,1-.07-3.28c.569-.3,1.588-2.2,1.76-3.809.447-.037,1.152-.473,1.359-2.2a1.608,1.608,0,0,0-.6-1.609c.728-2.189,2.239-8.96-2.8-9.659-.518-.91-1.845-1.371-3.569-1.371-6.9.127-7.731,5.21-6.219,11.03a1.611,1.611,0,0,0-.6,1.609c.207,1.723.912,2.159,1.359,2.2a6.406,6.406,0,0,0,1.8,3.809A32.216,32.216,0,0,1,18,26.315c-1.365,3.67-10.576,2.64-11,9.718H36.609C36.184,28.955,27.013,29.985,25.648,26.315Z" transform="translate(124.285 294.967)"/>
    </g>
  </g>
</svg>
