<svg xmlns="http://www.w3.org/2000/svg" width="85" height="85" viewBox="0 0 85 85">
  <g id="Grupo_2062" data-name="Grupo 2062" transform="translate(0)">
    <rect id="Rectángulo_294" data-name="Rectángulo 294" width="85" height="85" transform="translate(0)" fill="none"/>
    <g id="categoria-colaborativos" transform="translate(13.29 14.205)">
      <g id="Grupo_1742" data-name="Grupo 1742">
        <g id="_x35_57_x2C__award_x2C__cup_x2C__prize_x2C__reward_x2C__victory">
          <g id="Grupo_1375" data-name="Grupo 1375">
            <path id="Trazado_178" data-name="Trazado 178" d="M66.877,30.416a8.726,8.726,0,0,0,.893,1.27,9.137,9.137,0,0,0,1.1,1.091,8.95,8.95,0,0,0,1.281.878,8.815,8.815,0,0,0,2.873,1,8.633,8.633,0,0,0-.115-1.5,8.779,8.779,0,0,0-.39-1.5,8.928,8.928,0,0,0-.65-1.409A8.752,8.752,0,0,0,68.6,27a8.587,8.587,0,0,0-1.413-.633A8.863,8.863,0,0,0,65.72,26a8.668,8.668,0,0,0,.509,3.005A8.969,8.969,0,0,0,66.877,30.416Zm-15.525,1.27a8.543,8.543,0,0,0,1.541-2.68,8.72,8.72,0,0,0,.392-1.5A8.618,8.618,0,0,0,53.4,26a8.9,8.9,0,0,0-1.462.37A8.572,8.572,0,0,0,50.524,27a8.8,8.8,0,0,0-1.277.879,8.682,8.682,0,0,0-1.106,1.095,8.821,8.821,0,0,0-.892,1.267,8.929,8.929,0,0,0-.65,1.409,8.753,8.753,0,0,0-.39,1.5,8.64,8.64,0,0,0-.117,1.5,8.812,8.812,0,0,0,2.875-1,8.945,8.945,0,0,0,1.281-.878A9.094,9.094,0,0,0,51.352,31.686Zm-10.3,4.246c.476-.45.974-.882,1.486-1.3.661-.538,1.351-1.043,2.059-1.515a.475.475,0,1,1,.525.791c-.688.458-1.351.948-1.988,1.464-.611.5-1.2,1.025-1.772,1.578.049.194.092.4.128.593a9.578,9.578,0,0,1-1.19,6.582,9.724,9.724,0,0,1-.985,1.365L39.3,45.5a9.578,9.578,0,0,1-2.189-7.962A9.586,9.586,0,0,1,39.285,33l.016-.015a9.634,9.634,0,0,1,1,1.38,9.145,9.145,0,0,1,.74,1.537Zm-6.527,12.34-.009.025c.229.22.446.454.655.7a9.651,9.651,0,0,1,.983,1.395,9.9,9.9,0,0,1,.721,1.556,9.379,9.379,0,0,1,.429,1.644,9.612,9.612,0,0,1,.13,1.706,9.709,9.709,0,0,1-.176,1.688,9.569,9.569,0,0,1-1.55-.692,9.435,9.435,0,0,1-1.413-.963,9.587,9.587,0,0,1-2.18-2.573l-.02-.033A9.51,9.51,0,0,1,31,46.141a9.554,9.554,0,0,1,1.552.7,9,9,0,0,1,1.18.78c.251-.8.536-1.589.855-2.354a26.934,26.934,0,0,1,1.263-2.621.475.475,0,0,1,.833.458,26.073,26.073,0,0,0-2.154,5.173Zm-.383,13.339a.494.494,0,0,1,.011.1,9.689,9.689,0,0,1,1.272.359,9.888,9.888,0,0,1,1.552.721,10.092,10.092,0,0,1,1.4.985,9.6,9.6,0,0,1,2.855,4.173,9.429,9.429,0,0,1-1.691.176,9.577,9.577,0,0,1-1.7-.128,9.718,9.718,0,0,1-1.649-.428,9.885,9.885,0,0,1-1.552-.725,9.259,9.259,0,0,1-1.395-.981,9.4,9.4,0,0,1-2.16-2.621,9.374,9.374,0,0,1-.7-1.552,9.422,9.422,0,0,1,1.691-.176,8.882,8.882,0,0,1,1.08.048q-.291-1.318-.452-2.665a27,27,0,0,1-.189-2.969.474.474,0,0,1,.948-.011,26.358,26.358,0,0,0,.679,5.692Zm6.43,11.97a.6.6,0,0,1,.075.106,9.59,9.59,0,0,1,6.587.037,9.9,9.9,0,0,1,1.535.739,9.465,9.465,0,0,1,1.364.985l.017.015a9.547,9.547,0,0,1-12.507.015l-.015-.015a9.452,9.452,0,0,1,1.378-1c.234-.139.476-.271.723-.388a27.424,27.424,0,0,1-3.521-4.748.474.474,0,0,1,.818-.48,26.3,26.3,0,0,0,1.638,2.464A25.536,25.536,0,0,0,40.571,73.582ZM82.16,68.848a.474.474,0,0,1,.818.48,27,27,0,0,1-1.7,2.555,27.3,27.3,0,0,1-1.825,2.193c.249.117.49.249.727.388a9.857,9.857,0,0,1,1.376,1l-.016.015a9.7,9.7,0,0,1-1.364.985,9.535,9.535,0,0,1-8.227.736,9.371,9.371,0,0,1-1.539-.739,9.526,9.526,0,0,1-1.376-1l.017-.015a9.578,9.578,0,0,1,1.364-.985,9.981,9.981,0,0,1,1.535-.739,9.584,9.584,0,0,1,6.587-.037.517.517,0,0,1,.077-.106,26.313,26.313,0,0,0,3.544-4.733Zm3.563-12.929a.475.475,0,0,1,.95.011,27.412,27.412,0,0,1-.19,2.969,26.583,26.583,0,0,1-.454,2.665,8.963,8.963,0,0,1,1.084-.048,9.446,9.446,0,0,1,1.691.176,9.517,9.517,0,0,1-2.855,4.173,9.3,9.3,0,0,1-1.4.981,9.467,9.467,0,0,1-4.9,1.281,9.458,9.458,0,0,1-1.691-.176,9.832,9.832,0,0,1,.7-1.552,9.493,9.493,0,0,1,2.16-2.621,9.966,9.966,0,0,1,1.4-.985,9.505,9.505,0,0,1,2.822-1.08.476.476,0,0,1,.011-.1,26.358,26.358,0,0,0,.679-5.692ZM82.507,43.1a.476.476,0,1,1,.835-.457A27.015,27.015,0,0,1,84.6,45.263c.319.765.6,1.552.853,2.354a9.117,9.117,0,0,1,1.182-.78,9.519,9.519,0,0,1,1.55-.7,9.781,9.781,0,0,1,.177,1.691,9.518,9.518,0,0,1-.132,1.7,9.32,9.32,0,0,1-.428,1.647,9.587,9.587,0,0,1-.716,1.541l-.02.033a9.768,9.768,0,0,1-.977,1.387,9.562,9.562,0,0,1-1.2,1.186,9.24,9.24,0,0,1-1.41.963,9.5,9.5,0,0,1-1.552.692,9.526,9.526,0,0,1-.176-1.688,9.786,9.786,0,0,1,.13-1.706,9.532,9.532,0,0,1,1.151-3.2,9.432,9.432,0,0,1,.983-1.4,9.122,9.122,0,0,1,.653-.7l-.007-.026A25.925,25.925,0,0,0,82.507,43.1Zm-8.5-9.228a.474.474,0,1,1,.523-.791q1.081.714,2.09,1.534.78.632,1.512,1.318l.013-.033a9.289,9.289,0,0,1,.737-1.537,9.825,9.825,0,0,1,1-1.38L79.9,33a9.8,9.8,0,0,1,.985,1.365,9.595,9.595,0,0,1,1.19,6.582,9.466,9.466,0,0,1-.454,1.644,8.99,8.99,0,0,1-.738,1.537,9.42,9.42,0,0,1-1,1.38l-.014-.015a9.55,9.55,0,0,1-1.722-2.9,9.623,9.623,0,0,1-.452-5.044c.035-.2.077-.4.126-.593q-.862-.84-1.8-1.6C75.382,34.827,74.707,34.333,74.011,33.871ZM56.658,82.59a26.585,26.585,0,0,1-3.953-.725,27.049,27.049,0,0,1-6.425-2.61.476.476,0,0,1,.47-.828,25.718,25.718,0,0,0,6.194,2.515,26.348,26.348,0,0,0,13.3,0,25.751,25.751,0,0,0,6.194-2.515.476.476,0,0,1,.469.828,27.019,27.019,0,0,1-6.425,2.61,26.584,26.584,0,0,1-3.953.725Z" transform="translate(-30.384 -26.001)" fill-rule="evenodd"/>
          </g>
        </g>
      </g>
      <g id="iconfinder_collaborative-combine-hand-together-team_3790070" transform="translate(13.022 14.285)">
        <rect id="Rectángulo_202" data-name="Rectángulo 202" width="10.116" height="3.194" transform="translate(11.323 28.578)"/>
        <rect id="Rectángulo_203" data-name="Rectángulo 203" width="10.116" height="2.662" transform="translate(0 7.222) rotate(-45)"/>
        <rect id="Rectángulo_204" data-name="Rectángulo 204" width="2.662" height="10.116" transform="translate(23.34 1.882) rotate(-45)"/>
        <path id="Trazado_411" data-name="Trazado 411" d="M27.179,8.9l-1.433-.061a2.693,2.693,0,0,0-2.28.762l-2.931,2.931L17.472,9.467a2.044,2.044,0,0,0-2.054-.484A1.926,1.926,0,0,1,13.5,8.5l-.455-.455L7.394,13.7l.92.92-.061,1.433a2.693,2.693,0,0,0,.762,2.28l5.118,5.118a2.654,2.654,0,0,1,.9-1.735l-1.594-1.594.376-.376,1.665,1.665a2.635,2.635,0,0,1,.757-.288V19.151l-.917-.917.376-.376.54.54V15.55a1.922,1.922,0,0,1,1.673-1.93,1.867,1.867,0,0,1,.527.024l-.655-.655.376-.376.956.956a1.886,1.886,0,0,1,1.812-1.016,1.917,1.917,0,0,1,1.69,1.774,1.894,1.894,0,0,1,.972-.177,1.927,1.927,0,0,1,1.7,1.95v1.823a2.664,2.664,0,0,1,2.032,1.93l1.485-1.485.376.376L27.417,20.51c0,.007,0,.014,0,.021V22.3a2.11,2.11,0,0,0,1.267-.6l3.642-3.642A2.044,2.044,0,0,0,32.811,16a1.926,1.926,0,0,1,.481-1.923l.455-.455L28.1,7.979Z" transform="translate(-4.383 -4.967)"/>
        <path id="Trazado_412" data-name="Trazado 412" d="M25.687,19.725a1.326,1.326,0,0,0-1.451-1.165,1.383,1.383,0,0,0-1.194,1.4v6.047a2.13,2.13,0,0,0-2.13,2.13v5.15a2.044,2.044,0,0,0,1.11,1.794,1.926,1.926,0,0,1,1.019,1.7v.643h7.986v-1.3l1.056-.97A2.693,2.693,0,0,0,33.157,33V24.941a2.13,2.13,0,0,0-2.13-2.13v-2.3a1.4,1.4,0,0,0-1.212-1.42,1.327,1.327,0,0,0-1.428,1.118h.244V28.43H28.1V20.208h.266V18.913a1.4,1.4,0,0,0-1.212-1.42,1.331,1.331,0,0,0-1.45,1.326v.906h.266v8.222h-.532V19.725ZM23.254,30.559h-.532V26.3h.532Zm7.507-7.582h.532v5.56h-.532Z" transform="translate(-10.704 -9.413)"/>
      </g>
    </g>
  </g>
</svg>
