<svg xmlns="http://www.w3.org/2000/svg" width="85" height="85" viewBox="0 0 85 85">
  <g id="Grupo_2061" data-name="Grupo 2061" transform="translate(0)">
    <rect id="Rectángulo_294" data-name="Rectángulo 294" width="85" height="85" transform="translate(0)" fill="none"/>
    <g id="categoria-fillers" transform="translate(14.252 15.136)">
      <g id="Grupo_1743" data-name="Grupo 1743">
        <g id="_x35_57_x2C__award_x2C__cup_x2C__prize_x2C__reward_x2C__victory">
          <g id="Grupo_1375" data-name="Grupo 1375">
            <path id="Trazado_178" data-name="Trazado 178" d="M65.675,30.27a8.439,8.439,0,0,0,.864,1.228A8.836,8.836,0,0,0,67.6,32.554a8.655,8.655,0,0,0,1.239.85,8.525,8.525,0,0,0,2.779.97,8.349,8.349,0,0,0-.111-1.452,8.49,8.49,0,0,0-.377-1.455,8.634,8.634,0,0,0-.628-1.363,8.464,8.464,0,0,0-3.167-3.133,8.3,8.3,0,0,0-1.367-.612A8.571,8.571,0,0,0,64.557,26a8.382,8.382,0,0,0,.492,2.906A8.673,8.673,0,0,0,65.675,30.27ZM50.662,31.5a8.261,8.261,0,0,0,1.49-2.591,8.432,8.432,0,0,0,.379-1.455A8.335,8.335,0,0,0,52.642,26a8.6,8.6,0,0,0-1.414.357,8.29,8.29,0,0,0-1.367.612,8.509,8.509,0,0,0-1.235.85,8.4,8.4,0,0,0-1.069,1.058,8.531,8.531,0,0,0-.862,1.225,8.635,8.635,0,0,0-.628,1.363,8.464,8.464,0,0,0-.377,1.455,8.356,8.356,0,0,0-.113,1.452,8.522,8.522,0,0,0,2.781-.97,8.651,8.651,0,0,0,1.239-.85A8.794,8.794,0,0,0,50.662,31.5ZM40.7,35.605c.46-.435.942-.853,1.437-1.257.639-.52,1.306-1.009,1.991-1.466a.459.459,0,1,1,.508.765c-.665.442-1.306.917-1.922,1.416-.591.482-1.165.991-1.713,1.526.048.188.089.382.124.573a9.263,9.263,0,0,1-1.151,6.365,9.4,9.4,0,0,1-.952,1.32l-.014.014a9.263,9.263,0,0,1-2.117-7.7,9.27,9.27,0,0,1,2.1-4.4l.016-.014a9.317,9.317,0,0,1,.963,1.335,8.844,8.844,0,0,1,.715,1.487ZM34.388,47.539l-.009.025c.221.212.432.439.634.676a9.334,9.334,0,0,1,.95,1.349,9.579,9.579,0,0,1,.7,1.5,9.071,9.071,0,0,1,.414,1.59,9.3,9.3,0,0,1,.126,1.65,9.39,9.39,0,0,1-.17,1.632,9.255,9.255,0,0,1-1.5-.669,9.124,9.124,0,0,1-1.366-.931,9.271,9.271,0,0,1-2.108-2.489l-.019-.032a9.2,9.2,0,0,1-1.062-6.365,9.24,9.24,0,0,1,1.5.673,8.7,8.7,0,0,1,1.142.754c.243-.775.519-1.537.827-2.276a26.046,26.046,0,0,1,1.221-2.535.459.459,0,0,1,.805.442,25.214,25.214,0,0,0-2.083,5Zm-.37,12.9a.478.478,0,0,1,.011.1,9.37,9.37,0,0,1,1.23.347,9.563,9.563,0,0,1,1.5.7,9.76,9.76,0,0,1,1.351.952,9.286,9.286,0,0,1,2.761,4.036,9.119,9.119,0,0,1-1.636.17,9.261,9.261,0,0,1-1.646-.124,9.4,9.4,0,0,1-1.595-.414,9.56,9.56,0,0,1-1.5-.7,8.954,8.954,0,0,1-1.349-.949,9.092,9.092,0,0,1-2.089-2.535,9.066,9.066,0,0,1-.673-1.5,9.112,9.112,0,0,1,1.636-.17,8.59,8.59,0,0,1,1.044.046q-.282-1.274-.437-2.577a26.112,26.112,0,0,1-.182-2.871.458.458,0,0,1,.917-.011,25.49,25.49,0,0,0,.657,5.5Zm6.218,11.576a.578.578,0,0,1,.073.1,9.274,9.274,0,0,1,6.37.036,9.57,9.57,0,0,1,1.485.715,9.153,9.153,0,0,1,1.319.952l.016.014a9.232,9.232,0,0,1-12.095.014l-.014-.014a9.14,9.14,0,0,1,1.333-.967c.227-.134.46-.262.7-.375A26.521,26.521,0,0,1,36.016,67.9a.459.459,0,0,1,.791-.464,25.437,25.437,0,0,0,1.584,2.383A24.7,24.7,0,0,0,40.236,72.016Zm40.22-4.578a.459.459,0,0,1,.791.464,26.113,26.113,0,0,1-1.641,2.471,26.4,26.4,0,0,1-1.765,2.121c.241.113.474.241.7.375a9.533,9.533,0,0,1,1.331.967l-.016.014a9.376,9.376,0,0,1-1.319.952,9.221,9.221,0,0,1-7.956.712A9.063,9.063,0,0,1,69.1,74.8a9.214,9.214,0,0,1-1.331-.963l.016-.014a9.263,9.263,0,0,1,1.319-.952,9.654,9.654,0,0,1,1.485-.715,9.268,9.268,0,0,1,6.371-.036.5.5,0,0,1,.074-.1,25.446,25.446,0,0,0,3.427-4.578Zm3.446-12.5a.459.459,0,0,1,.919.011,26.509,26.509,0,0,1-.184,2.871,25.7,25.7,0,0,1-.439,2.577,8.669,8.669,0,0,1,1.048-.046,9.136,9.136,0,0,1,1.636.17,9.2,9.2,0,0,1-2.761,4.036,8.99,8.99,0,0,1-1.353.949,9.155,9.155,0,0,1-4.74,1.239,9.146,9.146,0,0,1-1.636-.17,9.508,9.508,0,0,1,.672-1.5,9.181,9.181,0,0,1,2.089-2.535,9.637,9.637,0,0,1,1.352-.952,9.192,9.192,0,0,1,2.729-1.044.46.46,0,0,1,.011-.1,25.491,25.491,0,0,0,.657-5.5Zm-3.11-12.4a.46.46,0,1,1,.807-.442,26.125,26.125,0,0,1,1.221,2.535c.308.74.584,1.5.825,2.277a8.818,8.818,0,0,1,1.144-.754,9.205,9.205,0,0,1,1.5-.673,9.459,9.459,0,0,1,.172,1.636,9.2,9.2,0,0,1-.128,1.646,9.014,9.014,0,0,1-.414,1.593,9.272,9.272,0,0,1-.692,1.49l-.02.032a9.446,9.446,0,0,1-.945,1.342A9.248,9.248,0,0,1,83.1,54.365a8.936,8.936,0,0,1-1.363.931,9.185,9.185,0,0,1-1.5.669,9.212,9.212,0,0,1-.17-1.632,9.463,9.463,0,0,1,.126-1.65,9.218,9.218,0,0,1,1.113-3.09,9.122,9.122,0,0,1,.951-1.352,8.823,8.823,0,0,1,.632-.676l-.007-.025a25.072,25.072,0,0,0-2.085-5Zm-8.217-8.925a.459.459,0,1,1,.506-.765q1.046.69,2.021,1.483.754.611,1.462,1.274l.013-.032a8.984,8.984,0,0,1,.713-1.487,9.5,9.5,0,0,1,.966-1.335l.014.014a9.479,9.479,0,0,1,.952,1.321,9.279,9.279,0,0,1,1.151,6.365,9.154,9.154,0,0,1-.439,1.589,8.693,8.693,0,0,1-.713,1.487,9.111,9.111,0,0,1-.965,1.335l-.014-.014a9.235,9.235,0,0,1-1.665-2.807,9.306,9.306,0,0,1-.437-4.878c.034-.191.074-.386.122-.573q-.834-.812-1.738-1.547C73.9,34.536,73.248,34.058,72.575,33.612ZM55.793,80.728a25.71,25.71,0,0,1-3.823-.7A26.159,26.159,0,0,1,45.757,77.5a.46.46,0,0,1,.455-.8,24.871,24.871,0,0,0,5.99,2.432,25.48,25.48,0,0,0,12.861,0,24.9,24.9,0,0,0,5.99-2.432.46.46,0,0,1,.453.8,26.129,26.129,0,0,1-6.213,2.524,25.708,25.708,0,0,1-3.823.7Z" transform="translate(-30.384 -26.001)" fill-rule="evenodd"/>
          </g>
        </g>
      </g>
      <g id="Grupo_1744" data-name="Grupo 1744" transform="translate(13.815 11.841)">
        <g id="Layer_2" data-name="Layer 2" transform="translate(0 0)">
          <path id="Trazado_1" data-name="Trazado 1" d="M4,18.7A12.7,12.7,0,1,0,16.7,6,12.7,12.7,0,0,0,4,18.7ZM16.7,9.174A9.522,9.522,0,1,1,7.174,18.7,9.522,9.522,0,0,1,16.7,9.174Z" transform="translate(-2.083 0.348)"/>
          <rect id="Rectángulo_1" data-name="Rectángulo 1" width="6.348" height="3.174" transform="translate(11.439)"/>
          <rect id="Rectángulo_2" data-name="Rectángulo 2" width="6.729" height="3.174" transform="translate(0 7.6) rotate(-45)"/>
        </g>
        <g id="iconfinder_weight_7055825" transform="translate(8.297 16.416)">
          <path id="Trazado_14" data-name="Trazado 14" d="M8.8,29.658H7.952a.282.282,0,0,1-.282-.282V26.922a.282.282,0,0,1,.282-.282H8.8a.282.282,0,0,1,.282.282v2.455A.282.282,0,0,1,8.8,29.658Zm-.563-.563h.282V27.2H8.233Z" transform="translate(-7.67 -25.334)"/>
          <path id="Trazado_15" data-name="Trazado 15" d="M12.078,28.683H10.952a.282.282,0,0,1-.282-.282v-3.71a.282.282,0,0,1,.282-.282h1.126a.282.282,0,0,1,.282.282V28.4A.282.282,0,0,1,12.078,28.683Zm-.845-.563H11.8V24.973h-.563Z" transform="translate(-9.825 -23.732)"/>
          <path id="Trazado_16" data-name="Trazado 16" d="M16.824,27.63H14.952a.282.282,0,0,1-.282-.282V22.282A.282.282,0,0,1,14.952,22h1.872a.282.282,0,0,1,.282.282v5.067A.282.282,0,0,1,16.824,27.63Zm-1.591-.563h1.309v-4.5H15.233Z" transform="translate(-12.699 -22)"/>
          <path id="Trazado_17" data-name="Trazado 17" d="M52.456,29.658h-.845a.282.282,0,0,1-.282-.282V26.922a.282.282,0,0,1,.282-.282h.845a.282.282,0,0,1,.282.282v2.455A.282.282,0,0,1,52.456,29.658Zm-.563-.563h.282V27.2h-.282Z" transform="translate(-39.039 -25.334)"/>
          <path id="Trazado_18" data-name="Trazado 18" d="M48.728,28.683H47.6a.282.282,0,0,1-.282-.282v-3.71a.282.282,0,0,1,.282-.282h1.126a.282.282,0,0,1,.282.282V28.4A.282.282,0,0,1,48.728,28.683Zm-.845-.563h.563V24.973h-.563Z" transform="translate(-36.158 -23.732)"/>
          <path id="Trazado_19" data-name="Trazado 19" d="M42.824,27.63H40.952a.282.282,0,0,1-.282-.282V22.282A.282.282,0,0,1,40.952,22h1.872a.282.282,0,0,1,.282.282v5.067A.282.282,0,0,1,42.824,27.63Zm-1.591-.563h1.309v-4.5H41.233Z" transform="translate(-31.38 -22)"/>
          <path id="Trazado_20" data-name="Trazado 20" d="M27.049,30.689H21.6a.282.282,0,0,1-.282-.282V29.282A.282.282,0,0,1,21.6,29h5.447a.282.282,0,0,1,.282.282v1.126A.282.282,0,0,1,27.049,30.689Zm-5.166-.563h4.884v-.563H21.883Z" transform="translate(-17.477 -27.029)"/>
        </g>
      </g>
    </g>
  </g>
</svg>
