<svg xmlns="http://www.w3.org/2000/svg" width="85" height="85" viewBox="0 0 85 85">
  <g id="Grupo_2065" data-name="Grupo 2065" transform="translate(0)">
    <rect id="Rectángulo_294" data-name="Rectángulo 294" width="85" height="85" transform="translate(0)" fill="none"/>
    <g id="categoria-roll_write" data-name="categoria-roll&amp;write" transform="translate(17.424 15.487)">
      <g id="Grupo_1741" data-name="Grupo 1741">
        <g id="_x35_57_x2C__award_x2C__cup_x2C__prize_x2C__reward_x2C__victory">
          <g id="Grupo_1375" data-name="Grupo 1375">
            <path id="Trazado_178" data-name="Trazado 178" d="M61.712,29.791a7.491,7.491,0,0,0,.767,1.09,7.845,7.845,0,0,0,.946.937,7.684,7.684,0,0,0,1.1.754,7.568,7.568,0,0,0,2.467.861,7.411,7.411,0,0,0-.1-1.289,7.536,7.536,0,0,0-.335-1.292A7.666,7.666,0,0,0,66,29.643a7.514,7.514,0,0,0-2.811-2.781,7.371,7.371,0,0,0-1.213-.544A7.609,7.609,0,0,0,60.719,26a7.441,7.441,0,0,0,.437,2.58A7.7,7.7,0,0,0,61.712,29.791Zm-13.328,1.09a7.334,7.334,0,0,0,1.323-2.3,7.486,7.486,0,0,0,.336-1.292,7.4,7.4,0,0,0,.1-1.288,7.638,7.638,0,0,0-1.255.317,7.359,7.359,0,0,0-1.213.544,7.554,7.554,0,0,0-1.1.754,7.454,7.454,0,0,0-.949.94,7.573,7.573,0,0,0-.765,1.087,7.665,7.665,0,0,0-.558,1.21,7.514,7.514,0,0,0-.335,1.292,7.418,7.418,0,0,0-.1,1.289,7.565,7.565,0,0,0,2.469-.861,7.678,7.678,0,0,0,1.1-.754A7.807,7.807,0,0,0,48.385,30.881Zm-8.843,3.645c.409-.386.836-.757,1.276-1.116.567-.462,1.16-.9,1.768-1.3a.408.408,0,1,1,.451.679c-.591.393-1.159.814-1.706,1.257-.525.427-1.034.88-1.521,1.355.042.166.079.339.11.509A8.222,8.222,0,0,1,38.9,41.56a8.348,8.348,0,0,1-.845,1.172l-.013.013A8.223,8.223,0,0,1,36.16,35.91a8.229,8.229,0,0,1,1.865-3.9l.014-.013a8.272,8.272,0,0,1,.855,1.185,7.852,7.852,0,0,1,.635,1.32Zm-5.6,10.594-.008.022c.2.189.383.39.563.6a8.286,8.286,0,0,1,.844,1.2,8.5,8.5,0,0,1,.619,1.336,8.051,8.051,0,0,1,.368,1.411,8.252,8.252,0,0,1,.111,1.464,8.335,8.335,0,0,1-.151,1.449,8.215,8.215,0,0,1-1.331-.594,8.1,8.1,0,0,1-1.213-.827,8.23,8.23,0,0,1-1.872-2.209l-.017-.028a8.164,8.164,0,0,1-.943-5.65,8.2,8.2,0,0,1,1.332.6,7.725,7.725,0,0,1,1.013.669c.215-.688.46-1.364.734-2.021a23.123,23.123,0,0,1,1.084-2.25.408.408,0,0,1,.715.393,22.383,22.383,0,0,0-1.849,4.441ZM33.61,56.572a.425.425,0,0,1,.009.088,8.319,8.319,0,0,1,1.092.308,8.489,8.489,0,0,1,1.332.619,8.664,8.664,0,0,1,1.2.845,8.243,8.243,0,0,1,2.451,3.583,8.1,8.1,0,0,1-1.452.151,8.221,8.221,0,0,1-1.461-.11,8.343,8.343,0,0,1-1.416-.368,8.487,8.487,0,0,1-1.332-.622,7.949,7.949,0,0,1-1.2-.842,8.071,8.071,0,0,1-1.854-2.25,8.048,8.048,0,0,1-.6-1.333,8.088,8.088,0,0,1,1.452-.151,7.625,7.625,0,0,1,.927.041q-.25-1.131-.388-2.288a23.182,23.182,0,0,1-.162-2.549.407.407,0,0,1,.814-.009,22.627,22.627,0,0,0,.583,4.887Zm5.52,10.276a.513.513,0,0,1,.064.091,8.233,8.233,0,0,1,5.655.032,8.495,8.495,0,0,1,1.318.635,8.126,8.126,0,0,1,1.171.845l.014.013a8.2,8.2,0,0,1-10.737.013l-.012-.013a8.115,8.115,0,0,1,1.183-.858c.2-.119.409-.233.621-.333A23.542,23.542,0,0,1,35.384,63.2a.407.407,0,0,1,.7-.412A22.582,22.582,0,0,0,37.493,64.9,21.925,21.925,0,0,0,39.13,66.848Zm35.7-4.064a.407.407,0,0,1,.7.412,23.182,23.182,0,0,1-1.457,2.193,23.436,23.436,0,0,1-1.567,1.882c.214.1.421.214.624.333a8.462,8.462,0,0,1,1.182.858l-.014.013a8.322,8.322,0,0,1-1.171.845,8.186,8.186,0,0,1-7.063.632,8.044,8.044,0,0,1-1.321-.635,8.18,8.18,0,0,1-1.182-.855l.014-.013a8.224,8.224,0,0,1,1.171-.845,8.569,8.569,0,0,1,1.318-.635,8.227,8.227,0,0,1,5.655-.032.443.443,0,0,1,.066-.091,22.59,22.59,0,0,0,3.042-4.064Zm3.059-11.1a.408.408,0,0,1,.815.009,23.528,23.528,0,0,1-.163,2.549,22.822,22.822,0,0,1-.39,2.288,7.693,7.693,0,0,1,.93-.041,8.11,8.11,0,0,1,1.452.151,8.17,8.17,0,0,1-2.451,3.583,7.98,7.98,0,0,1-1.2.842,8.127,8.127,0,0,1-4.208,1.1,8.12,8.12,0,0,1-1.452-.151,8.44,8.44,0,0,1,.6-1.332,8.15,8.15,0,0,1,1.854-2.25,8.555,8.555,0,0,1,1.2-.845A8.16,8.16,0,0,1,77.3,56.66a.408.408,0,0,1,.01-.088,22.628,22.628,0,0,0,.583-4.887ZM75.131,40.68a.408.408,0,1,1,.716-.393,23.193,23.193,0,0,1,1.084,2.25c.273.657.519,1.332.732,2.021a7.827,7.827,0,0,1,1.015-.669,8.172,8.172,0,0,1,1.331-.6,8.4,8.4,0,0,1,.152,1.452,8.171,8.171,0,0,1-.113,1.461,8,8,0,0,1-.368,1.414,8.232,8.232,0,0,1-.614,1.323l-.017.028a8.386,8.386,0,0,1-.839,1.191,8.21,8.21,0,0,1-1.034,1.018,7.933,7.933,0,0,1-1.21.827,8.154,8.154,0,0,1-1.332.594,8.177,8.177,0,0,1-.151-1.449,8.4,8.4,0,0,1,.112-1.464,8.184,8.184,0,0,1,.988-2.743,8.1,8.1,0,0,1,.844-1.2,7.833,7.833,0,0,1,.561-.6l-.006-.022a22.257,22.257,0,0,0-1.851-4.441Zm-7.294-7.922a.407.407,0,1,1,.449-.679q.928.613,1.794,1.317.67.542,1.3,1.131l.011-.028a7.976,7.976,0,0,1,.633-1.32,8.435,8.435,0,0,1,.858-1.185l.013.013a8.415,8.415,0,0,1,.845,1.172,8.237,8.237,0,0,1,1.021,5.65,8.126,8.126,0,0,1-.39,1.411,7.718,7.718,0,0,1-.633,1.32,8.087,8.087,0,0,1-.856,1.185l-.012-.013A8.2,8.2,0,0,1,71.39,40.24,8.261,8.261,0,0,1,71,35.909c.03-.17.066-.343.108-.509q-.74-.721-1.543-1.373C69.014,33.578,68.434,33.154,67.837,32.758ZM52.94,74.582a22.822,22.822,0,0,1-3.394-.622,23.221,23.221,0,0,1-5.515-2.241.409.409,0,0,1,.4-.71,22.078,22.078,0,0,0,5.317,2.159,22.619,22.619,0,0,0,11.417,0,22.107,22.107,0,0,0,5.317-2.159.408.408,0,0,1,.4.71,23.2,23.2,0,0,1-5.515,2.241,22.821,22.821,0,0,1-3.394.622Z" transform="translate(-30.384 -26.001)" fill-rule="evenodd"/>
          </g>
        </g>
      </g>
      <path id="iconfinder_Baby_and_Toys_baby_kid_male_smile_boy_6588602" d="M21.046,10.547a9,9,0,0,0-4.8-5.4,5.4,5.4,0,0,0-1.8-2.7.75.75,0,1,0-.9,1.2A4.036,4.036,0,0,1,14.6,8.673a3.064,3.064,0,0,1-4.124,1.275A2.261,2.261,0,0,1,9.5,6.873a1.774,1.774,0,0,1,.975-.825,1.512,1.512,0,0,1,1.275.15,1.064,1.064,0,0,1,.6.675,1.254,1.254,0,0,1-.075.9.772.772,0,0,0,1.35.75A3.122,3.122,0,0,0,13.848,6.5,2.351,2.351,0,0,0,12.5,4.923,3.353,3.353,0,0,0,10.1,4.7a1.788,1.788,0,0,0-.825.45A8.841,8.841,0,0,0,4.1,10.7,2.59,2.59,0,0,0,2,13.322a3.111,3.111,0,0,0,1.95,2.849,9,9,0,0,0,17.1-.075A3.111,3.111,0,0,0,23,13.247,2.911,2.911,0,0,0,21.046,10.547ZM9.5,13.322a.75.75,0,0,1,1.5,0v1.5a.75.75,0,1,1-1.5,0ZM11,18.571a3.071,3.071,0,0,1-2.849-2.025.759.759,0,1,1,1.425-.525A1.466,1.466,0,0,0,11,17a.708.708,0,0,1,.75.75A.771.771,0,0,1,11,18.571Zm4.5-3.749a.75.75,0,0,1-1.5,0v-1.5a.75.75,0,0,1,1.5,0Z" transform="translate(12.578 11.984)"/>
    </g>
  </g>
</svg>
