<svg xmlns="http://www.w3.org/2000/svg" width="85" height="85" viewBox="0 0 85 85">
  <g id="Grupo_2063" data-name="Grupo 2063" transform="translate(0)">
    <rect id="Rectángulo_294" data-name="Rectángulo 294" width="85" height="85" transform="translate(0)" fill="none"/>
    <g id="categoria-party" transform="translate(15.655 16.496)">
      <g id="_x35_57_x2C__award_x2C__cup_x2C__prize_x2C__reward_x2C__victory">
        <g id="Grupo_1375" data-name="Grupo 1375">
          <path id="Trazado_178" data-name="Trazado 178" d="M63.922,30.058a8.019,8.019,0,0,0,.821,1.167,8.4,8.4,0,0,0,1.013,1,8.226,8.226,0,0,0,1.178.807,8.1,8.1,0,0,0,2.641.922,7.933,7.933,0,0,0-.106-1.38,8.067,8.067,0,0,0-.358-1.383,8.206,8.206,0,0,0-.6-1.3A8.043,8.043,0,0,0,65.5,26.923a7.891,7.891,0,0,0-1.3-.582A8.145,8.145,0,0,0,62.859,26a7.966,7.966,0,0,0,.467,2.762A8.242,8.242,0,0,0,63.922,30.058ZM49.654,31.226a7.851,7.851,0,0,0,1.416-2.463,8.014,8.014,0,0,0,.36-1.383A7.921,7.921,0,0,0,51.536,26a8.177,8.177,0,0,0-1.344.34,7.878,7.878,0,0,0-1.3.582,8.086,8.086,0,0,0-1.174.807A7.98,7.98,0,0,0,46.7,28.736a8.107,8.107,0,0,0-.819,1.164,8.205,8.205,0,0,0-.6,1.3,8.044,8.044,0,0,0-.358,1.383,7.94,7.94,0,0,0-.108,1.38,8.1,8.1,0,0,0,2.643-.922,8.22,8.22,0,0,0,1.177-.807A8.357,8.357,0,0,0,49.654,31.226Zm-9.467,3.9c.437-.414.9-.811,1.366-1.194.607-.494,1.242-.959,1.892-1.393a.436.436,0,1,1,.483.727c-.632.42-1.241.871-1.827,1.346-.562.458-1.107.942-1.628,1.45.045.178.084.363.118.545A8.8,8.8,0,0,1,39.5,42.657a8.936,8.936,0,0,1-.9,1.255l-.014.013a8.8,8.8,0,0,1-2.012-7.317,8.81,8.81,0,0,1,2-4.178l.015-.013a8.854,8.854,0,0,1,.915,1.268,8.4,8.4,0,0,1,.68,1.413Zm-6,11.341-.008.023c.21.2.41.417.6.643a8.87,8.87,0,0,1,.9,1.282,9.1,9.1,0,0,1,.663,1.43,8.62,8.62,0,0,1,.394,1.511,8.833,8.833,0,0,1,.119,1.568,8.923,8.923,0,0,1-.162,1.551,8.794,8.794,0,0,1-1.425-.636,8.67,8.67,0,0,1-1.3-.885,8.81,8.81,0,0,1-2-2.365l-.018-.03a8.74,8.74,0,0,1-1.009-6.049,8.781,8.781,0,0,1,1.426.639,8.271,8.271,0,0,1,1.085.717c.231-.737.493-1.46.786-2.163A24.752,24.752,0,0,1,35.4,41.295a.437.437,0,0,1,.765.421,23.962,23.962,0,0,0-1.98,4.754Zm-.352,12.259a.454.454,0,0,1,.01.094,8.9,8.9,0,0,1,1.169.33,9.087,9.087,0,0,1,1.426.663,9.275,9.275,0,0,1,1.283.9,8.825,8.825,0,0,1,2.624,3.835,8.666,8.666,0,0,1-1.554.161,8.8,8.8,0,0,1-1.564-.118,8.93,8.93,0,0,1-1.516-.394,9.085,9.085,0,0,1-1.426-.666,8.509,8.509,0,0,1-1.282-.9,8.64,8.64,0,0,1-1.985-2.409,8.615,8.615,0,0,1-.639-1.427,8.659,8.659,0,0,1,1.554-.161,8.162,8.162,0,0,1,.993.044q-.268-1.211-.416-2.449a24.817,24.817,0,0,1-.173-2.728.436.436,0,0,1,.871-.01,24.223,24.223,0,0,0,.624,5.231Zm5.909,11a.55.55,0,0,1,.069.1,8.813,8.813,0,0,1,6.054.034,9.094,9.094,0,0,1,1.411.68,8.7,8.7,0,0,1,1.253.9l.015.013a8.774,8.774,0,0,1-11.494.013l-.013-.013a8.686,8.686,0,0,1,1.267-.919c.215-.128.437-.249.665-.357a25.2,25.2,0,0,1-3.236-4.363.436.436,0,0,1,.752-.441,24.173,24.173,0,0,0,1.505,2.264A23.469,23.469,0,0,0,39.747,69.729Zm38.221-4.35a.436.436,0,0,1,.752.441,24.815,24.815,0,0,1-1.559,2.348,25.093,25.093,0,0,1-1.677,2.015c.229.108.451.229.668.357a9.058,9.058,0,0,1,1.265.919l-.015.013a8.91,8.91,0,0,1-1.253.9,8.763,8.763,0,0,1-7.561.676,8.613,8.613,0,0,1-1.415-.68,8.757,8.757,0,0,1-1.265-.915l.015-.013a8.8,8.8,0,0,1,1.253-.9,9.173,9.173,0,0,1,1.411-.68,8.808,8.808,0,0,1,6.054-.034.474.474,0,0,1,.071-.1,24.182,24.182,0,0,0,3.257-4.35ZM81.243,53.5a.436.436,0,0,1,.873.01,25.19,25.19,0,0,1-.175,2.728,24.428,24.428,0,0,1-.417,2.449,8.238,8.238,0,0,1,1-.044,8.682,8.682,0,0,1,1.554.161,8.746,8.746,0,0,1-2.624,3.835,8.544,8.544,0,0,1-1.285.9,8.7,8.7,0,0,1-4.5,1.177,8.692,8.692,0,0,1-1.554-.161,9.036,9.036,0,0,1,.639-1.426,8.724,8.724,0,0,1,1.985-2.409,9.159,9.159,0,0,1,1.285-.9,8.735,8.735,0,0,1,2.594-.992.437.437,0,0,1,.01-.094,24.224,24.224,0,0,0,.624-5.231ZM78.287,41.715a.437.437,0,1,1,.767-.42A24.828,24.828,0,0,1,80.215,43.7c.293.7.555,1.426.784,2.163a8.379,8.379,0,0,1,1.087-.717,8.748,8.748,0,0,1,1.425-.639,8.989,8.989,0,0,1,.163,1.554,8.747,8.747,0,0,1-.121,1.564,8.566,8.566,0,0,1-.394,1.514A8.811,8.811,0,0,1,82.5,50.56l-.019.03a8.976,8.976,0,0,1-.9,1.275,8.788,8.788,0,0,1-1.107,1.09,8.492,8.492,0,0,1-1.3.885,8.729,8.729,0,0,1-1.426.636,8.754,8.754,0,0,1-.161-1.551,8.994,8.994,0,0,1,.119-1.568,8.76,8.76,0,0,1,1.058-2.937,8.669,8.669,0,0,1,.9-1.285,8.383,8.383,0,0,1,.6-.643l-.007-.023a23.827,23.827,0,0,0-1.982-4.754Zm-7.808-8.481a.436.436,0,1,1,.481-.727q.994.656,1.921,1.41.717.58,1.389,1.211l.012-.03a8.538,8.538,0,0,1,.678-1.413,9.03,9.03,0,0,1,.918-1.268l.014.013a9.008,9.008,0,0,1,.9,1.255,8.818,8.818,0,0,1,1.093,6.049,8.7,8.7,0,0,1-.417,1.51,8.261,8.261,0,0,1-.678,1.413,8.657,8.657,0,0,1-.917,1.268l-.013-.013a8.776,8.776,0,0,1-1.583-2.668,8.844,8.844,0,0,1-.416-4.636c.032-.182.071-.367.116-.545q-.792-.772-1.652-1.47C71.739,34.112,71.118,33.658,70.479,33.234ZM54.531,78.008a24.433,24.433,0,0,1-3.633-.666,24.859,24.859,0,0,1-5.9-2.4.437.437,0,0,1,.432-.761,23.635,23.635,0,0,0,5.692,2.311,24.214,24.214,0,0,0,12.222,0,23.667,23.667,0,0,0,5.692-2.311.437.437,0,0,1,.431.761,24.831,24.831,0,0,1-5.9,2.4,24.431,24.431,0,0,1-3.633.666Z" transform="translate(-30.384 -26.001)" fill-rule="evenodd"/>
        </g>
      </g>
      <g id="Grupo_1821" data-name="Grupo 1821" transform="translate(13.153 11.533)">
        <g id="Grupo_1822" data-name="Grupo 1822" transform="translate(0 10.853)">
          <g id="Grupo_1821-2" data-name="Grupo 1821" transform="translate(0 0)">
            <path id="Trazado_436" data-name="Trazado 436" d="M23.059,63.205,29.7,48.367c-.3,1.562,1.508,4.388,3.476,6.357,2.392,2.392,5.077,3.8,6.467,3.437-2.411,1.079-14.762,6.594-14.949,6.677a1.414,1.414,0,0,1-1.633-1.633Z" transform="translate(-23 -48.367)" fill="#f0f1f1"/>
          </g>
        </g>
        <g id="Grupo_1823" data-name="Grupo 1823" transform="translate(0 10.853)">
          <path id="Trazado_437" data-name="Trazado 437" d="M23.059,63.205,29.7,48.367c-.3,1.561,1.5,4.383,3.471,6.351l-9.72,9.72A1.192,1.192,0,0,1,23.059,63.205Z" transform="translate(-23 -48.367)" fill="#fff"/>
        </g>
        <g id="Grupo_1825" data-name="Grupo 1825" transform="translate(8.532 4.712)">
          <g id="Grupo_1824" data-name="Grupo 1824" transform="translate(0 0)">
            <circle id="Elipse_113" data-name="Elipse 113" cx="0.785" cy="0.785" r="0.785"/>
          </g>
        </g>
        <g id="Grupo_1827" data-name="Grupo 1827" transform="translate(16.387 6.283)">
          <g id="Grupo_1826" data-name="Grupo 1826" transform="translate(0 0)">
            <circle id="Elipse_114" data-name="Elipse 114" cx="0.785" cy="0.785" r="0.785"/>
          </g>
        </g>
        <g id="Grupo_1829" data-name="Grupo 1829" transform="translate(24.241 10.996)">
          <g id="Grupo_1828" data-name="Grupo 1828" transform="translate(0 0)">
            <circle id="Elipse_115" data-name="Elipse 115" cx="0.785" cy="0.785" r="0.785"/>
          </g>
        </g>
        <g id="Grupo_1831" data-name="Grupo 1831" transform="translate(24.241 20.421)">
          <g id="Grupo_1830" data-name="Grupo 1830" transform="translate(0 0)">
            <circle id="Elipse_116" data-name="Elipse 116" cx="0.785" cy="0.785" r="0.785"/>
          </g>
        </g>
        <g id="Grupo_1833" data-name="Grupo 1833" transform="translate(14.816 1.571)">
          <g id="Grupo_1832" data-name="Grupo 1832" transform="translate(0 0)">
            <circle id="Elipse_117" data-name="Elipse 117" cx="0.785" cy="0.785" r="0.785"/>
          </g>
        </g>
        <g id="Grupo_1835" data-name="Grupo 1835" transform="translate(16.913 1.082)">
          <g id="Grupo_1834" data-name="Grupo 1834" transform="translate(0)">
            <path id="Trazado_438" data-name="Trazado 438" d="M66.956,26.009l-1.691.862-1.342-1.342.3,1.875-1.691.862,1.875.3.3,1.874.862-1.691,1.874.3L66.095,27.7Z" transform="translate(-62.529 -25.529)"/>
          </g>
        </g>
        <g id="Grupo_1837" data-name="Grupo 1837" transform="translate(19.254 15.831)">
          <g id="Grupo_1836" data-name="Grupo 1836" transform="translate(0 0)">
            <path id="Trazado_439" data-name="Trazado 439" d="M69.726,60l-.408,1.254H68l1.067.709-.408,1.221,1.067-.792,1.067.767-.408-1.192,1.067-.713H70.134Z" transform="translate(-68 -60)"/>
          </g>
        </g>
        <g id="Grupo_1839" data-name="Grupo 1839" transform="translate(17.542 2.567)">
          <g id="Grupo_1838" data-name="Grupo 1838">
            <path id="Trazado_440" data-name="Trazado 440" d="M64.428,37.985c4.262,0,5.158-2.71,5.877-4.887.6-1.812,1.073-3.243,3.108-3.243a.428.428,0,0,0,0-.856c-2.653,0-3.3,1.947-3.92,3.83-.731,2.211-1.422,4.3-5.065,4.3a.428.428,0,0,0,0,.856Z" transform="translate(-64 -29)"/>
          </g>
        </g>
        <g id="Grupo_1841" data-name="Grupo 1841" transform="translate(11.124)">
          <g id="Grupo_1840" data-name="Grupo 1840">
            <path id="Trazado_441" data-name="Trazado 441" d="M50.123,31.891c3-2.4,1.933-4,.9-5.558a5.265,5.265,0,0,1-1.171-2.905.428.428,0,0,0-.856,0,6.018,6.018,0,0,0,1.314,3.378c1,1.509,1.663,2.507-.725,4.417a.428.428,0,1,0,.535.668Z" transform="translate(-49 -23)"/>
          </g>
        </g>
        <g id="Grupo_1843" data-name="Grupo 1843" transform="translate(18.398 13.385)">
          <g id="Grupo_1842" data-name="Grupo 1842" transform="translate(0 0)">
            <path id="Trazado_442" data-name="Trazado 442" d="M74.557,57.586a.428.428,0,0,0,0-.856,5.707,5.707,0,0,1-3.143-1.28c-1.524-1.016-3.1-2.067-5.289.122a.428.428,0,0,0,.6.6c1.693-1.693,2.694-1.025,4.209-.015A6.46,6.46,0,0,0,74.557,57.586Z" transform="translate(-66 -54.285)"/>
          </g>
        </g>
        <g id="Grupo_1845" data-name="Grupo 1845" transform="translate(1.169 19.655)">
          <g id="Grupo_1844" data-name="Grupo 1844" transform="translate(0 0)">
            <path id="Trazado_443" data-name="Trazado 443" d="M31.5,74.25c-3.9,1.758.8-.349-3.109,1.4a30.106,30.106,0,0,1-2.662-3.158l1.59-3.554A22.552,22.552,0,0,0,31.5,74.25Z" transform="translate(-25.733 -68.939)"/>
          </g>
        </g>
        <g id="Grupo_1846" data-name="Grupo 1846" transform="translate(1.169 19.655)">
          <path id="Trazado_444" data-name="Trazado 444" d="M29.327,71.891l-2.274,2.275c-.46-.542-.9-1.1-1.32-1.674l1.59-3.554A22.472,22.472,0,0,0,29.327,71.891Z" transform="translate(-25.733 -68.938)"/>
        </g>
        <g id="Grupo_1847" data-name="Grupo 1847" transform="translate(6.657 9.814)">
          <path id="Trazado_445" data-name="Trazado 445" d="M42.075,53.333c2.772,2.772,5.942,4.222,7.029,3.134s-.328-4.223-3.135-7.034-5.955-4.208-7.034-3.135C37.68,47.552,39.773,51.032,42.075,53.333Z" transform="translate(-38.558 -45.938)" fill="#f0f1f1"/>
        </g>
        <path id="Trazado_446" data-name="Trazado 446" d="M38.295,56.151a13.024,13.024,0,0,1-2.65-6.208,3.132,3.132,0,0,1-.2-1.574l-2.4,5.375a22.409,22.409,0,0,0,2.315,3.87A24.836,24.836,0,0,0,38.587,61.2l3.253-1.453A17.337,17.337,0,0,1,38.295,56.151Z" transform="translate(-28.744 -37.515)"/>
        <g id="Grupo_1848" data-name="Grupo 1848" transform="translate(6.657 9.814)">
          <path id="Trazado_447" data-name="Trazado 447" d="M45.966,49.431l-3.9,3.9c-2.3-2.3-4.388-5.776-3.134-7.029C40.013,45.227,43.156,46.627,45.966,49.431Z" transform="translate(-38.558 -45.938)" fill="#f0f1f1"/>
        </g>
        <path id="Trazado_448" data-name="Trazado 448" d="M35.441,48.369l-2.4,5.375a22.408,22.408,0,0,0,2.315,3.87c.094.127.194.247.29.372L37.96,55.67a12.665,12.665,0,0,1-2.317-5.731A3.129,3.129,0,0,1,35.441,48.369Z" transform="translate(-28.744 -37.515)"/>
      </g>
    </g>
  </g>
</svg>
