<svg xmlns="http://www.w3.org/2000/svg" width="85" height="85" viewBox="0 0 85 85">
  <g id="Grupo_2053" data-name="Grupo 2053" transform="translate(0)">
    <rect id="Rectángulo_294" data-name="Rectángulo 294" width="85" height="85" transform="translate(0)" fill="none"/>
    <g id="categoria-solitarios" transform="translate(13.475 13.84)">
      <g id="_x35_57_x2C__award_x2C__cup_x2C__prize_x2C__reward_x2C__victory" transform="translate(-0.187 0.365)">
        <g id="Grupo_1375" data-name="Grupo 1375">
          <path id="Trazado_178" data-name="Trazado 178" d="M66.877,30.416a8.725,8.725,0,0,0,.893,1.27,9.137,9.137,0,0,0,1.1,1.091,8.95,8.95,0,0,0,1.281.878,8.815,8.815,0,0,0,2.873,1,8.632,8.632,0,0,0-.115-1.5,8.778,8.778,0,0,0-.39-1.5,8.929,8.929,0,0,0-.65-1.409A8.752,8.752,0,0,0,68.6,27a8.586,8.586,0,0,0-1.413-.633A8.863,8.863,0,0,0,65.72,26a8.668,8.668,0,0,0,.509,3.005A8.967,8.967,0,0,0,66.877,30.416Zm-15.525,1.27a8.543,8.543,0,0,0,1.541-2.68,8.72,8.72,0,0,0,.392-1.5A8.617,8.617,0,0,0,53.4,26a8.9,8.9,0,0,0-1.462.37A8.572,8.572,0,0,0,50.525,27a8.8,8.8,0,0,0-1.277.879,8.683,8.683,0,0,0-1.106,1.095,8.822,8.822,0,0,0-.892,1.267,8.929,8.929,0,0,0-.65,1.409,8.753,8.753,0,0,0-.39,1.5,8.641,8.641,0,0,0-.117,1.5,8.812,8.812,0,0,0,2.876-1,8.945,8.945,0,0,0,1.281-.878A9.094,9.094,0,0,0,51.352,31.686Zm-10.3,4.246c.476-.45.974-.882,1.486-1.3.661-.538,1.351-1.043,2.059-1.515a.475.475,0,1,1,.525.791c-.688.458-1.351.948-1.988,1.464-.611.5-1.2,1.025-1.772,1.578.049.194.092.4.128.593a9.578,9.578,0,0,1-1.19,6.582,9.724,9.724,0,0,1-.985,1.365l-.015.015a9.579,9.579,0,0,1-2.189-7.962A9.586,9.586,0,0,1,39.285,33l.016-.015a9.633,9.633,0,0,1,1,1.38,9.145,9.145,0,0,1,.74,1.537Zm-6.527,12.34-.009.025c.229.22.446.454.655.7a9.651,9.651,0,0,1,.983,1.395,9.906,9.906,0,0,1,.721,1.556,9.38,9.38,0,0,1,.429,1.644,9.611,9.611,0,0,1,.13,1.706,9.709,9.709,0,0,1-.176,1.688,9.57,9.57,0,0,1-1.55-.692,9.435,9.435,0,0,1-1.413-.963,9.587,9.587,0,0,1-2.18-2.573l-.02-.033A9.51,9.51,0,0,1,31,46.142a9.555,9.555,0,0,1,1.552.7,9,9,0,0,1,1.18.78c.251-.8.536-1.589.855-2.354a26.932,26.932,0,0,1,1.263-2.621.475.475,0,0,1,.833.458,26.073,26.073,0,0,0-2.154,5.173Zm-.383,13.339a.494.494,0,0,1,.011.1,9.689,9.689,0,0,1,1.272.359,9.888,9.888,0,0,1,1.552.721,10.092,10.092,0,0,1,1.4.985,9.6,9.6,0,0,1,2.855,4.173,9.43,9.43,0,0,1-1.691.176,9.578,9.578,0,0,1-1.7-.128,9.718,9.718,0,0,1-1.649-.428,9.887,9.887,0,0,1-1.552-.725,9.259,9.259,0,0,1-1.395-.981,9.4,9.4,0,0,1-2.16-2.621,9.374,9.374,0,0,1-.7-1.552,9.423,9.423,0,0,1,1.691-.176,8.882,8.882,0,0,1,1.08.048q-.291-1.318-.452-2.665a27,27,0,0,1-.189-2.969.474.474,0,0,1,.948-.011,26.357,26.357,0,0,0,.679,5.692Zm6.43,11.97a.6.6,0,0,1,.075.106,9.59,9.59,0,0,1,6.587.037,9.9,9.9,0,0,1,1.536.739,9.465,9.465,0,0,1,1.364.985l.017.015a9.547,9.547,0,0,1-12.507.015l-.015-.015a9.452,9.452,0,0,1,1.378-1c.234-.139.476-.271.723-.388a27.424,27.424,0,0,1-3.522-4.748.474.474,0,0,1,.818-.48,26.3,26.3,0,0,0,1.638,2.464A25.535,25.535,0,0,0,40.572,73.582Zm41.589-4.733a.474.474,0,0,1,.818.48,27,27,0,0,1-1.7,2.555,27.3,27.3,0,0,1-1.825,2.193c.249.117.49.249.727.388a9.856,9.856,0,0,1,1.376,1l-.016.015a9.7,9.7,0,0,1-1.364.985,9.535,9.535,0,0,1-8.227.736,9.372,9.372,0,0,1-1.539-.739,9.529,9.529,0,0,1-1.377-1l.017-.015a9.579,9.579,0,0,1,1.364-.985,9.98,9.98,0,0,1,1.535-.739,9.584,9.584,0,0,1,6.588-.037.516.516,0,0,1,.077-.106,26.313,26.313,0,0,0,3.544-4.733ZM85.724,55.92a.475.475,0,0,1,.95.011,27.409,27.409,0,0,1-.19,2.969,26.584,26.584,0,0,1-.454,2.665,8.963,8.963,0,0,1,1.084-.048,9.447,9.447,0,0,1,1.691.176,9.517,9.517,0,0,1-2.855,4.173,9.3,9.3,0,0,1-1.4.981,9.467,9.467,0,0,1-4.9,1.281,9.458,9.458,0,0,1-1.691-.176,9.832,9.832,0,0,1,.7-1.552,9.493,9.493,0,0,1,2.16-2.621,9.965,9.965,0,0,1,1.4-.985,9.5,9.5,0,0,1,2.822-1.08.475.475,0,0,1,.011-.1,26.357,26.357,0,0,0,.679-5.692ZM82.508,43.1a.476.476,0,1,1,.835-.457,27.018,27.018,0,0,1,1.263,2.621c.319.765.6,1.552.853,2.354a9.119,9.119,0,0,1,1.182-.78,9.519,9.519,0,0,1,1.55-.7,9.782,9.782,0,0,1,.177,1.691,9.519,9.519,0,0,1-.132,1.7,9.322,9.322,0,0,1-.428,1.647,9.588,9.588,0,0,1-.716,1.541l-.02.033a9.766,9.766,0,0,1-.977,1.387,9.563,9.563,0,0,1-1.2,1.186,9.24,9.24,0,0,1-1.41.963,9.5,9.5,0,0,1-1.552.692,9.526,9.526,0,0,1-.176-1.688,9.785,9.785,0,0,1,.13-1.706,9.532,9.532,0,0,1,1.151-3.2,9.432,9.432,0,0,1,.983-1.4,9.122,9.122,0,0,1,.653-.7l-.007-.026A25.926,25.926,0,0,0,82.508,43.1Zm-8.5-9.228a.474.474,0,1,1,.523-.791q1.082.714,2.09,1.534.78.632,1.512,1.318l.013-.033a9.291,9.291,0,0,1,.737-1.537,9.826,9.826,0,0,1,1-1.38L79.9,33a9.8,9.8,0,0,1,.985,1.366,9.595,9.595,0,0,1,1.19,6.582,9.465,9.465,0,0,1-.454,1.644,8.989,8.989,0,0,1-.738,1.537,9.421,9.421,0,0,1-1,1.38l-.014-.015a9.549,9.549,0,0,1-1.722-2.9,9.623,9.623,0,0,1-.452-5.044c.035-.2.077-.4.126-.593q-.862-.84-1.8-1.6C75.383,34.827,74.707,34.333,74.012,33.871ZM56.658,82.591a26.585,26.585,0,0,1-3.953-.725,27.05,27.05,0,0,1-6.425-2.61.476.476,0,0,1,.47-.828,25.718,25.718,0,0,0,6.194,2.515,26.348,26.348,0,0,0,13.3,0,25.752,25.752,0,0,0,6.194-2.515.476.476,0,0,1,.469.828,27.02,27.02,0,0,1-6.425,2.61,26.583,26.583,0,0,1-3.953.725Z" transform="translate(-30.384 -26.001)" fill-rule="evenodd"/>
        </g>
      </g>
      <g id="Grupo_1854" data-name="Grupo 1854" transform="translate(12.058 10.569)">
        <g id="icons">
          <path id="favorite" d="M20.35,3.017l3.866,8.4a1.777,1.777,0,0,0,1.176,1.008l8.74,1.345a1.522,1.522,0,0,1,1.008,2.689l-6.387,6.555a2.346,2.346,0,0,0-.5,1.513l1.513,9.076a1.687,1.687,0,0,1-2.353,1.849l-7.9-4.37a1.261,1.261,0,0,0-1.513,0l-7.9,4.37a1.622,1.622,0,0,1-2.353-1.849L9.257,24.53a1.694,1.694,0,0,0-.5-1.513L2.366,16.463a1.746,1.746,0,0,1,1.008-2.857l8.74-1.345a1.442,1.442,0,0,0,1.176-1.008l3.866-8.4A1.823,1.823,0,0,1,20.35,3.017Z" transform="translate(-1.956 -1.987)" fill="none" stroke="#000" stroke-width="1"/>
        </g>
        <path id="Trazado_449" data-name="Trazado 449" d="M1.245,5.9a.44.44,0,0,0,.434.434A.429.429,0,0,0,2.113,5.9V-5.732a.522.522,0,0,0-.054-.326.458.458,0,0,0-.6-.163L-.98-4.737a.418.418,0,0,0-.163.6.441.441,0,0,0,.38.217A.443.443,0,0,0-.546-4L1.245-5.045Z" transform="translate(15.914 18.516)"/>
      </g>
    </g>
    <g id="Grupo_2054" data-name="Grupo 2054" transform="translate(55.941 59.266)">
      <path id="Trazado_13" data-name="Trazado 13" d="M19.5,18.942c-.014-.15-.024-.391-.031-.64,2.269-.232,3.861-.777,3.861-1.411-.006,0-.006-.026-.006-.037-1.7-1.529,1.471-12.391-4.425-12.171a3,3,0,0,0-1.948-.592c-7.985.6-4.455,10.862-6.274,12.8h0s0,0,0,0h0c.007.621,1.545,1.155,3.748,1.393-.006.151-.019.339-.048.653C13.458,21.4,7.285,20.711,7,25.455H26.844C26.56,20.711,20.413,21.4,19.5,18.942Z" transform="translate(-2.302 -4.091)" fill="#787878"/>
      <path id="Trazado_12" data-name="Trazado 12" d="M19.5,19.085a21.586,21.586,0,0,1-.047-2.2,4.3,4.3,0,0,0,1.18-2.553c.3-.025.772-.317.911-1.472a1.078,1.078,0,0,0-.4-1.078c.488-1.467,1.5-6-1.874-6.474a2.654,2.654,0,0,0-2.392-.919c-4.624.085-5.181,3.492-4.168,7.393a1.08,1.08,0,0,0-.4,1.078c.139,1.155.611,1.447.911,1.472a4.294,4.294,0,0,0,1.207,2.553,21.592,21.592,0,0,1-.048,2.2C13.458,21.544,7.285,20.854,7,25.6H26.844C26.56,20.854,20.413,21.544,19.5,19.085Z" transform="translate(-7.001 -4.234)"/>
    </g>
  </g>
</svg>
