<svg id="age_stepper_selected" xmlns="http://www.w3.org/2000/svg" width="14.957" height="12.294" viewBox="0 0 14.957 12.294">
  <path id="XMLID_188_" d="M188.157,236.244a1.74,1.74,0,0,0-1.744-1.744H174.944a1.74,1.74,0,0,0-1.744,1.744v3.245h14.957Z" transform="translate(-173.2 -227.195)" fill="#fff"/>
  <path id="XMLID_71_" d="M216.625,131.741l.425-.741.425.741a.494.494,0,0,1-.425.741h0a.494.494,0,0,1-.425-.741Z" transform="translate(-212.639 -131)" fill="#fff"/>
  <path id="XMLID_73_" d="M250.625,131.741l.425-.741.425.741a.494.494,0,0,1-.425.741h0a.494.494,0,0,1-.425-.741Z" transform="translate(-243.566 -131)" fill="#fff"/>
  <path id="XMLID_74_" d="M284.625,131.741l.425-.741.425.741a.494.494,0,0,1-.425.741h0a.494.494,0,0,1-.425-.741Z" transform="translate(-274.493 -131)" fill="#fff"/>
  <path id="XMLID_139_" d="M208.565,182.42a1.221,1.221,0,0,0-1.22-1.22H199.32a1.221,1.221,0,0,0-1.22,1.22v2.269h10.456V182.42Z" transform="translate(-195.85 -178.712)" fill="#fff"/>
</svg>
