<svg xmlns="http://www.w3.org/2000/svg" width="18.617" height="16.208" viewBox="0 0 18.617 16.208">
  <g id="number_players_stepper_selected" transform="translate(0 0)">
    <path id="Trazado_13" data-name="Trazado 13" d="M16.48,15.355c-.01-.114-.017-.3-.024-.486,1.721-.177,2.929-.589,2.929-1.07,0,0,0-.02,0-.028-1.287-1.159,1.113-9.4-3.357-9.232a2.275,2.275,0,0,0-1.478-.449c-6.057.458-3.379,8.239-4.759,9.708h0c.006.471,1.172.875,2.843,1.057,0,.115-.014.257-.037.5C11.9,17.219,7.216,16.7,7,20.3H22.052C21.837,16.7,17.174,17.219,16.48,15.355Z" transform="translate(-3.435 -4.088)" fill="#f8f8f8"/>
    <path id="Trazado_12" data-name="Trazado 12" d="M16.48,15.533a16.374,16.374,0,0,1-.036-1.67,3.26,3.26,0,0,0,.894-1.934c.227-.018.586-.239.691-1.113A.818.818,0,0,0,17.724,10c.37-1.113,1.139-4.555-1.421-4.911a2.013,2.013,0,0,0-1.815-.7c-3.507.064-3.93,2.648-3.161,5.607a.819.819,0,0,0-.305.818c.1.875.464,1.1.691,1.113a3.26,3.26,0,0,0,.916,1.936,16.382,16.382,0,0,1-.036,1.67C11.9,17.4,7.216,16.875,7,20.473H22.052C21.837,16.875,17.174,17.4,16.48,15.533Z" transform="translate(-7 -4.265)" fill="#fff"/>
  </g>
</svg>
