<svg id="weight_stepper" xmlns="http://www.w3.org/2000/svg" width="13.498" height="5.548" viewBox="0 0 13.498 5.548">
  <path id="Trazado_14" data-name="Trazado 14" d="M8.78,29.614H7.948a.278.278,0,0,1-.278-.278V26.918a.278.278,0,0,1,.278-.278H8.78a.278.278,0,0,1,.278.278v2.419A.278.278,0,0,1,8.78,29.614Zm-.555-.555H8.5V27.195H8.225Z" transform="translate(-7.67 -25.353)" fill="#b2b2b2"/>
  <path id="Trazado_15" data-name="Trazado 15" d="M12.056,28.621h-1.11a.278.278,0,0,1-.278-.278V24.688a.278.278,0,0,1,.278-.278h1.11a.278.278,0,0,1,.278.278v3.656A.278.278,0,0,1,12.056,28.621Zm-.832-.555h.555v-3.1h-.555Z" transform="translate(-9.837 -23.742)" fill="#b2b2b2"/>
  <path id="Trazado_16" data-name="Trazado 16" d="M16.792,27.548H14.948a.278.278,0,0,1-.278-.278V22.278A.278.278,0,0,1,14.948,22h1.845a.278.278,0,0,1,.278.278V27.27A.278.278,0,0,1,16.792,27.548Zm-1.567-.555h1.29V22.555h-1.29Z" transform="translate(-12.728 -22)" fill="#b2b2b2"/>
  <path id="Trazado_17" data-name="Trazado 17" d="M52.44,29.614h-.832a.278.278,0,0,1-.278-.278V26.918a.278.278,0,0,1,.278-.278h.832a.278.278,0,0,1,.278.278v2.419A.278.278,0,0,1,52.44,29.614Zm-.555-.555h.275V27.195h-.278Z" transform="translate(-39.219 -25.353)" fill="#b2b2b2"/>
  <path id="Trazado_18" data-name="Trazado 18" d="M48.706,28.621H47.6a.278.278,0,0,1-.278-.278V24.688a.278.278,0,0,1,.278-.278h1.11a.278.278,0,0,1,.278.278v3.656A.278.278,0,0,1,48.706,28.621Zm-.832-.555h.555v-3.1h-.555Z" transform="translate(-36.32 -23.742)" fill="#b2b2b2"/>
  <path id="Trazado_19" data-name="Trazado 19" d="M42.792,27.548H40.948a.278.278,0,0,1-.278-.278V22.278A.278.278,0,0,1,40.948,22h1.845a.278.278,0,0,1,.278.278V27.27A.278.278,0,0,1,42.792,27.548Zm-1.567-.555h1.29V22.555h-1.29Z" transform="translate(-31.516 -22)" fill="#b2b2b2"/>
  <path id="Trazado_20" data-name="Trazado 20" d="M26.966,30.664H21.6a.278.278,0,0,1-.278-.278v-1.11A.278.278,0,0,1,21.6,29h5.369a.278.278,0,0,1,.278.278v1.11A.278.278,0,0,1,26.966,30.664Zm-5.092-.554h4.811v-.556H21.875Z" transform="translate(-17.534 -27.058)" fill="#b2b2b2"/>
</svg>
