<svg id="Grupo_1492" data-name="Grupo 1492" xmlns="http://www.w3.org/2000/svg" width="24.617" height="23.845" viewBox="0 0 24.617 23.845">
  <g id="_x35_57_x2C__award_x2C__cup_x2C__prize_x2C__reward_x2C__victory">
    <g id="Grupo_1375" data-name="Grupo 1375">
      <path id="Trazado_178" data-name="Trazado 178" d="M45.761,27.861a3.676,3.676,0,0,0,.376.535,3.85,3.85,0,0,0,.464.46,3.771,3.771,0,0,0,.54.37,3.715,3.715,0,0,0,1.211.423,3.638,3.638,0,0,0-.048-.632,3.7,3.7,0,0,0-.164-.634,3.762,3.762,0,0,0-.274-.594,3.688,3.688,0,0,0-1.38-1.365,3.618,3.618,0,0,0-.6-.267A3.735,3.735,0,0,0,45.273,26a3.652,3.652,0,0,0,.214,1.266A3.779,3.779,0,0,0,45.761,27.861Zm-6.542.535a3.6,3.6,0,0,0,.649-1.129,3.674,3.674,0,0,0,.165-.634A3.632,3.632,0,0,0,40.082,26a3.749,3.749,0,0,0-.616.156,3.612,3.612,0,0,0-.6.267,3.707,3.707,0,0,0-.538.37,3.659,3.659,0,0,0-.466.461,3.717,3.717,0,0,0-.376.534,3.762,3.762,0,0,0-.274.594,3.688,3.688,0,0,0-.164.634,3.641,3.641,0,0,0-.049.633,3.713,3.713,0,0,0,1.212-.423,3.769,3.769,0,0,0,.54-.37A3.832,3.832,0,0,0,39.219,28.4Zm-4.341,1.789c.2-.19.41-.372.626-.548.278-.227.569-.44.868-.639a.2.2,0,1,1,.221.333c-.29.193-.569.4-.838.617s-.507.432-.747.665c.021.082.039.167.054.25a4.036,4.036,0,0,1-.5,2.773,4.1,4.1,0,0,1-.415.575l-.006.006a4.036,4.036,0,0,1-.922-3.355,4.039,4.039,0,0,1,.915-1.916l.007-.006a4.06,4.06,0,0,1,.42.582,3.854,3.854,0,0,1,.312.648Zm-2.75,5.2,0,.011c.1.093.188.191.276.295a4.067,4.067,0,0,1,.414.588,4.173,4.173,0,0,1,.3.656,3.952,3.952,0,0,1,.181.693,4.05,4.05,0,0,1,.055.719,4.091,4.091,0,0,1-.074.711,4.032,4.032,0,0,1-.653-.292,3.976,3.976,0,0,1-.6-.406,4.04,4.04,0,0,1-.919-1.084l-.008-.014a4.007,4.007,0,0,1-.463-2.773,4.026,4.026,0,0,1,.654.293,3.792,3.792,0,0,1,.5.329c.106-.338.226-.669.36-.992a11.349,11.349,0,0,1,.532-1.1.2.2,0,0,1,.351.193,10.987,10.987,0,0,0-.908,2.18Zm-.161,5.621a.208.208,0,0,1,0,.043,4.083,4.083,0,0,1,.536.151,4.166,4.166,0,0,1,.654.3,4.252,4.252,0,0,1,.588.415,4.046,4.046,0,0,1,1.2,1.758,3.974,3.974,0,0,1-.713.074,4.035,4.035,0,0,1-.717-.054,4.1,4.1,0,0,1-.695-.181,4.166,4.166,0,0,1-.654-.305,3.9,3.9,0,0,1-.588-.413,3.961,3.961,0,0,1-.91-1.1,3.95,3.95,0,0,1-.293-.654,3.97,3.97,0,0,1,.713-.074,3.742,3.742,0,0,1,.455.02q-.123-.555-.191-1.123a11.377,11.377,0,0,1-.079-1.251.2.2,0,0,1,.4,0,11.107,11.107,0,0,0,.286,2.4Zm2.709,5.044a.252.252,0,0,1,.032.045,4.041,4.041,0,0,1,2.776.015,4.17,4.17,0,0,1,.647.312,3.988,3.988,0,0,1,.575.415l.007.006a4.023,4.023,0,0,1-5.27.006l-.006-.006a3.982,3.982,0,0,1,.581-.421c.1-.059.2-.114.3-.163a11.556,11.556,0,0,1-1.484-2,.2.2,0,0,1,.345-.2,11.084,11.084,0,0,0,.69,1.038A10.76,10.76,0,0,0,34.677,46.05ZM52.2,44.056a.2.2,0,0,1,.345.2,11.378,11.378,0,0,1-.715,1.077,11.5,11.5,0,0,1-.769.924c.1.049.207.1.306.163a4.153,4.153,0,0,1,.58.421l-.007.006a4.086,4.086,0,0,1-.575.415,4.018,4.018,0,0,1-3.467.31,3.949,3.949,0,0,1-.649-.312,4.015,4.015,0,0,1-.58-.42l.007-.006a4.036,4.036,0,0,1,.575-.415,4.206,4.206,0,0,1,.647-.312,4.038,4.038,0,0,1,2.776-.015.217.217,0,0,1,.032-.045A11.087,11.087,0,0,0,52.2,44.056Zm1.5-5.448a.2.2,0,0,1,.4,0,11.551,11.551,0,0,1-.08,1.251,11.2,11.2,0,0,1-.191,1.123,3.776,3.776,0,0,1,.457-.02A3.98,3.98,0,0,1,55,41.04,4.01,4.01,0,0,1,53.8,42.8a3.917,3.917,0,0,1-.589.413,3.989,3.989,0,0,1-2.065.54,3.985,3.985,0,0,1-.713-.074,4.144,4.144,0,0,1,.293-.654,4,4,0,0,1,.91-1.1,4.2,4.2,0,0,1,.589-.415,4.005,4.005,0,0,1,1.189-.455.2.2,0,0,1,0-.043,11.107,11.107,0,0,0,.286-2.4Zm-1.355-5.4a.2.2,0,1,1,.352-.193,11.385,11.385,0,0,1,.532,1.1c.134.322.255.654.359.992a3.842,3.842,0,0,1,.5-.329,4.011,4.011,0,0,1,.653-.293,4.121,4.121,0,0,1,.075.713,4.011,4.011,0,0,1-.056.717,3.928,3.928,0,0,1-.18.694,4.039,4.039,0,0,1-.3.649l-.009.014a4.116,4.116,0,0,1-.412.585,4.029,4.029,0,0,1-.507.5,3.893,3.893,0,0,1-.594.406,4,4,0,0,1-.654.292,4.014,4.014,0,0,1-.074-.711,4.123,4.123,0,0,1,.055-.719,4.017,4.017,0,0,1,.485-1.347,3.974,3.974,0,0,1,.414-.589,3.845,3.845,0,0,1,.275-.295l0-.011a10.925,10.925,0,0,0-.909-2.18Zm-3.58-3.889a.2.2,0,1,1,.221-.333q.456.3.881.646.329.266.637.555l.006-.014a3.914,3.914,0,0,1,.311-.648,4.14,4.14,0,0,1,.421-.582l.006.006a4.13,4.13,0,0,1,.415.575,4.043,4.043,0,0,1,.5,2.773,3.989,3.989,0,0,1-.191.693,3.789,3.789,0,0,1-.311.648,3.969,3.969,0,0,1-.42.581l-.006-.006a4.024,4.024,0,0,1-.726-1.223,4.055,4.055,0,0,1-.191-2.126c.015-.083.032-.168.053-.25q-.363-.354-.757-.674C49.345,29.72,49.06,29.512,48.767,29.317ZM41.455,49.846a11.2,11.2,0,0,1-1.666-.305,11.4,11.4,0,0,1-2.707-1.1.2.2,0,0,1,.2-.349,10.837,10.837,0,0,0,2.61,1.06,11.1,11.1,0,0,0,5.6,0,10.851,10.851,0,0,0,2.61-1.06.2.2,0,0,1,.2.349,11.385,11.385,0,0,1-2.707,1.1,11.2,11.2,0,0,1-1.666.305Z" transform="translate(-30.384 -26.001)" fill-rule="evenodd"/>
    </g>
  </g>
  <path id="Intersección_5" data-name="Intersección 5" d="M1.2,16.8a3.961,3.961,0,0,1-.91-1.1A3.949,3.949,0,0,1,0,15.039a3.97,3.97,0,0,1,.713-.074,3.74,3.74,0,0,1,.455.02q-.123-.555-.19-1.123A11.375,11.375,0,0,1,.9,12.611a.2.2,0,0,1,.4,0,11.105,11.105,0,0,0,.286,2.4.208.208,0,0,1,0,.043,4.083,4.083,0,0,1,.536.151,4.164,4.164,0,0,1,.654.3,4.249,4.249,0,0,1,.588.415,4.045,4.045,0,0,1,.437.429c-.788.3-1.507.565-2.138.788A3.9,3.9,0,0,1,1.2,16.8Zm1.04-4.034a3.975,3.975,0,0,1-.6-.406,4.04,4.04,0,0,1-.919-1.084L.72,11.26A4.007,4.007,0,0,1,.258,8.487a4.024,4.024,0,0,1,.654.293,3.793,3.793,0,0,1,.5.329c.106-.338.226-.669.36-.992a11.35,11.35,0,0,1,.532-1.1.2.2,0,0,1,.351.193,10.988,10.988,0,0,0-.908,2.18l0,.011c.1.093.188.191.276.295a4.067,4.067,0,0,1,.414.588,4.174,4.174,0,0,1,.3.656,3.952,3.952,0,0,1,.181.693,4.049,4.049,0,0,1,.055.719,4.091,4.091,0,0,1-.074.711A4.032,4.032,0,0,1,2.243,12.764ZM3.336,7.637a4.043,4.043,0,0,1-.5-2.773A4.039,4.039,0,0,1,3.75,2.948l.007-.006a4.06,4.06,0,0,1,.42.582,3.854,3.854,0,0,1,.312.648l.006.014c.2-.19.41-.372.626-.548C5.4,3.41,5.69,3.2,5.989,3a.2.2,0,1,1,.221.333c-.29.193-.569.4-.838.617s-.507.432-.747.665c.021.082.039.167.054.25a4.019,4.019,0,0,1,.063.717A4.009,4.009,0,0,1,4.68,6.3a4,4,0,0,1-.191.693,4.028,4.028,0,0,1-.31.648,4.1,4.1,0,0,1-.415.575l-.006.006A3.987,3.987,0,0,1,3.336,7.637Zm16.791-.648a4.054,4.054,0,0,1-.19-2.126c.015-.083.032-.168.053-.25q-.363-.354-.757-.674c-.272-.221-.556-.429-.849-.623a.2.2,0,1,1,.221-.333q.456.3.881.646.329.266.637.555l.006-.014a3.914,3.914,0,0,1,.311-.648,4.141,4.141,0,0,1,.421-.582l.006.006a4.131,4.131,0,0,1,.415.575,4,4,0,0,1,.565,2.053c-.514.547-1.064,1.077-1.646,1.592Q20.161,7.079,20.127,6.989Zm-2.774-3.5a3.616,3.616,0,0,1-.6-.267,3.773,3.773,0,0,1-.54-.37,3.852,3.852,0,0,1-.464-.46,3.677,3.677,0,0,1-.376-.535,3.781,3.781,0,0,1-.273-.594,3.7,3.7,0,0,1-.165-.634A3.726,3.726,0,0,1,14.89,0a3.735,3.735,0,0,1,.617.156,3.62,3.62,0,0,1,.6.267,3.693,3.693,0,0,1,1.38,1.365,3.762,3.762,0,0,1,.274.594,3.7,3.7,0,0,1,.164.634,3.637,3.637,0,0,1,.049.633A3.591,3.591,0,0,1,17.353,3.492ZM6.669,3.015a3.687,3.687,0,0,1,.164-.634,3.76,3.76,0,0,1,.274-.594,3.717,3.717,0,0,1,.376-.534A3.661,3.661,0,0,1,7.948.793a3.708,3.708,0,0,1,.538-.37,3.611,3.611,0,0,1,.6-.267A3.75,3.75,0,0,1,9.7,0,3.631,3.631,0,0,1,9.65.632a3.673,3.673,0,0,1-.165.634,3.752,3.752,0,0,1-.273.594,3.736,3.736,0,0,1-.376.535,3.831,3.831,0,0,1-.464.46,3.767,3.767,0,0,1-.54.37,3.614,3.614,0,0,1-.6.267,3.6,3.6,0,0,1-.616.156A3.639,3.639,0,0,1,6.669,3.015Z" opacity="0.1"/>
  <g id="Grupo_1377" data-name="Grupo 1377" transform="translate(7.034 7.29)">
    <path id="Unión_32" data-name="Unión 32" d="M.02,11.213C.268,9.5,2.488,6.807,2.1,6.386a.218.218,0,0,1-.037-.056Q.095,3.6.388,2.139C.673.724,2.32,2.086,3.153,2.516a.328.328,0,0,0,.4-.2C3.59,1.739,3.656,0,5.476,0,7.615,0,7.332,2.4,7.417,2.494c.171.186,4.114.982,4.045,2.616S9.3,5.905,8.854,6.386c-.39.421,1.83,3.116,2.078,4.827.081.558-.077.666-.623.666H7.5c-.394,0-.533-.224-.737-.534-.45-.684-.993-1.785-1.288-1.785s-.838,1.1-1.288,1.785c-.2.309-.343.534-.737.534H.643C.1,11.879-.061,11.771.02,11.213Z" transform="translate(0 0.01)" fill="#dbbf5f"/>
    <path id="Sustracción_5" data-name="Sustracción 5" d="M.668,8.812h0c.114-.2.228-.4.339-.6h0c.251-.439.488-.853.633-1.173.16-.353.195-.561.108-.655a.22.22,0,0,1-.037-.056C1.385,5.877,1.1,5.444.869,5.043A8.73,8.73,0,0,1,.309,3.915a5.312,5.312,0,0,1-.174-.5,3.768,3.768,0,0,1-.1-.464A2.7,2.7,0,0,1,0,2.523a2.022,2.022,0,0,1,.038-.384,1.18,1.18,0,0,1,.1-.292.653.653,0,0,1,.143-.194.52.52,0,0,1,.183-.108.668.668,0,0,1,.216-.033,1.883,1.883,0,0,1,.781.23c.278.135.568.312.824.468h0c.191.117.372.227.524.306a.369.369,0,0,0,.1.014.3.3,0,0,0,.156-.043.416.416,0,0,0,.149-.172V2.287a5.283,5.283,0,0,1,.061-.611A3.157,3.157,0,0,1,3.357,1.3a2.34,2.34,0,0,1,.15-.381A1.777,1.777,0,0,1,3.74.565,1.517,1.517,0,0,1,4.074.273a1.632,1.632,0,0,1,.455-.2A2.273,2.273,0,0,1,5.124,0h0a2.274,2.274,0,0,1,.595.074,1.632,1.632,0,0,1,.455.2,1.517,1.517,0,0,1,.334.292,1.777,1.777,0,0,1,.232.353,2.339,2.339,0,0,1,.15.381,3.156,3.156,0,0,1,.087.377,5.285,5.285,0,0,1,.061.611.665.665,0,0,0,.024.207,2.725,2.725,0,0,0,.577.214c.286.092.642.206,1.023.347a9.161,9.161,0,0,1,1.147.507c-.373.332-.768.659-1.173.973-.385.3-.789.592-1.2.874-.39.266-.8.528-1.212.779-.39.236-.795.468-1.2.689-.739.4-1.515.777-2.307,1.123C2.046,8.292,1.357,8.565.668,8.812Z" transform="translate(0.348 0)" fill="#fff" opacity="0.1"/>
  </g>
  <g id="Grupo_1378" data-name="Grupo 1378" transform="translate(7.029 3.994)">
    <g id="Grupo_245" data-name="Grupo 245" transform="translate(0 0.008)">
      <g id="Grupo_219" data-name="Grupo 219" transform="translate(0 0)">
        <path id="Trazado_144" data-name="Trazado 144" d="M169.171,332h4.353v.8a9.809,9.809,0,0,0-2.593,6.172h-1.279l-.176-.258a20.605,20.605,0,0,1,2.464-5.585,12.114,12.114,0,0,0-2.722.035A3.366,3.366,0,0,1,169.171,332Z" transform="translate(-169.139 -332)" fill="#868484"/>
      </g>
    </g>
    <path id="Intersección_4" data-name="Intersección 4" d="M2.8,1.126a12.113,12.113,0,0,0-2.722.035A3.365,3.365,0,0,1,.032,0H4.385V.8A10.326,10.326,0,0,0,1.85,6.115c-.452.127-.928.238-1.425.326A19.86,19.86,0,0,1,2.8,1.126Z" transform="translate(0)" fill="#fff" opacity="0.2"/>
  </g>
</svg>
