<svg xmlns="http://www.w3.org/2000/svg" width="34.065" height="34.065" viewBox="0 0 34.065 34.065">
  <g id="Grupo_1916" data-name="Grupo 1916" transform="translate(-94.377 -249.507)">
    <g id="Grupo_1915" data-name="Grupo 1915" transform="translate(107.836 264.787)">
      <g id="Grupo_234" data-name="Grupo 234" transform="translate(2.907 1.59)">
        <path id="Unión_32" data-name="Unión 32" d="M.012,6.546c.145-1,1.441-2.572,1.213-2.818A.128.128,0,0,1,1.2,3.7,3.6,3.6,0,0,1,.227,1.249c.166-.826,1.128-.031,1.614.22a.192.192,0,0,0,.236-.117C2.1,1.015,2.134,0,3.2,0,4.445,0,4.28,1.4,4.33,1.456c.1.109,2.4.573,2.361,1.527s-1.262.464-1.522.745c-.228.246,1.068,1.819,1.213,2.818.047.326-.045.389-.364.389H4.378c-.23,0-.311-.131-.43-.311-.262-.4-.579-1.042-.752-1.042s-.489.642-.752,1.042c-.119.181-.2.312-.43.312H.376C.057,6.935-.036,6.871.012,6.546Z" transform="translate(0 0.006)" fill="#34a853"/>
        <path id="Sustracción_5" data-name="Sustracción 5" d="M.39,5.144h0c.067-.119.133-.236.2-.349h0c.146-.256.285-.5.369-.685.093-.206.114-.328.063-.382A.128.128,0,0,1,1,3.7c-.19-.265-.356-.518-.491-.752a5.1,5.1,0,0,1-.327-.658,3.1,3.1,0,0,1-.1-.294,2.2,2.2,0,0,1-.06-.271A1.577,1.577,0,0,1,0,1.473a1.18,1.18,0,0,1,.022-.224.689.689,0,0,1,.056-.171A.381.381,0,0,1,.161.965.3.3,0,0,1,.268.9.39.39,0,0,1,.394.883a1.1,1.1,0,0,1,.456.134c.162.079.332.182.481.273h0c.112.068.217.133.306.179a.215.215,0,0,0,.058.008.173.173,0,0,0,.091-.025.243.243,0,0,0,.087-.1V1.335A3.084,3.084,0,0,1,1.909.979,1.843,1.843,0,0,1,1.96.759,1.366,1.366,0,0,1,2.048.536,1.038,1.038,0,0,1,2.183.33a.886.886,0,0,1,.2-.171A.953.953,0,0,1,2.644.043,1.327,1.327,0,0,1,2.991,0h0a1.327,1.327,0,0,1,.347.043.953.953,0,0,1,.265.116A.886.886,0,0,1,3.8.33a1.037,1.037,0,0,1,.136.206,1.365,1.365,0,0,1,.088.222,1.842,1.842,0,0,1,.051.22,3.085,3.085,0,0,1,.036.357.388.388,0,0,0,.014.121,1.59,1.59,0,0,0,.337.125c.167.053.375.12.6.2a5.348,5.348,0,0,1,.67.3c-.218.194-.448.385-.685.568s-.461.346-.7.51-.466.308-.708.455-.464.273-.7.4c-.431.233-.884.454-1.347.656C1.195,4.841.792,5,.39,5.144Z" transform="translate(0.203 0)" fill="#fff" opacity="0.1"/>
      </g>
      <g id="Grupo_1815" data-name="Grupo 1815" transform="translate(0 0)">
        <g id="Grupo_245" data-name="Grupo 245" transform="translate(0 0.009)">
          <g id="Grupo_219" data-name="Grupo 219" transform="translate(0 0)">
            <path id="Trazado_144" data-name="Trazado 144" d="M.039,0H5.361V.976a11.992,11.992,0,0,0-3.17,7.546H.627L.412,8.205A25.191,25.191,0,0,1,3.424,1.377,14.813,14.813,0,0,0,.1,1.42,4.115,4.115,0,0,1,.039,0Z" fill="#868484"/>
          </g>
        </g>
        <path id="Intersección_4" data-name="Intersección 4" d="M3.425,1.377A14.809,14.809,0,0,0,.1,1.42,4.114,4.114,0,0,1,.039,0H5.361V.975a12.625,12.625,0,0,0-3.1,6.5c-.553.155-1.134.291-1.742.4A24.28,24.28,0,0,1,3.425,1.377Z" transform="translate(0 0)" fill="#fff" opacity="0.2"/>
      </g>
    </g>
    <path id="iconfinder_05.Tag_290145" d="M22.777,12.469,10.3,24.95a.467.467,0,0,1-.052.079.575.575,0,0,1-.783,0,.5.5,0,0,1-.052-.079L.233,15.773a.49.49,0,0,1-.079-.052.575.575,0,0,1,0-.783.53.53,0,0,1,.079-.052L12.713,2.406a.536.536,0,0,1,.424-.216h2.221A3.127,3.127,0,0,1,16.273.174l.009.01A.57.57,0,0,1,16.7,0a.607.607,0,0,1,.587.626.626.626,0,0,1-.241.492A1.79,1.79,0,0,0,16.53,2.19h2.63a.535.535,0,0,1,.424.216L22.776,5.6a.539.539,0,0,1,.216.425v6.022A.537.537,0,0,1,22.777,12.469ZM17.111,8.577a.567.567,0,0,1-.415.183.606.606,0,0,1-.586-.626.628.628,0,0,1,.241-.493,1.59,1.59,0,0,0,.338-.483,1.1,1.1,0,1,0,1.132.373A2.016,2.016,0,0,1,17.111,8.577ZM21.9,6.231,18.951,3.285H16.645a1.623,1.623,0,0,0,.4.6h0a.537.537,0,0,1,.07.05l.01-.01a3.185,3.185,0,0,1,.944,2.329c0,.023-.005.043-.007.066a2.186,2.186,0,1,1-1.187-.29,1.829,1.829,0,0,0-.52-1.16.637.637,0,0,1-.071-.05l-.009.01a3.032,3.032,0,0,1-.85-1.547H13.346L1.3,15.33l8.551,8.551L21.9,11.836V6.231Z" transform="translate(94.377 265.766) rotate(-45)" fill-rule="evenodd"/>
  </g>
</svg>
