<svg xmlns="http://www.w3.org/2000/svg" width="18.295" height="24.013" viewBox="0 0 18.295 24.013">
  <g id="Grupo_1493" data-name="Grupo 1493" transform="translate(14285.396 -14861.039)">
    <g id="Grupo_1396" data-name="Grupo 1396" transform="translate(-14285.396 14861.039)">
      <g id="Director" transform="translate(0 0)">
        <path id="Trazado_234" data-name="Trazado 234" d="M111.789,60.472a1.491,1.491,0,1,0-.707-2.9c-.461.107-.95.2-1.462.289v-3.1h1.638a.453.453,0,0,0,.453-.453v-8.28a.453.453,0,0,0-.453-.453h-.32v-.021H109.62v-1.15a.453.453,0,1,0-.906,0V45.58h-9.89V44.409a.453.453,0,1,0-.906,0v1.15H96.166v.036a.453.453,0,0,0-.339.438v8.28a.453.453,0,0,0,.453.453h1.638v3.25c-.524-.07-1.032-.151-1.518-.242a1.492,1.492,0,0,0-1.768,1.465v.022a1.494,1.494,0,0,0,1.188,1.46q.619.127,1.283.23l5.646,2.8L95.965,67.11a.453.453,0,1,0,.4.812l7.4-3.667,7.4,3.667a.453.453,0,1,0,.4-.812l-6.783-3.361,6.258-3.1Q111.429,60.565,111.789,60.472Zm-3.075-13.986V53.86h-9.89V46.486Zm-9.89,8.28h9.89V58a40.9,40.9,0,0,1-5.452.35,42.207,42.207,0,0,1-4.438-.226Zm4.945,8.478-4-1.983c1.121.089,2.295.134,3.5.134a42.906,42.906,0,0,0,4.754-.255Z" transform="translate(-94.632 -43.956)"/>
      </g>
      <g id="Grupo_1394" data-name="Grupo 1394" transform="translate(3.827 5.202)">
        <g id="Grupo_1389" data-name="Grupo 1389" transform="translate(1.087 0)">
          <path id="Unión_32" data-name="Unión 32" d="M.015,8.655c.192-1.321,1.905-3.4,1.6-3.726a.169.169,0,0,1-.029-.043Q.073,2.776.3,1.651C.52.559,1.791,1.61,2.434,1.942a.254.254,0,0,0,.312-.155C2.771,1.342,2.822,0,4.227,0c1.651,0,1.433,1.854,1.5,1.925.132.144,3.175.758,3.122,2.019s-1.668.614-2.013.985c-.3.325,1.412,2.4,1.6,3.726.063.43-.06.514-.481.514H5.789c-.3,0-.412-.173-.568-.412-.347-.528-.766-1.377-.994-1.377s-.647.849-.994,1.377c-.157.239-.265.412-.569.412H.5C.075,9.169-.047,9.085.015,8.655Z" transform="translate(0 0.008)" fill="#ea4335"/>
          <path id="Sustracción_5" data-name="Sustracción 5" d="M.515,6.8h0C.6,6.644.692,6.489.777,6.34h0c.194-.339.377-.659.488-.905.124-.273.15-.433.084-.505a.17.17,0,0,1-.029-.043c-.252-.35-.47-.684-.65-.994a6.739,6.739,0,0,1-.432-.871A4.1,4.1,0,0,1,.1,2.633a2.908,2.908,0,0,1-.08-.358A2.085,2.085,0,0,1,0,1.947a1.561,1.561,0,0,1,.029-.3A.911.911,0,0,1,.1,1.425a.5.5,0,0,1,.11-.15.4.4,0,0,1,.141-.083.515.515,0,0,1,.166-.026,1.453,1.453,0,0,1,.6.177c.215.1.438.241.636.361h0c.148.09.287.176.4.236a.285.285,0,0,0,.077.011.229.229,0,0,0,.12-.033.321.321,0,0,0,.115-.133V1.765a4.078,4.078,0,0,1,.047-.472A2.437,2.437,0,0,1,2.591,1,1.806,1.806,0,0,1,2.707.709,1.372,1.372,0,0,1,2.887.436,1.171,1.171,0,0,1,3.145.211,1.26,1.26,0,0,1,3.5.057,1.754,1.754,0,0,1,3.955,0h0a1.755,1.755,0,0,1,.459.057,1.26,1.26,0,0,1,.351.154,1.171,1.171,0,0,1,.258.226,1.371,1.371,0,0,1,.179.272A1.805,1.805,0,0,1,5.321,1a2.435,2.435,0,0,1,.067.291,4.079,4.079,0,0,1,.047.472.513.513,0,0,0,.019.16A2.1,2.1,0,0,0,5.9,2.09c.221.071.5.159.79.268a7.071,7.071,0,0,1,.886.391c-.288.256-.593.509-.905.751-.3.23-.609.457-.928.674-.3.206-.616.408-.936.6-.3.182-.613.361-.929.532-.57.308-1.169.6-1.781.867C1.579,6.4,1.048,6.611.515,6.8Z" transform="translate(0.269 0)" fill="#fff" opacity="0.1"/>
        </g>
        <g id="Layer_8" transform="translate(0 0.496)">
          <path id="Trazado_223" data-name="Trazado 223" d="M19.1,12.08a.19.19,0,0,0-.291-.162.19.19,0,1,0-.352-.144.189.189,0,0,0-.214-.006.19.19,0,0,0-.353-.125.189.189,0,0,0-.092-.025.191.191,0,0,0-.191.191.18.18,0,0,0,0,.021.189.189,0,0,0-.085-.021h-.015a.191.191,0,1,0-.367-.073s0,.005,0,.008a.189.189,0,0,0-.051-.008.186.186,0,0,0-.03,0s0,0,0,0a.191.191,0,0,0-.382,0,.191.191,0,0,0-.191.191.187.187,0,0,0,0,.031.19.19,0,0,0-.014.374l-.095.125,1.223.3,1.028-.2L19,12.39l-.019-.133A.191.191,0,0,0,19.1,12.08Z" transform="translate(-16.244 -11.548)" fill="#fff" stroke="#191919" stroke-miterlimit="10" stroke-width="0.2"/>
          <g id="Grupo_1384" data-name="Grupo 1384" transform="translate(0 0.625)">
            <path id="Trazado_224" data-name="Trazado 224" d="M14.831,29.441a.083.083,0,0,1-.082-.07l-.425-2.554a.083.083,0,0,1,.082-.1H17.18a.083.083,0,0,1,.082.1l-.425,2.554a.083.083,0,0,1-.082.07Z" transform="translate(-14.322 -26.72)" fill="#efefef" stroke="#000" stroke-width="0.2"/>
          </g>
          <path id="Trazado_226" data-name="Trazado 226" d="M14.8,28.477l-.262,0-.048-.034-.435-2.61.038-.066.386-.006Z" transform="translate(-14.051 -25.138)" fill="#a52929"/>
          <path id="Trazado_227" data-name="Trazado 227" d="M35.289,29.935H35l-.192-2.715h.418Z" transform="translate(-33.963 -26.595)" fill="#a52929"/>
          <path id="Trazado_228" data-name="Trazado 228" d="M53.625,28.692l-.293.006.065-2.715h.419Z" transform="translate(-51.719 -25.353)" fill="#a52929"/>
          <path id="Trazado_229" data-name="Trazado 229" d="M67.709,28.959l-.3.009.322-2.708h.349l.074.037Z" transform="translate(-65.215 -25.626)" fill="#a52929"/>
          <g id="Grupo_1390" data-name="Grupo 1390" transform="translate(0 0.625)">
            <path id="Trazado_224-2" data-name="Trazado 224" d="M14.831,29.441a.083.083,0,0,1-.082-.07l-.425-2.554a.083.083,0,0,1,.082-.1H17.18a.083.083,0,0,1,.082.1l-.425,2.554a.083.083,0,0,1-.082.07Z" transform="translate(-14.322 -26.72)" fill="none" stroke="#000" stroke-width="0.2"/>
          </g>
        </g>
      </g>
      <g id="Grupo_1395" data-name="Grupo 1395" transform="translate(1.202 14.374)">
        <g id="Grupo_245" data-name="Grupo 245" transform="translate(0 0.002)">
          <g id="Grupo_219" data-name="Grupo 219" transform="translate(0 0)">
            <path id="Trazado_144" data-name="Trazado 144" d="M169.147,332h1.113v.2a2.507,2.507,0,0,0-.663,1.577h-.327l-.045-.066a5.265,5.265,0,0,1,.63-1.428,3.1,3.1,0,0,0-.7.009A.86.86,0,0,1,169.147,332Z" transform="translate(-169.139 -332)"/>
          </g>
        </g>
        <path id="Intersección_4" data-name="Intersección 4" d="M.716.288A3.1,3.1,0,0,0,.02.3.86.86,0,0,1,.008,0H1.121V.2A2.639,2.639,0,0,0,.473,1.563c-.116.032-.237.061-.364.083A5.076,5.076,0,0,1,.716.288Z" transform="translate(0)" fill="#fff"/>
      </g>
    </g>
  </g>
</svg>
