<svg xmlns="http://www.w3.org/2000/svg" width="38.43" height="64.242" viewBox="0 0 38.43 64.242">
  <g id="Grupo_1918" data-name="Grupo 1918" transform="translate(-6.752 -297.452)">
    <path id="Unión_113" data-name="Unión 113" d="M17.825,62.245H0V12.13L12.343,0h11.74L36.428,12.13V62.245Z" transform="translate(7.755 298.449)" fill="none" stroke="#000" stroke-width="2"/>
    <g id="Elipse_121" data-name="Elipse 121" transform="translate(20.401 306.408)" fill="#fff" stroke="#000" stroke-width="2">
      <circle cx="5.566" cy="5.566" r="5.566" stroke="none"/>
      <circle cx="5.566" cy="5.566" r="4.566" fill="none"/>
    </g>
    <g id="Grupo_1917" data-name="Grupo 1917" transform="translate(10.089 330.787)">
      <g id="Grupo_234" data-name="Grupo 234" transform="translate(9.058 4.952)">
        <path id="Unión_32" data-name="Unión 32" d="M.036,20.393c.452-3.112,4.489-8.013,3.779-8.778a.4.4,0,0,1-.067-.1Q.172,6.54.706,3.89c.519-2.572,3.514-.1,5.029.685A.6.6,0,0,0,6.47,4.21C6.528,3.163,6.648,0,9.959,0c3.889,0,3.375,4.367,3.53,4.536.311.339,7.482,1.786,7.356,4.758s-3.931,1.446-4.743,2.32c-.709.766,3.327,5.666,3.779,8.778.147,1.014-.14,1.211-1.134,1.211H13.64c-.716,0-.97-.408-1.339-.97-.817-1.245-1.805-3.246-2.342-3.245s-1.525,2-2.342,3.246c-.369.562-.624.97-1.34.97H1.17C.176,21.6-.111,21.407.036,20.393Z" transform="translate(0 0.019)" fill="#34a853"/>
        <path id="Sustracción_5" data-name="Sustracción 5" d="M1.214,16.026h0c.207-.372.415-.736.617-1.088h0c.456-.8.887-1.552,1.151-2.133.291-.643.354-1.021.2-1.19a.4.4,0,0,1-.067-.1C2.518,10.688,2,9.9,1.58,9.172A15.877,15.877,0,0,1,.563,7.12,9.66,9.66,0,0,1,.247,6.2,6.853,6.853,0,0,1,.059,5.36,4.913,4.913,0,0,1,0,4.588a3.677,3.677,0,0,1,.069-.7,2.146,2.146,0,0,1,.174-.531A1.187,1.187,0,0,1,.5,3.006a.946.946,0,0,1,.332-.2,1.214,1.214,0,0,1,.392-.06,3.424,3.424,0,0,1,1.42.418c.506.245,1.033.567,1.5.851h0c.348.213.677.414.953.556a.671.671,0,0,0,.18.026.539.539,0,0,0,.284-.078.756.756,0,0,0,.271-.313l0-.042V4.16a9.609,9.609,0,0,1,.112-1.111,5.741,5.741,0,0,1,.158-.685,4.256,4.256,0,0,1,.273-.693A3.232,3.232,0,0,1,6.8,1.028,2.76,2.76,0,0,1,7.409.5,2.969,2.969,0,0,1,8.236.134,4.133,4.133,0,0,1,9.318,0h.009a4.135,4.135,0,0,1,1.082.134A2.969,2.969,0,0,1,11.235.5a2.759,2.759,0,0,1,.607.532,3.231,3.231,0,0,1,.423.642,4.254,4.254,0,0,1,.273.693,5.738,5.738,0,0,1,.158.685,9.611,9.611,0,0,1,.111,1.111,1.21,1.21,0,0,0,.044.377,4.955,4.955,0,0,0,1.049.389c.52.167,1.168.374,1.861.632a16.66,16.66,0,0,1,2.086.922c-.679.6-1.4,1.2-2.133,1.769-.7.542-1.435,1.077-2.186,1.589-.71.484-1.452.961-2.2,1.417-.709.429-1.445.85-2.19,1.252-1.343.726-2.755,1.413-4.2,2.042C3.721,15.08,2.468,15.577,1.214,16.026Z" transform="translate(0.633 0)" fill="#fff" opacity="0.1"/>
      </g>
      <g id="Grupo_1815" data-name="Grupo 1815" transform="translate(0 0)">
        <g id="Grupo_245" data-name="Grupo 245" transform="translate(0 0.029)">
          <g id="Grupo_219" data-name="Grupo 219" transform="translate(0 0)">
            <path id="Trazado_144" data-name="Trazado 144" d="M.122,0H16.7V3.039Q6.959,14.7,6.825,26.546H1.954l-.67-.983Q6.2,10.279,10.668,4.29,1.909,3.888.3,4.424-.191.76.122,0Z" fill="#868484"/>
          </g>
        </g>
        <path id="Intersección_4" data-name="Intersección 4" d="M10.669,4.29Q1.909,3.888.3,4.424-.191.76.122,0H16.7V3.039Q8.3,13.1,7.044,23.289c-1.723.484-3.533.905-5.426,1.242Q6.352,10.075,10.669,4.29Z" transform="translate(0 0)" fill="#fff" opacity="0.2"/>
      </g>
    </g>
  </g>
</svg>
