<svg xmlns="http://www.w3.org/2000/svg" width="25.409" height="20.885" viewBox="0 0 25.409 20.885">
  <g id="Grupo_279" data-name="Grupo 279" transform="translate(-128.463 -314)">
    <path id="XMLID_188_" d="M198.609,237.463a2.955,2.955,0,0,0-2.963-2.963H176.163a2.955,2.955,0,0,0-2.963,2.963v5.512h25.409v-5.512Z" transform="translate(-44.737 91.91)"/>
    <path id="XMLID_71_" d="M216.671,132.259l.722-1.259.722,1.259a.839.839,0,0,1-.722,1.259h0A.839.839,0,0,1,216.671,132.259Z" transform="translate(-81.437 183)"/>
    <path id="XMLID_73_" d="M250.671,132.259l.722-1.259.722,1.259a.839.839,0,0,1-.722,1.259h0A.839.839,0,0,1,250.671,132.259Z" transform="translate(-110.217 183)"/>
    <path id="XMLID_74_" d="M284.671,132.259l.722-1.259.722,1.259a.839.839,0,0,1-.722,1.259h0A.839.839,0,0,1,284.671,132.259Z" transform="translate(-138.997 183)"/>
    <path id="XMLID_139_" d="M215.878,183.273a2.074,2.074,0,0,0-2.073-2.073H200.173a2.074,2.074,0,0,0-2.073,2.073v3.854h17.763v-3.854Z" transform="translate(-65.814 137.027)"/>
  </g>
</svg>
