<svg id="Expanded" xmlns="http://www.w3.org/2000/svg" width="31.932" height="34.522" viewBox="0 0 31.932 34.522">
  <g id="Grupo_1419" data-name="Grupo 1419" transform="translate(0 0)">
    <g id="Grupo_1413" data-name="Grupo 1413" transform="translate(11.497 20.804)">
      <path id="Trazado_250" data-name="Trazado 250" d="M2.257,42.718H22.693l-.059-.776c-.331-4.383-2.807-7-7.362-7.787v-.823h1.444V29H8.052v4.332H9.5v.823C5,34.931,2.652,37.483,2.315,41.941Zm18.85-1.444H3.84c.5-3.471,2.524-5.265,6.473-5.782l.628-.082V31.888H9.5V30.444h5.776v1.444H13.829v3.521l.628.082C18.464,36.016,20.6,37.861,21.107,41.274Z" transform="translate(-2.257 -29)"/>
    </g>
    <g id="Grupo_1414" data-name="Grupo 1414" transform="translate(0.822 0.346)">
      <path id="Trazado_251" data-name="Trazado 251" d="M37.3,19.689a.722.722,0,0,0,.51-1.232L20.232.876A.722.722,0,0,0,19.211,1.9L36.79,19.478A.72.72,0,0,0,37.3,19.689Z" transform="translate(-19 -0.665)"/>
    </g>
    <g id="Grupo_1415" data-name="Grupo 1415" transform="translate(5.417)">
      <path id="Trazado_252" data-name="Trazado 252" d="M32.494,17.291a.72.72,0,0,0,.51-.212c2.29-2.29.5-7.672-4.084-12.252a19.066,19.066,0,0,0-6.911-4.6.721.721,0,0,0-.957.682v4.92a.722.722,0,1,0,1.444,0V1.972a19.141,19.141,0,0,1,5.4,3.876c4.212,4.211,5.533,8.761,4.084,10.21a.722.722,0,0,0,.51,1.232Z" transform="translate(-21.053 -0.185)"/>
    </g>
    <g id="Grupo_1416" data-name="Grupo 1416" transform="translate(3.637 9.974)">
      <path id="Trazado_253" data-name="Trazado 253" d="M30.722,15.444h6.823a.722.722,0,0,0,0-1.444H30.722a.722.722,0,0,0,0,1.444Z" transform="translate(-30 -14)"/>
    </g>
    <g id="Grupo_1417" data-name="Grupo 1417" transform="translate(6.524 12.863)">
      <path id="Trazado_254" data-name="Trazado 254" d="M30.335,23.012a3.609,3.609,0,0,0,2.645-.979.722.722,0,1,0-1.021-1.021c-1.173,1.172-3.949.5-6.964-1.567h4.685a.722.722,0,0,0,0-1.444H22.858a.722.722,0,0,0-.464,1.275C25.3,21.71,28.161,23.012,30.335,23.012Z" transform="translate(-22.136 -18.001)"/>
    </g>
    <g id="Grupo_1418" data-name="Grupo 1418" transform="translate(0 0.346)">
      <path id="Trazado_255" data-name="Trazado 255" d="M36.193,8.849h6.1a.722.722,0,0,0,0-1.444H36.617c-1.333-2.48-1.549-4.522-.563-5.507A.722.722,0,0,0,35.033.876c-1.544,1.544-1.35,4.317.533,7.609A.722.722,0,0,0,36.193,8.849Z" transform="translate(-34 -0.665)"/>
    </g>
  </g>
</svg>
