<svg xmlns="http://www.w3.org/2000/svg" width="27.528" height="3.504" viewBox="0 0 27.528 3.504">
  <path id="Trazado_460" data-name="Trazado 460" d="M2.9.168a1.7,1.7,0,0,1-1.248-.5,1.7,1.7,0,0,1-.5-1.248,1.7,1.7,0,0,1,.5-1.248,1.7,1.7,0,0,1,1.248-.5,1.666,1.666,0,0,1,1.224.5,1.7,1.7,0,0,1,.5,1.248,1.7,1.7,0,0,1-.5,1.248A1.666,1.666,0,0,1,2.9.168Zm12.024,0a1.7,1.7,0,0,1-1.248-.5,1.7,1.7,0,0,1-.5-1.248,1.7,1.7,0,0,1,.5-1.248,1.7,1.7,0,0,1,1.248-.5,1.666,1.666,0,0,1,1.224.5,1.7,1.7,0,0,1,.5,1.248,1.7,1.7,0,0,1-.5,1.248A1.666,1.666,0,0,1,14.928.168Zm12.024,0a1.7,1.7,0,0,1-1.248-.5,1.7,1.7,0,0,1-.5-1.248,1.7,1.7,0,0,1,.5-1.248,1.7,1.7,0,0,1,1.248-.5,1.666,1.666,0,0,1,1.224.5,1.7,1.7,0,0,1,.5,1.248,1.7,1.7,0,0,1-.5,1.248A1.666,1.666,0,0,1,26.952.168Z" transform="translate(-1.152 3.336)"/>
</svg>
