<svg xmlns="http://www.w3.org/2000/svg" width="23.411" height="20.377" viewBox="0 0 23.411 20.377">
  <g id="Grupo_280" data-name="Grupo 280" transform="translate(-131.285 -299.125)">
    <path id="Trazado_13" data-name="Trazado 13" d="M18.921,18.256c-.013-.143-.022-.373-.03-.611,2.164-.222,3.683-.741,3.683-1.345-.006,0-.005-.025-.005-.035-1.618-1.458,1.4-11.819-4.221-11.609a2.861,2.861,0,0,0-1.858-.564c-7.617.576-4.249,10.361-5.984,12.208h0v0h0c.007.592,1.474,1.1,3.575,1.329-.006.144-.018.323-.046.623C13.16,20.6,7.272,19.944,7,24.469H25.928C25.657,19.944,19.794,20.6,18.921,18.256Z" transform="translate(128.768 295.033)" fill="#787878"/>
    <path id="Trazado_12" data-name="Trazado 12" d="M18.921,18.407a20.59,20.59,0,0,1-.045-2.1A4.1,4.1,0,0,0,20,13.875c.286-.023.737-.3.869-1.4a1.028,1.028,0,0,0-.384-1.029c.465-1.4,1.432-5.728-1.787-6.175a2.531,2.531,0,0,0-2.282-.876c-4.41.081-4.942,3.33-3.975,7.051a1.03,1.03,0,0,0-.384,1.029c.132,1.1.583,1.38.869,1.4a4.1,4.1,0,0,0,1.152,2.435,20.6,20.6,0,0,1-.045,2.1C13.16,20.753,7.272,20.094,7,24.619H25.928C25.657,20.094,19.794,20.753,18.921,18.407Z" transform="translate(124.285 294.883)"/>
  </g>
</svg>
