<svg xmlns="http://www.w3.org/2000/svg" width="25.531" height="10.494" viewBox="0 0 25.531 10.494">
  <g id="iconfinder_weight_7055825" transform="translate(-7.67 -22)">
    <path id="Trazado_14" data-name="Trazado 14" d="M9.769,32.265H8.195a.525.525,0,0,1-.525-.525V27.165a.525.525,0,0,1,.525-.525H9.769a.525.525,0,0,1,.525.525V31.74A.525.525,0,0,1,9.769,32.265ZM8.719,31.215h.525V27.689H8.719Z" transform="translate(0 -2.205)" fill="#231f20"/>
    <path id="Trazado_15" data-name="Trazado 15" d="M13.293,32.375h-2.1a.525.525,0,0,1-.525-.525V24.935a.525.525,0,0,1,.525-.525h2.1a.525.525,0,0,1,.525.525V31.85A.525.525,0,0,1,13.293,32.375Zm-1.574-1.049h1.049V25.459H11.719Z" transform="translate(-1.426 -1.146)" fill="#231f20"/>
    <path id="Trazado_16" data-name="Trazado 16" d="M18.684,32.494H15.195a.525.525,0,0,1-.525-.525V22.525A.525.525,0,0,1,15.195,22h3.489a.525.525,0,0,1,.525.525v9.444A.525.525,0,0,1,18.684,32.494Zm-2.964-1.049h2.44V23.049h-2.44Z" transform="translate(-3.327 0)" fill="#231f20"/>
    <path id="Trazado_17" data-name="Trazado 17" d="M53.429,32.265H51.855a.525.525,0,0,1-.525-.525V27.165a.525.525,0,0,1,.525-.525h1.574a.525.525,0,0,1,.525.525V31.74A.525.525,0,0,1,53.429,32.265Zm-1.049-1.049H52.9V27.689h-.525Z" transform="translate(-20.752 -2.205)" fill="#231f20"/>
    <path id="Trazado_18" data-name="Trazado 18" d="M49.943,32.375h-2.1a.525.525,0,0,1-.525-.525V24.935a.525.525,0,0,1,.525-.525h2.1a.525.525,0,0,1,.525.525V31.85A.525.525,0,0,1,49.943,32.375Zm-1.574-1.049h1.049V25.459H48.369Z" transform="translate(-18.846 -1.146)" fill="#231f20"/>
    <path id="Trazado_19" data-name="Trazado 19" d="M44.684,32.494H41.195a.525.525,0,0,1-.525-.525V22.525A.525.525,0,0,1,41.195,22h3.489a.525.525,0,0,1,.525.525v9.444A.525.525,0,0,1,44.684,32.494Zm-2.964-1.049h2.44V23.049h-2.44Z" transform="translate(-15.686 0)" fill="#231f20"/>
    <path id="Trazado_20" data-name="Trazado 20" d="M32,32.148H21.845a.525.525,0,0,1-.525-.525v-2.1A.525.525,0,0,1,21.845,29H32a.525.525,0,0,1,.525.525v2.1A.525.525,0,0,1,32,32.148ZM22.369,31.1h9.1V30.049h-9.1Z" transform="translate(-6.488 -3.327)" fill="#231f20"/>
  </g>
</svg>
