<svg xmlns="http://www.w3.org/2000/svg" width="111.9" height="53.329" viewBox="0 0 111.9 53.329">
  <g id="Grupo_1809" data-name="Grupo 1809" transform="translate(-132.6 -79.421)">
    <path id="Trazado_416" data-name="Trazado 416" d="M9.675-52.575a3.426,3.426,0,0,1,1.463.375,3.262,3.262,0,0,1,1.238.975L32.25-21.15l-2.625-.075,20.1-30a2.79,2.79,0,0,1,2.55-1.35,3.333,3.333,0,0,1,2.1.9,2.81,2.81,0,0,1,.9,2.175V-3.075a2.963,2.963,0,0,1-.9,2.175,3.053,3.053,0,0,1-2.25.9,3.053,3.053,0,0,1-2.25-.9,2.963,2.963,0,0,1-.9-2.175V-43.8l1.875.375L33.15-16.5a4.266,4.266,0,0,1-1.088.9,2.557,2.557,0,0,1-1.312.375A2.758,2.758,0,0,1,29.4-15.6a4.056,4.056,0,0,1-1.125-.9L10.8-43.425l1.575-1.95v42.3A3.1,3.1,0,0,1,11.55-.9a2.723,2.723,0,0,1-2.1.9A2.609,2.609,0,0,1,7.387-.9,3.189,3.189,0,0,1,6.6-3.075V-49.5a3.069,3.069,0,0,1,.863-2.137A2.872,2.872,0,0,1,9.675-52.575Zm63.45,49.5A3.029,3.029,0,0,1,72.262-.9a2.841,2.841,0,0,1-2.137.9A2.81,2.81,0,0,1,67.95-.9a3.1,3.1,0,0,1-.825-2.175v-33.3a2.9,2.9,0,0,1,.863-2.137,2.9,2.9,0,0,1,2.137-.863,2.9,2.9,0,0,1,2.137.863,2.9,2.9,0,0,1,.863,2.137ZM70.05-44.4a4.278,4.278,0,0,1-2.775-.75,2.856,2.856,0,0,1-.9-2.325v-1.05a2.748,2.748,0,0,1,.975-2.325,4.471,4.471,0,0,1,2.775-.75,4.141,4.141,0,0,1,2.7.75,2.856,2.856,0,0,1,.9,2.325v1.05a2.8,2.8,0,0,1-.937,2.325A4.3,4.3,0,0,1,70.05-44.4Zm45.45,5.25a2.871,2.871,0,0,1,2.175.862,2.972,2.972,0,0,1,.825,2.138V-3.075A3.029,3.029,0,0,1,117.637-.9,2.841,2.841,0,0,1,115.5,0a2.841,2.841,0,0,1-2.137-.9,3.029,3.029,0,0,1-.863-2.175V-10.2l1.425-.15a7.3,7.3,0,0,1-1.125,3.6,14.271,14.271,0,0,1-3.075,3.638A16.685,16.685,0,0,1,105.15-.337,14.746,14.746,0,0,1,99.45.75a16.467,16.467,0,0,1-9.187-2.662A18.388,18.388,0,0,1,83.85-9.15a22.69,22.69,0,0,1-2.325-10.425,22.333,22.333,0,0,1,2.362-10.462,18.376,18.376,0,0,1,6.375-7.125A16.316,16.316,0,0,1,99.3-39.75a16.816,16.816,0,0,1,6,1.05,15.758,15.758,0,0,1,4.837,2.85,13.547,13.547,0,0,1,3.188,3.975,9.4,9.4,0,0,1,1.125,4.35l-1.95-.45V-36.15a2.9,2.9,0,0,1,.863-2.138A2.9,2.9,0,0,1,115.5-39.15ZM100.05-4.8a11.579,11.579,0,0,0,6.637-1.95,13.4,13.4,0,0,0,4.537-5.287,16.781,16.781,0,0,0,1.65-7.538,16.609,16.609,0,0,0-1.65-7.462,13.117,13.117,0,0,0-4.537-5.25A11.743,11.743,0,0,0,100.05-34.2a11.784,11.784,0,0,0-6.562,1.875A12.9,12.9,0,0,0,88.95-27.15a16.718,16.718,0,0,0-1.65,7.575,16.781,16.781,0,0,0,1.65,7.538A13.4,13.4,0,0,0,93.488-6.75,11.453,11.453,0,0,0,100.05-4.8Z" transform="translate(126 132)" opacity="0.5"/>
    <g id="Grupo_1756" data-name="Grupo 1756" transform="translate(-148.274 -1491.358)">
      <g id="Grupo_1550" data-name="Grupo 1550" transform="translate(300.274 1585.659)">
        <path id="Trazado_373" data-name="Trazado 373" d="M101.4,52.408a3.385,3.385,0,0,1-3.385-3.385V37.176h0a11,11,0,0,0-21.917,0h0l6.012,11.275c0,2.369,1.608,2.425,2.737,5.308.34.869-.548,6.006,0,6.465a10.155,10.155,0,0,0,16.637-7.816Z" transform="translate(-28.627 -26.857)" fill="#ffbc8b"/>
        <circle id="Elipse_90" data-name="Elipse 90" cx="8.462" cy="8.462" r="8.462" transform="translate(44.003 3.549)" fill="#fff"/>
        <path id="Trazado_374" data-name="Trazado 374" d="M20,52.357a3.385,3.385,0,0,0,3.385-3.385V37.125h.042a11,11,0,0,1,21.959,0h0l-7.6,13.289c0,2.047-1.448,9.765-1.448,9.765a10.219,10.219,0,0,1-6.179,2.333A10.155,10.155,0,0,1,20,52.357Z" transform="translate(-20 -26.806)" fill="#ffbc8b"/>
        <circle id="Elipse_91" data-name="Elipse 91" cx="8.462" cy="8.462" r="8.462" transform="translate(11.847 3.549)" fill="#fff"/>
        <path id="Trazado_375" data-name="Trazado 375" d="M58.477,28h0A24.887,24.887,0,0,1,83.364,52.887v5.179c0,5.113-6.983-12.8-12.1-12.8l-30.54,4.04c-5.113,0-7.139,13.868-7.139,8.755V52.887A24.887,24.887,0,0,1,58.477,28Z" transform="translate(-22.09 -26.989)" fill="#ffbc8b"/>
        <path id="Trazado_386" data-name="Trazado 386" d="M80.878,54.848A21.849,21.849,0,0,0,58.411,33c-11.9.33-21.232,10.392-21.232,22.3v3.385a4.087,4.087,0,0,0,1.252,2.97,5.018,5.018,0,0,0,1.151.846V59.231a3.385,3.385,0,0,1,3.385-3.385h4.553a.846.846,0,0,0,.762-.465l1.439-2.919,1.455,2.919a.846.846,0,0,0,.762.465h1.049a.846.846,0,0,0,.77-.491l1.4-2.962,1.523,2.987a.846.846,0,0,0,.753.465h9.122a.846.846,0,0,0,.753-.465l1.523-2.987,1.4,2.962a.846.846,0,0,0,.77.491h4.113a3.385,3.385,0,0,1,3.385,3.385v3.292a5.018,5.018,0,0,0,1.151-.846,4.087,4.087,0,0,0,1.252-2.97Z" transform="translate(-22.642 -27.757)" fill="#ffca9f"/>
        <circle id="Elipse_92" data-name="Elipse 92" cx="0.846" cy="0.846" r="0.846" transform="translate(43.157 33.167)" fill="#ff6d00"/>
        <circle id="Elipse_93" data-name="Elipse 93" cx="0.846" cy="0.846" r="0.846" transform="translate(41.464 35.705)" fill="#ff6d00"/>
        <circle id="Elipse_94" data-name="Elipse 94" cx="0.846" cy="0.846" r="0.846" transform="translate(36.387 35.705)" fill="#ff6d00"/>
        <circle id="Elipse_95" data-name="Elipse 95" cx="0.846" cy="0.846" r="0.846" transform="translate(45.696 34.859)" fill="#ff6d00"/>
        <circle id="Elipse_96" data-name="Elipse 96" cx="0.846" cy="0.846" r="0.846" transform="translate(48.234 32.32)" fill="#ff6d00"/>
        <circle id="Elipse_97" data-name="Elipse 97" cx="0.846" cy="0.846" r="0.846" transform="translate(29.617 32.32)" fill="#ff6d00"/>
        <circle id="Elipse_98" data-name="Elipse 98" cx="0.846" cy="0.846" r="0.846" transform="translate(31.31 34.859)" fill="#ff6d00"/>
        <circle id="Elipse_99" data-name="Elipse 99" cx="0.846" cy="0.846" r="0.846" transform="translate(27.079 34.013)" fill="#ff6d00"/>
        <circle id="Elipse_100" data-name="Elipse 100" cx="0.846" cy="0.846" r="0.846" transform="translate(22.848 32.32)" fill="#ff6d00"/>
        <circle id="Elipse_101" data-name="Elipse 101" cx="0.846" cy="0.846" r="0.846" transform="translate(24.54 34.859)" fill="#ff6d00"/>
      </g>
    </g>
  </g>
</svg>
