<svg xmlns="http://www.w3.org/2000/svg" width="267.223" height="81.479" viewBox="0 0 267.223 81.479">
  <g id="Grupo_1942" data-name="Grupo 1942" transform="translate(-53.367 -2347.423)">
    <path id="Trazado_462" data-name="Trazado 462" d="M-129.362.17a4.746,4.746,0,0,1-2.38-.578A4.061,4.061,0,0,1-133.323-2a4.74,4.74,0,0,1-.561-2.338,5.086,5.086,0,0,1,.587-2.524,4.181,4.181,0,0,1,1.521-1.6,3.847,3.847,0,0,1,1.989-.552,4.059,4.059,0,0,1,1.521.289,3.944,3.944,0,0,1,1.292.842,4.152,4.152,0,0,1,.91,1.326,4.444,4.444,0,0,1,.357,1.726.658.658,0,0,1-.221.459.682.682,0,0,1-.476.187h-6.715l-.306-1.173h6.545l-.272.238v-.374a2.123,2.123,0,0,0-.451-1.2,2.709,2.709,0,0,0-.977-.774,2.8,2.8,0,0,0-1.207-.272,3,3,0,0,0-1.012.179,2.406,2.406,0,0,0-.9.578,2.862,2.862,0,0,0-.637,1.029,4.283,4.283,0,0,0-.238,1.513,3.626,3.626,0,0,0,.4,1.734,3.02,3.02,0,0,0,1.113,1.181,3.114,3.114,0,0,0,1.649.433,3.232,3.232,0,0,0,1.054-.153,2.866,2.866,0,0,0,.757-.383,3.722,3.722,0,0,0,.535-.468.773.773,0,0,1,.442-.153.556.556,0,0,1,.408.17.556.556,0,0,1,.17.408.646.646,0,0,1-.272.51,4.474,4.474,0,0,1-1.3.927A3.876,3.876,0,0,1-129.362.17Zm5.117-1.564a.717.717,0,0,1-.136-.467.58.58,0,0,1,.289-.434.6.6,0,0,1,.4-.1.622.622,0,0,1,.417.221,3.787,3.787,0,0,0,1.088.893,3.105,3.105,0,0,0,1.5.331,3.413,3.413,0,0,0,.816-.136,1.507,1.507,0,0,0,.688-.416,1.105,1.105,0,0,0,.28-.791,1.006,1.006,0,0,0-.289-.757,2.206,2.206,0,0,0-.748-.459,8.372,8.372,0,0,0-1-.314q-.561-.153-1.105-.349a4.271,4.271,0,0,1-.978-.493,2.314,2.314,0,0,1-.7-.748,2.137,2.137,0,0,1-.264-1.1,2.163,2.163,0,0,1,.417-1.326,2.7,2.7,0,0,1,1.122-.867,3.825,3.825,0,0,1,1.538-.306,4.772,4.772,0,0,1,.994.11,3.835,3.835,0,0,1,1.011.374,2.841,2.841,0,0,1,.867.723.683.683,0,0,1,.17.425.545.545,0,0,1-.221.459.611.611,0,0,1-.416.119.583.583,0,0,1-.382-.17,2.359,2.359,0,0,0-.893-.655,2.969,2.969,0,0,0-1.182-.229,2.729,2.729,0,0,0-.8.119,1.464,1.464,0,0,0-.655.4,1.085,1.085,0,0,0-.263.773,1.071,1.071,0,0,0,.306.748,2.1,2.1,0,0,0,.782.468q.493.178,1.088.348.544.136,1.046.315a3.724,3.724,0,0,1,.91.467,2.087,2.087,0,0,1,.646.74,2.4,2.4,0,0,1,.238,1.131,2.139,2.139,0,0,1-.442,1.351,2.779,2.779,0,0,1-1.164.867,4.045,4.045,0,0,1-1.556.3,5.01,5.01,0,0,1-1.844-.357A3.7,3.7,0,0,1-124.245-1.394Zm12.886-7.344h4a.6.6,0,0,1,.451.187.619.619,0,0,1,.178.442.611.611,0,0,1-.178.451.611.611,0,0,1-.451.179h-4a.6.6,0,0,1-.442-.187.624.624,0,0,1-.187-.459.577.577,0,0,1,.187-.434A.619.619,0,0,1-111.359-8.738Zm1.785-2.312a.63.63,0,0,1,.476.2.674.674,0,0,1,.187.484v8.211a1.243,1.243,0,0,0,.119.612.626.626,0,0,0,.314.28,1.046,1.046,0,0,0,.382.076.7.7,0,0,0,.3-.059.7.7,0,0,1,.3-.059.42.42,0,0,1,.314.161.6.6,0,0,1,.145.417.609.609,0,0,1-.357.519,1.532,1.532,0,0,1-.8.213q-.238,0-.587-.034a1.78,1.78,0,0,1-.688-.221,1.455,1.455,0,0,1-.57-.621,2.635,2.635,0,0,1-.229-1.216V-10.37a.644.644,0,0,1,.2-.484A.687.687,0,0,1-109.574-11.05Zm11.305,2.261a.651.651,0,0,1,.493.2.674.674,0,0,1,.187.484v4.641a3.561,3.561,0,0,1-.96,2.66,3.657,3.657,0,0,1-2.678.944,3.633,3.633,0,0,1-2.66-.944,3.561,3.561,0,0,1-.96-2.66V-8.109a.658.658,0,0,1,.2-.484.658.658,0,0,1,.485-.2.651.651,0,0,1,.493.2.674.674,0,0,1,.187.484v4.641a2.374,2.374,0,0,0,.6,1.751,2.252,2.252,0,0,0,1.666.6,2.271,2.271,0,0,0,1.692-.6,2.4,2.4,0,0,0,.586-1.751V-8.109a.658.658,0,0,1,.2-.484A.658.658,0,0,1-98.269-8.789Zm15.028-.085a.651.651,0,0,1,.493.2.674.674,0,0,1,.187.484V-.7a.687.687,0,0,1-.2.493.644.644,0,0,1-.484.2.644.644,0,0,1-.485-.2.687.687,0,0,1-.2-.493V-2.312l.323-.034a1.655,1.655,0,0,1-.255.816,3.235,3.235,0,0,1-.7.825,3.782,3.782,0,0,1-1.037.629A3.342,3.342,0,0,1-86.879.17a3.732,3.732,0,0,1-2.082-.6,4.168,4.168,0,0,1-1.454-1.641,5.143,5.143,0,0,1-.527-2.363,5.062,5.062,0,0,1,.535-2.371,4.165,4.165,0,0,1,1.445-1.615,3.7,3.7,0,0,1,2.048-.586,3.812,3.812,0,0,1,1.36.238,3.572,3.572,0,0,1,1.1.646,3.071,3.071,0,0,1,.722.9,2.129,2.129,0,0,1,.255.986l-.442-.1V-8.194a.658.658,0,0,1,.2-.484A.658.658,0,0,1-83.241-8.874Zm-3.5,7.786a2.625,2.625,0,0,0,1.5-.442,3.037,3.037,0,0,0,1.028-1.2,3.8,3.8,0,0,0,.374-1.709,3.765,3.765,0,0,0-.374-1.691,2.973,2.973,0,0,0-1.028-1.19,2.662,2.662,0,0,0-1.5-.433,2.671,2.671,0,0,0-1.488.425,2.923,2.923,0,0,0-1.028,1.173,3.789,3.789,0,0,0-.374,1.717,3.8,3.8,0,0,0,.374,1.709,3.037,3.037,0,0,0,1.028,1.2A2.6,2.6,0,0,0-86.743-1.088Zm6.2-.306a.717.717,0,0,1-.136-.467.58.58,0,0,1,.289-.434.6.6,0,0,1,.4-.1.622.622,0,0,1,.417.221,3.787,3.787,0,0,0,1.088.893,3.105,3.105,0,0,0,1.5.331,3.413,3.413,0,0,0,.816-.136A1.507,1.507,0,0,0-75.48-1.5,1.105,1.105,0,0,0-75.2-2.3a1.006,1.006,0,0,0-.289-.757,2.206,2.206,0,0,0-.748-.459,8.372,8.372,0,0,0-1-.314q-.561-.153-1.105-.349a4.271,4.271,0,0,1-.978-.493,2.314,2.314,0,0,1-.7-.748,2.137,2.137,0,0,1-.264-1.1,2.163,2.163,0,0,1,.417-1.326A2.7,2.7,0,0,1-78.744-8.7a3.825,3.825,0,0,1,1.538-.306,4.772,4.772,0,0,1,.994.11,3.835,3.835,0,0,1,1.011.374,2.841,2.841,0,0,1,.867.723.683.683,0,0,1,.17.425.545.545,0,0,1-.221.459A.611.611,0,0,1-74.8-6.8a.583.583,0,0,1-.382-.17,2.359,2.359,0,0,0-.893-.655,2.969,2.969,0,0,0-1.182-.229,2.729,2.729,0,0,0-.8.119,1.464,1.464,0,0,0-.655.4,1.085,1.085,0,0,0-.263.773,1.071,1.071,0,0,0,.306.748,2.1,2.1,0,0,0,.782.468q.493.178,1.088.348.544.136,1.046.315a3.724,3.724,0,0,1,.91.467,2.087,2.087,0,0,1,.646.74,2.4,2.4,0,0,1,.238,1.131A2.139,2.139,0,0,1-74.4-.994a2.779,2.779,0,0,1-1.164.867,4.045,4.045,0,0,1-1.556.3,5.01,5.01,0,0,1-1.844-.357A3.7,3.7,0,0,1-80.538-1.394Zm9.86.7a.687.687,0,0,1-.2.493.644.644,0,0,1-.484.2.637.637,0,0,1-.493-.2A.7.7,0,0,1-72.038-.7V-8.245a.658.658,0,0,1,.2-.484.658.658,0,0,1,.485-.2.658.658,0,0,1,.484.2.658.658,0,0,1,.2.484Zm-.7-9.367a.97.97,0,0,1-.629-.17.647.647,0,0,1-.2-.527V-11a.623.623,0,0,1,.221-.527,1.013,1.013,0,0,1,.629-.17.939.939,0,0,1,.612.17.647.647,0,0,1,.2.527v.238a.634.634,0,0,1-.213.527A.976.976,0,0,1-71.375-10.064Zm2.652,8.67a.717.717,0,0,1-.136-.467A.58.58,0,0,1-68.57-2.3a.6.6,0,0,1,.4-.1.622.622,0,0,1,.417.221,3.787,3.787,0,0,0,1.088.893,3.105,3.105,0,0,0,1.5.331,3.413,3.413,0,0,0,.816-.136,1.507,1.507,0,0,0,.688-.416,1.105,1.105,0,0,0,.28-.791,1.006,1.006,0,0,0-.289-.757,2.206,2.206,0,0,0-.748-.459,8.372,8.372,0,0,0-1-.314q-.561-.153-1.105-.349a4.271,4.271,0,0,1-.978-.493,2.314,2.314,0,0,1-.7-.748,2.137,2.137,0,0,1-.264-1.1,2.163,2.163,0,0,1,.417-1.326A2.7,2.7,0,0,1-66.929-8.7a3.825,3.825,0,0,1,1.538-.306,4.772,4.772,0,0,1,.994.11,3.835,3.835,0,0,1,1.012.374,2.841,2.841,0,0,1,.867.723.683.683,0,0,1,.17.425.545.545,0,0,1-.221.459.611.611,0,0,1-.417.119.583.583,0,0,1-.382-.17,2.359,2.359,0,0,0-.892-.655,2.969,2.969,0,0,0-1.182-.229,2.729,2.729,0,0,0-.8.119,1.464,1.464,0,0,0-.655.4,1.085,1.085,0,0,0-.263.773,1.071,1.071,0,0,0,.306.748,2.1,2.1,0,0,0,.782.468q.493.178,1.088.348.544.136,1.046.315a3.724,3.724,0,0,1,.91.467,2.087,2.087,0,0,1,.646.74,2.4,2.4,0,0,1,.238,1.131,2.139,2.139,0,0,1-.442,1.351,2.779,2.779,0,0,1-1.165.867,4.045,4.045,0,0,1-1.556.3A5.01,5.01,0,0,1-67.15-.187,3.7,3.7,0,0,1-68.723-1.394Zm8.211-7.344h4a.6.6,0,0,1,.45.187.619.619,0,0,1,.179.442.611.611,0,0,1-.179.451.611.611,0,0,1-.45.179h-4a.6.6,0,0,1-.442-.187.624.624,0,0,1-.187-.459.577.577,0,0,1,.187-.434A.619.619,0,0,1-60.512-8.738Zm1.785-2.312a.63.63,0,0,1,.476.2.674.674,0,0,1,.187.484v8.211a1.243,1.243,0,0,0,.119.612.626.626,0,0,0,.314.28,1.045,1.045,0,0,0,.382.076.7.7,0,0,0,.3-.059.7.7,0,0,1,.3-.059.42.42,0,0,1,.314.161.6.6,0,0,1,.145.417.609.609,0,0,1-.357.519,1.532,1.532,0,0,1-.8.213q-.238,0-.587-.034a1.78,1.78,0,0,1-.688-.221,1.455,1.455,0,0,1-.569-.621,2.635,2.635,0,0,1-.229-1.216V-10.37a.644.644,0,0,1,.2-.484A.687.687,0,0,1-58.727-11.05ZM-50.108.17a4.746,4.746,0,0,1-2.38-.578A4.061,4.061,0,0,1-54.069-2a4.74,4.74,0,0,1-.561-2.338,5.086,5.086,0,0,1,.586-2.524,4.181,4.181,0,0,1,1.521-1.6,3.847,3.847,0,0,1,1.989-.552,4.059,4.059,0,0,1,1.521.289,3.944,3.944,0,0,1,1.292.842,4.152,4.152,0,0,1,.91,1.326,4.444,4.444,0,0,1,.357,1.726.658.658,0,0,1-.221.459.682.682,0,0,1-.476.187h-6.715l-.306-1.173h6.545l-.272.238v-.374a2.123,2.123,0,0,0-.451-1.2,2.709,2.709,0,0,0-.977-.774,2.8,2.8,0,0,0-1.207-.272,3,3,0,0,0-1.012.179,2.406,2.406,0,0,0-.9.578,2.862,2.862,0,0,0-.637,1.029,4.283,4.283,0,0,0-.238,1.513,3.626,3.626,0,0,0,.4,1.734,3.02,3.02,0,0,0,1.113,1.181,3.114,3.114,0,0,0,1.649.433A3.233,3.233,0,0,0-49.1-1.241a2.866,2.866,0,0,0,.757-.383,3.722,3.722,0,0,0,.535-.468.773.773,0,0,1,.442-.153.556.556,0,0,1,.408.17.556.556,0,0,1,.17.408.646.646,0,0,1-.272.51,4.474,4.474,0,0,1-1.3.927A3.876,3.876,0,0,1-50.108.17Zm9.979-9.18a3.067,3.067,0,0,1,1.819.476,2.58,2.58,0,0,1,.944,1.275,5.363,5.363,0,0,1,.28,1.785V-.7a.687.687,0,0,1-.2.493.644.644,0,0,1-.485.2.644.644,0,0,1-.484-.2.687.687,0,0,1-.2-.493V-5.44a3.281,3.281,0,0,0-.2-1.165,1.742,1.742,0,0,0-.646-.833,2.122,2.122,0,0,0-1.232-.314,2.757,2.757,0,0,0-1.309.314,2.617,2.617,0,0,0-.952.833,2.006,2.006,0,0,0-.357,1.165V-.7a.687.687,0,0,1-.2.493.644.644,0,0,1-.485.2A.644.644,0,0,1-44.3-.2.687.687,0,0,1-44.5-.7V-8.109a.658.658,0,0,1,.2-.484.658.658,0,0,1,.485-.2.651.651,0,0,1,.493.2.674.674,0,0,1,.187.484V-6.9l-.34.374a2.4,2.4,0,0,1,.391-.893,3.548,3.548,0,0,1,.765-.807A3.9,3.9,0,0,1-41.3-8.8,3.284,3.284,0,0,1-40.129-9.01Zm5.219.272h4a.6.6,0,0,1,.45.187.619.619,0,0,1,.179.442.611.611,0,0,1-.179.451.611.611,0,0,1-.45.179h-4a.6.6,0,0,1-.442-.187.624.624,0,0,1-.187-.459.577.577,0,0,1,.187-.434A.619.619,0,0,1-34.91-8.738Zm1.785-2.312a.63.63,0,0,1,.476.2.674.674,0,0,1,.187.484v8.211a1.243,1.243,0,0,0,.119.612.626.626,0,0,0,.314.28,1.045,1.045,0,0,0,.382.076.7.7,0,0,0,.3-.059.7.7,0,0,1,.3-.059.42.42,0,0,1,.314.161.6.6,0,0,1,.145.417.609.609,0,0,1-.357.519,1.532,1.532,0,0,1-.8.213q-.238,0-.587-.034a1.78,1.78,0,0,1-.688-.221,1.455,1.455,0,0,1-.569-.621,2.635,2.635,0,0,1-.229-1.216V-10.37a.644.644,0,0,1,.2-.484A.687.687,0,0,1-33.125-11.05ZM-24.506.17a4.746,4.746,0,0,1-2.38-.578A4.061,4.061,0,0,1-28.467-2a4.74,4.74,0,0,1-.561-2.338,5.086,5.086,0,0,1,.586-2.524,4.181,4.181,0,0,1,1.522-1.6,3.847,3.847,0,0,1,1.989-.552,4.059,4.059,0,0,1,1.521.289,3.944,3.944,0,0,1,1.292.842,4.152,4.152,0,0,1,.91,1.326,4.444,4.444,0,0,1,.357,1.726.658.658,0,0,1-.221.459.682.682,0,0,1-.476.187h-6.715l-.306-1.173h6.545l-.272.238v-.374a2.123,2.123,0,0,0-.45-1.2,2.709,2.709,0,0,0-.978-.774,2.8,2.8,0,0,0-1.207-.272,3,3,0,0,0-1.012.179,2.406,2.406,0,0,0-.9.578,2.862,2.862,0,0,0-.638,1.029,4.283,4.283,0,0,0-.238,1.513,3.626,3.626,0,0,0,.4,1.734,3.02,3.02,0,0,0,1.113,1.181,3.114,3.114,0,0,0,1.649.433A3.233,3.233,0,0,0-23.5-1.241a2.866,2.866,0,0,0,.757-.383,3.722,3.722,0,0,0,.535-.468.773.773,0,0,1,.442-.153.556.556,0,0,1,.408.17.556.556,0,0,1,.17.408.646.646,0,0,1-.272.51,4.474,4.474,0,0,1-1.3.927A3.876,3.876,0,0,1-24.506.17ZM-7.064-12.58a.651.651,0,0,1,.493.2.674.674,0,0,1,.187.485V-.7a.687.687,0,0,1-.2.493.644.644,0,0,1-.485.2.644.644,0,0,1-.484-.2.687.687,0,0,1-.2-.493V-2.312l.323-.119a1.793,1.793,0,0,1-.247.859,3.08,3.08,0,0,1-.7.841A3.963,3.963,0,0,1-9.41-.085,3.245,3.245,0,0,1-10.7.17a3.73,3.73,0,0,1-2.074-.6,4.191,4.191,0,0,1-1.453-1.632,5.076,5.076,0,0,1-.536-2.363,5.114,5.114,0,0,1,.536-2.38,4.151,4.151,0,0,1,1.445-1.623,3.7,3.7,0,0,1,2.049-.586A3.7,3.7,0,0,1-9.4-8.772a3.711,3.711,0,0,1,1.1.646,3.138,3.138,0,0,1,.74.9,2.076,2.076,0,0,1,.264.986l-.442-.1V-11.9a.658.658,0,0,1,.2-.485A.658.658,0,0,1-7.064-12.58Zm-3.5,11.492a2.651,2.651,0,0,0,1.513-.433,3,3,0,0,0,1.02-1.19A3.8,3.8,0,0,0-7.659-4.42a3.789,3.789,0,0,0-.374-1.717A2.986,2.986,0,0,0-9.061-7.319a2.662,2.662,0,0,0-1.5-.433,2.633,2.633,0,0,0-1.488.433,2.986,2.986,0,0,0-1.028,1.181,3.789,3.789,0,0,0-.374,1.717,3.765,3.765,0,0,0,.374,1.691,3.037,3.037,0,0,0,1.028,1.2A2.6,2.6,0,0,0-10.566-1.088ZM.11.17A4.746,4.746,0,0,1-2.27-.408,4.061,4.061,0,0,1-3.851-2a4.74,4.74,0,0,1-.561-2.338,5.086,5.086,0,0,1,.587-2.524A4.181,4.181,0,0,1-2.3-8.458,3.847,3.847,0,0,1-.315-9.01a4.059,4.059,0,0,1,1.522.289A3.944,3.944,0,0,1,2.5-7.879a4.152,4.152,0,0,1,.909,1.326,4.444,4.444,0,0,1,.357,1.726.658.658,0,0,1-.221.459.682.682,0,0,1-.476.187H-3.647l-.306-1.173H2.592l-.272.238v-.374a2.123,2.123,0,0,0-.451-1.2,2.709,2.709,0,0,0-.977-.774A2.8,2.8,0,0,0-.315-7.735a3,3,0,0,0-1.011.179,2.406,2.406,0,0,0-.9.578A2.862,2.862,0,0,0-2.865-5.95,4.283,4.283,0,0,0-3.1-4.437,3.626,3.626,0,0,0-2.7-2.7,3.02,3.02,0,0,0-1.59-1.521a3.114,3.114,0,0,0,1.649.433,3.233,3.233,0,0,0,1.054-.153,2.866,2.866,0,0,0,.756-.383,3.722,3.722,0,0,0,.535-.468.773.773,0,0,1,.442-.153.556.556,0,0,1,.408.17.556.556,0,0,1,.17.408.646.646,0,0,1-.272.51,4.474,4.474,0,0,1-1.3.927A3.876,3.876,0,0,1,.11.17ZM11.993.578a2.78,2.78,0,0,1-.382,1.488,2.708,2.708,0,0,1-.96.952,2.392,2.392,0,0,1-1.207.332A.625.625,0,0,1,8.8,2.72v-.1a.522.522,0,0,1,.17-.408,1.014,1.014,0,0,1,.425-.221,1.727,1.727,0,0,0,.663-.323,1.492,1.492,0,0,0,.425-.57,1.993,1.993,0,0,0,.153-.807v-8.4a.687.687,0,0,1,.2-.493.644.644,0,0,1,.485-.2.637.637,0,0,1,.493.2.7.7,0,0,1,.187.493Zm-.7-10.642a.97.97,0,0,1-.629-.17.647.647,0,0,1-.2-.527V-11a.623.623,0,0,1,.221-.527,1.013,1.013,0,0,1,.629-.17.939.939,0,0,1,.612.17.647.647,0,0,1,.2.527v.238a.634.634,0,0,1-.213.527A.976.976,0,0,1,11.3-10.064ZM21.6-8.789a.651.651,0,0,1,.493.2.674.674,0,0,1,.187.484v4.641a3.561,3.561,0,0,1-.961,2.66A3.657,3.657,0,0,1,18.64.136a3.633,3.633,0,0,1-2.66-.944,3.561,3.561,0,0,1-.96-2.66V-8.109a.658.658,0,0,1,.2-.484.658.658,0,0,1,.484-.2.651.651,0,0,1,.493.2.674.674,0,0,1,.187.484v4.641a2.374,2.374,0,0,0,.595,1.751,2.252,2.252,0,0,0,1.666.6,2.27,2.27,0,0,0,1.691-.6,2.4,2.4,0,0,0,.587-1.751V-8.109a.658.658,0,0,1,.2-.484A.658.658,0,0,1,21.6-8.789ZM28.772.17a4.746,4.746,0,0,1-2.38-.578A4.061,4.061,0,0,1,24.811-2a4.74,4.74,0,0,1-.561-2.338,5.086,5.086,0,0,1,.586-2.524,4.181,4.181,0,0,1,1.522-1.6,3.847,3.847,0,0,1,1.989-.552,4.059,4.059,0,0,1,1.521.289,3.944,3.944,0,0,1,1.292.842,4.152,4.152,0,0,1,.91,1.326,4.444,4.444,0,0,1,.357,1.726.658.658,0,0,1-.221.459.682.682,0,0,1-.476.187H25.015l-.306-1.173h6.545l-.272.238v-.374a2.123,2.123,0,0,0-.45-1.2,2.709,2.709,0,0,0-.978-.774,2.8,2.8,0,0,0-1.207-.272,3,3,0,0,0-1.012.179,2.406,2.406,0,0,0-.9.578A2.862,2.862,0,0,0,25.8-5.95a4.283,4.283,0,0,0-.238,1.513,3.626,3.626,0,0,0,.4,1.734,3.02,3.02,0,0,0,1.113,1.181,3.114,3.114,0,0,0,1.649.433,3.233,3.233,0,0,0,1.054-.153,2.866,2.866,0,0,0,.757-.383,3.722,3.722,0,0,0,.535-.468.773.773,0,0,1,.442-.153.556.556,0,0,1,.408.17.556.556,0,0,1,.17.408.646.646,0,0,1-.272.51,4.474,4.474,0,0,1-1.3.927A3.876,3.876,0,0,1,28.772.17ZM37.9-9.01a3.742,3.742,0,0,1,1.377.246,3.926,3.926,0,0,1,1.1.638,3.449,3.449,0,0,1,.731.816,1.531,1.531,0,0,1,.264.8l-.34-.2V-8.194a.658.658,0,0,1,.2-.484.658.658,0,0,1,.484-.2.651.651,0,0,1,.493.2.674.674,0,0,1,.187.484V-.748A4.261,4.261,0,0,1,41.8,1.572,3.594,3.594,0,0,1,40.23,2.95a5.216,5.216,0,0,1-2.193.451,5.659,5.659,0,0,1-1.131-.128,6.156,6.156,0,0,1-1.1-.323,1.223,1.223,0,0,1-.6-.4.784.784,0,0,1-.314-.391.459.459,0,0,1,.06-.391.466.466,0,0,1,.408-.247,2.106,2.106,0,0,1,.612.145q.17.051.493.17a5.756,5.756,0,0,0,.748.212,3.87,3.87,0,0,0,.833.093,3.033,3.033,0,0,0,2.21-.748,2.677,2.677,0,0,0,.765-2.006V-2.193l.187.085a2.244,2.244,0,0,1-.408.884,3.288,3.288,0,0,1-.757.722,3.759,3.759,0,0,1-1,.493A3.6,3.6,0,0,1,37.935.17a3.915,3.915,0,0,1-2.133-.6,4.248,4.248,0,0,1-1.5-1.632,4.947,4.947,0,0,1-.552-2.363,4.984,4.984,0,0,1,.552-2.38,4.207,4.207,0,0,1,1.488-1.623A3.884,3.884,0,0,1,37.9-9.01Zm.187,1.258a2.846,2.846,0,0,0-1.564.433,3.042,3.042,0,0,0-1.071,1.181,3.652,3.652,0,0,0-.391,1.717,3.629,3.629,0,0,0,.391,1.691,3.092,3.092,0,0,0,1.071,1.2,2.805,2.805,0,0,0,1.564.442,2.846,2.846,0,0,0,1.564-.433A3.042,3.042,0,0,0,40.723-2.7a3.652,3.652,0,0,0,.391-1.717,3.69,3.69,0,0,0-.391-1.734,2.979,2.979,0,0,0-1.071-1.173A2.889,2.889,0,0,0,38.088-7.752ZM52.827-4.42a4.771,4.771,0,0,1-.578,2.363A4.309,4.309,0,0,1,50.677-.425a4.3,4.3,0,0,1-2.252.6,4.27,4.27,0,0,1-2.236-.6,4.373,4.373,0,0,1-1.581-1.632,4.716,4.716,0,0,1-.586-2.363,4.716,4.716,0,0,1,.586-2.363,4.373,4.373,0,0,1,1.581-1.632,4.27,4.27,0,0,1,2.236-.595,4.3,4.3,0,0,1,2.252.595,4.309,4.309,0,0,1,1.573,1.632A4.771,4.771,0,0,1,52.827-4.42Zm-1.36,0a3.626,3.626,0,0,0-.4-1.734A3.019,3.019,0,0,0,49.98-7.327a2.9,2.9,0,0,0-1.556-.425,2.914,2.914,0,0,0-1.547.425,3,3,0,0,0-1.1,1.173,3.626,3.626,0,0,0-.4,1.734,3.589,3.589,0,0,0,.4,1.717,3.061,3.061,0,0,0,1.1,1.181,2.871,2.871,0,0,0,1.547.433,2.858,2.858,0,0,0,1.556-.433A3.083,3.083,0,0,0,51.068-2.7,3.589,3.589,0,0,0,51.467-4.42Zm2.839,3.026a.717.717,0,0,1-.136-.467A.58.58,0,0,1,54.46-2.3a.6.6,0,0,1,.4-.1.622.622,0,0,1,.417.221,3.787,3.787,0,0,0,1.088.893,3.105,3.105,0,0,0,1.5.331,3.413,3.413,0,0,0,.816-.136,1.507,1.507,0,0,0,.689-.416,1.105,1.105,0,0,0,.28-.791,1.006,1.006,0,0,0-.289-.757,2.206,2.206,0,0,0-.748-.459,8.372,8.372,0,0,0-1-.314q-.561-.153-1.1-.349a4.27,4.27,0,0,1-.978-.493,2.314,2.314,0,0,1-.7-.748,2.137,2.137,0,0,1-.264-1.1,2.163,2.163,0,0,1,.417-1.326A2.7,2.7,0,0,1,56.1-8.7a3.825,3.825,0,0,1,1.539-.306,4.772,4.772,0,0,1,.994.11,3.835,3.835,0,0,1,1.012.374,2.841,2.841,0,0,1,.867.723.683.683,0,0,1,.17.425.545.545,0,0,1-.221.459.611.611,0,0,1-.417.119.583.583,0,0,1-.382-.17,2.359,2.359,0,0,0-.892-.655,2.969,2.969,0,0,0-1.181-.229,2.729,2.729,0,0,0-.8.119,1.464,1.464,0,0,0-.655.4,1.085,1.085,0,0,0-.264.773,1.072,1.072,0,0,0,.306.748,2.1,2.1,0,0,0,.782.468q.493.178,1.088.348.544.136,1.045.315a3.724,3.724,0,0,1,.91.467,2.087,2.087,0,0,1,.646.74,2.4,2.4,0,0,1,.238,1.131,2.139,2.139,0,0,1-.442,1.351,2.779,2.779,0,0,1-1.165.867,4.045,4.045,0,0,1-1.556.3,5.01,5.01,0,0,1-1.844-.357A3.7,3.7,0,0,1,54.307-1.394ZM74.689-12.58a.651.651,0,0,1,.493.2.674.674,0,0,1,.187.485V-.7a.687.687,0,0,1-.2.493.644.644,0,0,1-.484.2A.644.644,0,0,1,74.2-.2a.687.687,0,0,1-.2-.493V-2.312l.323-.119a1.793,1.793,0,0,1-.246.859,3.08,3.08,0,0,1-.7.841,3.963,3.963,0,0,1-1.046.646A3.245,3.245,0,0,1,71.051.17a3.73,3.73,0,0,1-2.074-.6,4.191,4.191,0,0,1-1.454-1.632,5.076,5.076,0,0,1-.535-2.363,5.114,5.114,0,0,1,.535-2.38,4.151,4.151,0,0,1,1.445-1.623,3.7,3.7,0,0,1,2.048-.586,3.7,3.7,0,0,1,1.335.238,3.711,3.711,0,0,1,1.1.646,3.138,3.138,0,0,1,.74.9,2.076,2.076,0,0,1,.264.986l-.442-.1V-11.9a.658.658,0,0,1,.2-.485A.658.658,0,0,1,74.689-12.58Zm-3.5,11.492A2.651,2.651,0,0,0,72.7-1.521a3,3,0,0,0,1.02-1.19,3.8,3.8,0,0,0,.374-1.708,3.789,3.789,0,0,0-.374-1.717,2.986,2.986,0,0,0-1.028-1.181,2.662,2.662,0,0,0-1.5-.433,2.633,2.633,0,0,0-1.488.433,2.986,2.986,0,0,0-1.028,1.181A3.789,3.789,0,0,0,68.3-4.42a3.765,3.765,0,0,0,.374,1.691A3.037,3.037,0,0,0,69.7-1.53,2.6,2.6,0,0,0,71.187-1.088ZM81.864.17a4.745,4.745,0,0,1-2.38-.578A4.061,4.061,0,0,1,77.9-2a4.74,4.74,0,0,1-.561-2.338,5.086,5.086,0,0,1,.587-2.524,4.181,4.181,0,0,1,1.521-1.6,3.847,3.847,0,0,1,1.989-.552,4.059,4.059,0,0,1,1.521.289,3.944,3.944,0,0,1,1.292.842,4.152,4.152,0,0,1,.91,1.326,4.444,4.444,0,0,1,.357,1.726.658.658,0,0,1-.221.459.682.682,0,0,1-.476.187H78.106L77.8-5.355h6.545l-.272.238v-.374a2.123,2.123,0,0,0-.451-1.2,2.709,2.709,0,0,0-.978-.774,2.8,2.8,0,0,0-1.207-.272,3,3,0,0,0-1.011.179,2.406,2.406,0,0,0-.9.578,2.862,2.862,0,0,0-.637,1.029,4.283,4.283,0,0,0-.238,1.513,3.626,3.626,0,0,0,.4,1.734,3.02,3.02,0,0,0,1.114,1.181,3.114,3.114,0,0,0,1.649.433,3.233,3.233,0,0,0,1.054-.153,2.866,2.866,0,0,0,.757-.383,3.722,3.722,0,0,0,.535-.468.773.773,0,0,1,.442-.153.556.556,0,0,1,.408.17.556.556,0,0,1,.17.408.646.646,0,0,1-.272.51,4.474,4.474,0,0,1-1.3.927A3.876,3.876,0,0,1,81.864.17ZM96.348-8.925a2.887,2.887,0,0,1,1.879.586,2.849,2.849,0,0,1,.96,1.657h-.255l.119-.306a2.67,2.67,0,0,1,.7-.918,4.357,4.357,0,0,1,1.139-.731,3.254,3.254,0,0,1,1.343-.289A2.885,2.885,0,0,1,104-8.44a2.665,2.665,0,0,1,.926,1.292,5.494,5.494,0,0,1,.281,1.81V-.7a.687.687,0,0,1-.2.493.644.644,0,0,1-.484.2.637.637,0,0,1-.493-.2.7.7,0,0,1-.187-.493V-5.3a3.475,3.475,0,0,0-.2-1.2,1.772,1.772,0,0,0-.629-.85,1.975,1.975,0,0,0-1.182-.315,2.624,2.624,0,0,0-1.275.315,2.457,2.457,0,0,0-.918.85,2.189,2.189,0,0,0-.34,1.2V-.7a.7.7,0,0,1-.187.493.637.637,0,0,1-.493.2.644.644,0,0,1-.484-.2.687.687,0,0,1-.2-.493V-5.355a3.563,3.563,0,0,0-.178-1.165,1.7,1.7,0,0,0-.6-.833,1.936,1.936,0,0,0-1.173-.315,2.494,2.494,0,0,0-1.241.315,2.548,2.548,0,0,0-.9.833,2.077,2.077,0,0,0-.34,1.165V-.7a.687.687,0,0,1-.2.493.644.644,0,0,1-.484.2.644.644,0,0,1-.485-.2.687.687,0,0,1-.2-.493V-8.109a.658.658,0,0,1,.2-.484.658.658,0,0,1,.485-.2.651.651,0,0,1,.493.2.674.674,0,0,1,.187.484v1.292l-.374.408a2.3,2.3,0,0,1,.348-.884,3.6,3.6,0,0,1,.723-.816,3.633,3.633,0,0,1,.986-.6A3.042,3.042,0,0,1,96.348-8.925ZM111.7.17a4.745,4.745,0,0,1-2.38-.578A4.061,4.061,0,0,1,107.737-2a4.74,4.74,0,0,1-.561-2.338,5.086,5.086,0,0,1,.587-2.524,4.181,4.181,0,0,1,1.521-1.6,3.847,3.847,0,0,1,1.989-.552,4.059,4.059,0,0,1,1.521.289,3.944,3.944,0,0,1,1.292.842A4.152,4.152,0,0,1,115-6.554a4.444,4.444,0,0,1,.357,1.726.658.658,0,0,1-.221.459.682.682,0,0,1-.476.187h-6.715l-.306-1.173h6.545l-.272.238v-.374a2.123,2.123,0,0,0-.451-1.2,2.709,2.709,0,0,0-.978-.774,2.8,2.8,0,0,0-1.207-.272,3,3,0,0,0-1.011.179,2.406,2.406,0,0,0-.9.578,2.862,2.862,0,0,0-.637,1.029,4.283,4.283,0,0,0-.238,1.513,3.626,3.626,0,0,0,.4,1.734A3.02,3.02,0,0,0,110-1.521a3.114,3.114,0,0,0,1.649.433,3.233,3.233,0,0,0,1.054-.153,2.866,2.866,0,0,0,.757-.383,3.722,3.722,0,0,0,.535-.468.773.773,0,0,1,.442-.153.556.556,0,0,1,.408.17.556.556,0,0,1,.17.408.646.646,0,0,1-.272.51,4.474,4.474,0,0,1-1.3.927A3.876,3.876,0,0,1,111.7.17Zm5.117-1.564a.717.717,0,0,1-.136-.467.58.58,0,0,1,.289-.434.6.6,0,0,1,.4-.1.622.622,0,0,1,.417.221,3.787,3.787,0,0,0,1.088.893,3.105,3.105,0,0,0,1.5.331,3.413,3.413,0,0,0,.816-.136,1.507,1.507,0,0,0,.688-.416,1.105,1.105,0,0,0,.28-.791,1.006,1.006,0,0,0-.289-.757,2.206,2.206,0,0,0-.748-.459,8.372,8.372,0,0,0-1-.314q-.561-.153-1.105-.349a4.271,4.271,0,0,1-.978-.493,2.314,2.314,0,0,1-.7-.748,2.137,2.137,0,0,1-.264-1.1,2.163,2.163,0,0,1,.417-1.326,2.7,2.7,0,0,1,1.122-.867,3.825,3.825,0,0,1,1.538-.306,4.772,4.772,0,0,1,.994.11,3.835,3.835,0,0,1,1.011.374,2.841,2.841,0,0,1,.867.723.683.683,0,0,1,.17.425.545.545,0,0,1-.221.459.611.611,0,0,1-.416.119.583.583,0,0,1-.382-.17,2.359,2.359,0,0,0-.893-.655,2.969,2.969,0,0,0-1.182-.229,2.729,2.729,0,0,0-.8.119,1.464,1.464,0,0,0-.655.4,1.085,1.085,0,0,0-.263.773,1.071,1.071,0,0,0,.306.748,2.1,2.1,0,0,0,.782.468q.493.178,1.088.348.544.136,1.046.315a3.724,3.724,0,0,1,.91.467,2.087,2.087,0,0,1,.646.74,2.4,2.4,0,0,1,.238,1.131,2.139,2.139,0,0,1-.442,1.351,2.779,2.779,0,0,1-1.164.867,4.045,4.045,0,0,1-1.556.3,5.01,5.01,0,0,1-1.844-.357A3.7,3.7,0,0,1,116.815-1.394Zm15.844-7.48a.651.651,0,0,1,.493.2.674.674,0,0,1,.187.484V-.7a.687.687,0,0,1-.2.493.644.644,0,0,1-.485.2.644.644,0,0,1-.484-.2.687.687,0,0,1-.2-.493V-2.312l.323-.034a1.655,1.655,0,0,1-.255.816,3.235,3.235,0,0,1-.7.825,3.782,3.782,0,0,1-1.037.629,3.342,3.342,0,0,1-1.292.247,3.732,3.732,0,0,1-2.082-.6,4.168,4.168,0,0,1-1.454-1.641,5.143,5.143,0,0,1-.527-2.363,5.062,5.062,0,0,1,.535-2.371,4.165,4.165,0,0,1,1.445-1.615,3.7,3.7,0,0,1,2.048-.586,3.812,3.812,0,0,1,1.36.238,3.572,3.572,0,0,1,1.1.646,3.071,3.071,0,0,1,.723.9,2.13,2.13,0,0,1,.255.986l-.442-.1V-8.194a.658.658,0,0,1,.2-.484A.658.658,0,0,1,132.66-8.874Zm-3.5,7.786a2.625,2.625,0,0,0,1.5-.442,3.037,3.037,0,0,0,1.029-1.2,3.8,3.8,0,0,0,.374-1.709,3.764,3.764,0,0,0-.374-1.691,2.973,2.973,0,0,0-1.029-1.19,2.662,2.662,0,0,0-1.5-.433,2.671,2.671,0,0,0-1.487.425,2.923,2.923,0,0,0-1.028,1.173,3.789,3.789,0,0,0-.374,1.717,3.8,3.8,0,0,0,.374,1.709,3.037,3.037,0,0,0,1.028,1.2A2.6,2.6,0,0,0,129.158-1.088Z" transform="translate(187.25 2425.502)"/>
    <path id="Trazado_463" data-name="Trazado 463" d="M9.675-52.575a3.426,3.426,0,0,1,1.463.375,3.262,3.262,0,0,1,1.238.975L32.25-21.15l-2.625-.075,20.1-30a2.79,2.79,0,0,1,2.55-1.35,3.333,3.333,0,0,1,2.1.9,2.81,2.81,0,0,1,.9,2.175V-3.075a2.963,2.963,0,0,1-.9,2.175,3.053,3.053,0,0,1-2.25.9,3.053,3.053,0,0,1-2.25-.9,2.963,2.963,0,0,1-.9-2.175V-43.8l1.875.375L33.15-16.5a4.266,4.266,0,0,1-1.088.9,2.557,2.557,0,0,1-1.312.375A2.758,2.758,0,0,1,29.4-15.6a4.056,4.056,0,0,1-1.125-.9L10.8-43.425l1.575-1.95v42.3A3.1,3.1,0,0,1,11.55-.9a2.723,2.723,0,0,1-2.1.9A2.609,2.609,0,0,1,7.387-.9,3.189,3.189,0,0,1,6.6-3.075V-49.5a3.069,3.069,0,0,1,.863-2.137A2.872,2.872,0,0,1,9.675-52.575Zm63.45,49.5A3.029,3.029,0,0,1,72.262-.9a2.841,2.841,0,0,1-2.137.9A2.81,2.81,0,0,1,67.95-.9a3.1,3.1,0,0,1-.825-2.175v-33.3a2.9,2.9,0,0,1,.863-2.137,2.9,2.9,0,0,1,2.137-.863,2.9,2.9,0,0,1,2.137.863,2.9,2.9,0,0,1,.863,2.137ZM70.05-44.4a4.278,4.278,0,0,1-2.775-.75,2.856,2.856,0,0,1-.9-2.325v-1.05a2.748,2.748,0,0,1,.975-2.325,4.471,4.471,0,0,1,2.775-.75,4.141,4.141,0,0,1,2.7.75,2.856,2.856,0,0,1,.9,2.325v1.05a2.8,2.8,0,0,1-.937,2.325A4.3,4.3,0,0,1,70.05-44.4Zm45.45,5.25a2.871,2.871,0,0,1,2.175.862,2.972,2.972,0,0,1,.825,2.138V-3.075A3.029,3.029,0,0,1,117.637-.9,2.841,2.841,0,0,1,115.5,0a2.841,2.841,0,0,1-2.137-.9,3.029,3.029,0,0,1-.863-2.175V-10.2l1.425-.15a7.3,7.3,0,0,1-1.125,3.6,14.271,14.271,0,0,1-3.075,3.638A16.685,16.685,0,0,1,105.15-.337,14.746,14.746,0,0,1,99.45.75a16.467,16.467,0,0,1-9.187-2.662A18.388,18.388,0,0,1,83.85-9.15a22.69,22.69,0,0,1-2.325-10.425,22.333,22.333,0,0,1,2.362-10.462,18.376,18.376,0,0,1,6.375-7.125A16.316,16.316,0,0,1,99.3-39.75a16.816,16.816,0,0,1,6,1.05,15.758,15.758,0,0,1,4.837,2.85,13.547,13.547,0,0,1,3.188,3.975,9.4,9.4,0,0,1,1.125,4.35l-1.95-.45V-36.15a2.9,2.9,0,0,1,.863-2.138A2.9,2.9,0,0,1,115.5-39.15ZM100.05-4.8a11.579,11.579,0,0,0,6.637-1.95,13.4,13.4,0,0,0,4.537-5.287,16.781,16.781,0,0,0,1.65-7.538,16.609,16.609,0,0,0-1.65-7.462,13.117,13.117,0,0,0-4.537-5.25A11.743,11.743,0,0,0,100.05-34.2a11.784,11.784,0,0,0-6.562,1.875A12.9,12.9,0,0,0,88.95-27.15a16.718,16.718,0,0,0-1.65,7.575,16.781,16.781,0,0,0,1.65,7.538A13.4,13.4,0,0,0,93.488-6.75,11.453,11.453,0,0,0,100.05-4.8Z" transform="translate(125.25 2400.002)" opacity="0.5"/>
    <g id="Grupo_1756" data-name="Grupo 1756" transform="translate(-149.023 776.645)">
      <g id="Grupo_1550" data-name="Grupo 1550" transform="translate(300.274 1585.659)">
        <path id="Trazado_373" data-name="Trazado 373" d="M101.4,52.408a3.385,3.385,0,0,1-3.385-3.385V37.176h0a11,11,0,0,0-21.917,0h0l6.012,11.275c0,2.369,1.608,2.425,2.737,5.308.34.869-.548,6.006,0,6.465a10.155,10.155,0,0,0,16.637-7.816Z" transform="translate(-28.627 -26.857)" fill="#ffbc8b"/>
        <circle id="Elipse_90" data-name="Elipse 90" cx="8.462" cy="8.462" r="8.462" transform="translate(44.003 3.549)" fill="#fff"/>
        <path id="Trazado_374" data-name="Trazado 374" d="M20,52.357a3.385,3.385,0,0,0,3.385-3.385V37.125h.042a11,11,0,0,1,21.959,0h0l-7.6,13.289c0,2.047-1.448,9.765-1.448,9.765a10.219,10.219,0,0,1-6.179,2.333A10.155,10.155,0,0,1,20,52.357Z" transform="translate(-20 -26.806)" fill="#ffbc8b"/>
        <circle id="Elipse_91" data-name="Elipse 91" cx="8.462" cy="8.462" r="8.462" transform="translate(11.847 3.549)" fill="#fff"/>
        <path id="Trazado_375" data-name="Trazado 375" d="M58.477,28h0A24.887,24.887,0,0,1,83.364,52.887v5.179c0,5.113-6.983-12.8-12.1-12.8l-30.54,4.04c-5.113,0-7.139,13.868-7.139,8.755V52.887A24.887,24.887,0,0,1,58.477,28Z" transform="translate(-22.09 -26.989)" fill="#ffbc8b"/>
        <path id="Trazado_386" data-name="Trazado 386" d="M80.878,54.848A21.849,21.849,0,0,0,58.411,33c-11.9.33-21.232,10.392-21.232,22.3v3.385a4.087,4.087,0,0,0,1.252,2.97,5.018,5.018,0,0,0,1.151.846V59.231a3.385,3.385,0,0,1,3.385-3.385h4.553a.846.846,0,0,0,.762-.465l1.439-2.919,1.455,2.919a.846.846,0,0,0,.762.465h1.049a.846.846,0,0,0,.77-.491l1.4-2.962,1.523,2.987a.846.846,0,0,0,.753.465h9.122a.846.846,0,0,0,.753-.465l1.523-2.987,1.4,2.962a.846.846,0,0,0,.77.491h4.113a3.385,3.385,0,0,1,3.385,3.385v3.292a5.018,5.018,0,0,0,1.151-.846,4.087,4.087,0,0,0,1.252-2.97Z" transform="translate(-22.642 -27.757)" fill="#ffca9f"/>
        <circle id="Elipse_92" data-name="Elipse 92" cx="0.846" cy="0.846" r="0.846" transform="translate(43.157 33.167)" fill="#ff6d00"/>
        <circle id="Elipse_93" data-name="Elipse 93" cx="0.846" cy="0.846" r="0.846" transform="translate(41.464 35.705)" fill="#ff6d00"/>
        <circle id="Elipse_94" data-name="Elipse 94" cx="0.846" cy="0.846" r="0.846" transform="translate(36.387 35.705)" fill="#ff6d00"/>
        <circle id="Elipse_95" data-name="Elipse 95" cx="0.846" cy="0.846" r="0.846" transform="translate(45.696 34.859)" fill="#ff6d00"/>
        <circle id="Elipse_96" data-name="Elipse 96" cx="0.846" cy="0.846" r="0.846" transform="translate(48.234 32.32)" fill="#ff6d00"/>
        <circle id="Elipse_97" data-name="Elipse 97" cx="0.846" cy="0.846" r="0.846" transform="translate(29.617 32.32)" fill="#ff6d00"/>
        <circle id="Elipse_98" data-name="Elipse 98" cx="0.846" cy="0.846" r="0.846" transform="translate(31.31 34.859)" fill="#ff6d00"/>
        <circle id="Elipse_99" data-name="Elipse 99" cx="0.846" cy="0.846" r="0.846" transform="translate(27.079 34.013)" fill="#ff6d00"/>
        <circle id="Elipse_100" data-name="Elipse 100" cx="0.846" cy="0.846" r="0.846" transform="translate(22.848 32.32)" fill="#ff6d00"/>
        <circle id="Elipse_101" data-name="Elipse 101" cx="0.846" cy="0.846" r="0.846" transform="translate(24.54 34.859)" fill="#ff6d00"/>
      </g>
    </g>
  </g>
</svg>
