<svg xmlns="http://www.w3.org/2000/svg" width="22.765" height="20.932" viewBox="0 0 22.765 20.932">
  <g id="Grupo_1424" data-name="Grupo 1424" transform="translate(3091.543 -2181.097)">
    <path id="Unión_35" data-name="Unión 35" d="M9.887,15.656c-.519,0-.7-.3-.971-.7-.592-.9-1.308-2.352-1.7-2.352s-1.105,1.45-1.7,2.352c-.268.408-.452.7-.971.7H.848c-.72,0-.929-.143-.822-.877C.354,12.524,3.28,8.972,2.765,8.417a.283.283,0,0,1-.048-.072Q.125,4.74.512,2.819c.376-1.864,2.547-.07,3.645.5a.433.433,0,0,0,.533-.265C4.732,2.292,4.819,0,7.219,0c2.819,0,2.446,3.165,2.558,3.287C10,3.533,15.2,4.581,15.109,6.735S12.26,7.783,11.672,8.417c-.514.555,2.412,4.107,2.739,6.362.107.735-.1.878-.822.878Z" transform="translate(-3083.888 2186.308)" fill="#fd3737"/>
    <path id="Trazado_218" data-name="Trazado 218" d="M169.235,332h13.074v2.4q-7.682,9.2-7.788,18.536H170.68l-.529-.775q3.876-12.052,7.4-16.774-6.907-.317-8.176.106A10.108,10.108,0,0,1,169.235,332Z" transform="translate(-3260.682 1849.097)" fill="#e0e0e0"/>
  </g>
</svg>
