<svg xmlns="http://www.w3.org/2000/svg" width="151" height="26" viewBox="0 0 151 26">
  <g id="Grupo_1459" data-name="Grupo 1459" transform="translate(-2929 -1562)">
    <rect id="Rectángulo_126" data-name="Rectángulo 126" width="26" height="26" transform="translate(2929 1562)" fill="none"/>
    <g id="Grupo_1452" data-name="Grupo 1452">
      <g id="Grupo_1450" data-name="Grupo 1450" transform="translate(19.923 20)">
        <rect id="Rectángulo_127" data-name="Rectángulo 127" width="18" height="2" transform="translate(2913.077 1551)"/>
        <circle id="Elipse_59" data-name="Elipse 59" cx="1" cy="1" r="1" transform="translate(2912.077 1551)"/>
        <circle id="Elipse_60" data-name="Elipse 60" cx="1" cy="1" r="1" transform="translate(2930.077 1551)"/>
      </g>
      <g id="Grupo_1451" data-name="Grupo 1451" transform="translate(19.923 27)">
        <rect id="Rectángulo_127-2" data-name="Rectángulo 127" width="18" height="2" transform="translate(2913.077 1551)"/>
        <circle id="Elipse_59-2" data-name="Elipse 59" cx="1" cy="1" r="1" transform="translate(2912.077 1551)"/>
        <circle id="Elipse_60-2" data-name="Elipse 60" cx="1" cy="1" r="1" transform="translate(2930.077 1551)"/>
      </g>
    </g>
    <rect id="Rectángulo_128" data-name="Rectángulo 128" width="26" height="26" transform="translate(2954 1562)" fill="none"/>
    <g id="Grupo_1453" data-name="Grupo 1453" transform="translate(25.042 -0.448)">
      <g id="Grupo_1450-2" data-name="Grupo 1450" transform="translate(-186.888 496.221) rotate(-9)">
        <rect id="Rectángulo_127-3" data-name="Rectángulo 127" width="18" height="2" transform="translate(2913.077 1551)"/>
        <circle id="Elipse_59-3" data-name="Elipse 59" cx="1" cy="1" r="1" transform="translate(2912.077 1551)"/>
        <circle id="Elipse_60-3" data-name="Elipse 60" cx="1" cy="1" r="1" transform="translate(2930.077 1551)"/>
      </g>
      <g id="Grupo_1451-2" data-name="Grupo 1451" transform="translate(264.357 -364.571) rotate(8)">
        <rect id="Rectángulo_127-4" data-name="Rectángulo 127" width="18" height="2" transform="translate(2913.077 1551)"/>
        <circle id="Elipse_59-4" data-name="Elipse 59" cx="1" cy="1" r="1" transform="translate(2912.077 1551)"/>
        <circle id="Elipse_60-4" data-name="Elipse 60" cx="1" cy="1" r="1" transform="translate(2930.077 1551)"/>
      </g>
    </g>
    <rect id="Rectángulo_129" data-name="Rectángulo 129" width="26" height="26" transform="translate(2979 1562)" fill="none"/>
    <g id="Grupo_1454" data-name="Grupo 1454" transform="translate(50.042 -0.448)">
      <g id="Grupo_1450-3" data-name="Grupo 1450" transform="matrix(0.946, -0.326, 0.326, 0.946, -326.16, 1055.89)">
        <rect id="Rectángulo_127-5" data-name="Rectángulo 127" width="18" height="2" transform="translate(2913.077 1551)"/>
        <circle id="Elipse_59-5" data-name="Elipse 59" cx="1" cy="1" r="1" transform="translate(2912.077 1551)"/>
        <circle id="Elipse_60-5" data-name="Elipse 60" cx="1" cy="1" r="1" transform="translate(2930.077 1551)"/>
      </g>
      <g id="Grupo_1451-3" data-name="Grupo 1451" transform="translate(726.961 -878.812) rotate(20)">
        <rect id="Rectángulo_127-6" data-name="Rectángulo 127" width="18" height="2" transform="translate(2913.077 1551)"/>
        <circle id="Elipse_59-6" data-name="Elipse 59" cx="1" cy="1" r="1" transform="translate(2912.077 1551)"/>
        <circle id="Elipse_60-6" data-name="Elipse 60" cx="1" cy="1" r="1" transform="translate(2930.077 1551)"/>
      </g>
    </g>
    <rect id="Rectángulo_130" data-name="Rectángulo 130" width="26" height="26" transform="translate(3004 1562)" fill="none"/>
    <g id="Grupo_1455" data-name="Grupo 1455" transform="translate(75.042 -0.448)">
      <g id="Grupo_1450-4" data-name="Grupo 1450" transform="translate(-281.523 2317.746) rotate(-41)">
        <rect id="Rectángulo_127-7" data-name="Rectángulo 127" width="18" height="2" transform="translate(2913.077 1551)"/>
        <circle id="Elipse_59-7" data-name="Elipse 59" cx="1" cy="1" r="1" transform="translate(2912.077 1551)"/>
        <circle id="Elipse_60-7" data-name="Elipse 60" cx="1" cy="1" r="1" transform="translate(2930.077 1551)"/>
      </g>
      <g id="Grupo_1451-4" data-name="Grupo 1451" transform="matrix(0.799, 0.602, -0.602, 0.799, 1542.343, -1419.032)">
        <rect id="Rectángulo_127-8" data-name="Rectángulo 127" width="18" height="2" transform="translate(2913.077 1551)"/>
        <circle id="Elipse_59-8" data-name="Elipse 59" cx="1" cy="1" r="1" transform="translate(2912.077 1551)"/>
        <circle id="Elipse_60-8" data-name="Elipse 60" cx="1" cy="1" r="1" transform="translate(2930.077 1551)"/>
      </g>
    </g>
    <rect id="Rectángulo_131" data-name="Rectángulo 131" width="26" height="26" transform="translate(3029 1562)" fill="none"/>
    <g id="Grupo_1456" data-name="Grupo 1456" transform="translate(100.042 -0.448)">
      <g id="Grupo_1450-5" data-name="Grupo 1450" transform="translate(-281.523 2320.746) rotate(-41)">
        <rect id="Rectángulo_127-9" data-name="Rectángulo 127" width="18" height="2" transform="translate(2913.077 1551)"/>
        <circle id="Elipse_59-9" data-name="Elipse 59" cx="1" cy="1" r="1" transform="translate(2912.077 1551)"/>
        <circle id="Elipse_60-9" data-name="Elipse 60" cx="1" cy="1" r="1" transform="translate(2930.077 1551)"/>
      </g>
      <g id="Grupo_1451-5" data-name="Grupo 1451" transform="matrix(0.799, 0.602, -0.602, 0.799, 1542.728, -1422.032)">
        <rect id="Rectángulo_127-10" data-name="Rectángulo 127" width="18" height="2" transform="translate(2913.077 1551)"/>
        <circle id="Elipse_59-10" data-name="Elipse 59" cx="1" cy="1" r="1" transform="translate(2912.077 1551)"/>
        <circle id="Elipse_60-10" data-name="Elipse 60" cx="1" cy="1" r="1" transform="translate(2930.077 1551)"/>
      </g>
    </g>
    <rect id="Rectángulo_132" data-name="Rectángulo 132" width="26" height="26" transform="translate(3054 1562)" fill="none"/>
    <g id="Grupo_1458" data-name="Grupo 1458" transform="translate(-0.334 22)">
      <g id="Grupo_1451-6" data-name="Grupo 1451" transform="translate(2154.57 -1627.188) rotate(46)">
        <rect id="Rectángulo_127-11" data-name="Rectángulo 127" width="18" height="2" transform="translate(2913.077 1551)"/>
        <circle id="Elipse_59-11" data-name="Elipse 59" cx="1" cy="1" r="1" transform="translate(2912.077 1551)"/>
        <circle id="Elipse_60-11" data-name="Elipse 60" cx="1" cy="1" r="1" transform="translate(2930.077 1551)"/>
      </g>
      <g id="Grupo_1457" data-name="Grupo 1457" transform="matrix(0.695, -0.719, 0.719, 0.695, 3060.334, 1559.386)">
        <rect id="Rectángulo_127-12" data-name="Rectángulo 127" width="18" height="2" transform="translate(1 0)"/>
        <ellipse id="Elipse_59-12" data-name="Elipse 59" cx="1" cy="1" rx="1" ry="1" transform="translate(0 0)"/>
        <ellipse id="Elipse_60-12" data-name="Elipse 60" cx="1" cy="1" rx="1" ry="1" transform="translate(18 0)"/>
      </g>
    </g>
  </g>
</svg>
