<svg xmlns="http://www.w3.org/2000/svg" width="71.92" height="71.92" viewBox="0 0 71.92 71.92">
  <g id="Grupo_1445" data-name="Grupo 1445" transform="translate(-55 -314)">
    <path id="Trazado_254" data-name="Trazado 254" d="M35.96,0A35.96,35.96,0,1,1,0,35.96,35.96,35.96,0,0,1,35.96,0Z" transform="translate(55 314)" fill="#33bafb"/>
    <path id="iconfinder_back-alt_134226" d="M46.522,19.7H13.644l7.911-7.911a3.246,3.246,0,0,0,.993-2.363A3.464,3.464,0,0,0,19.124,6a3.23,3.23,0,0,0-2.363.993L3.134,20.62A3.283,3.283,0,0,0,2,23.124,3.1,3.1,0,0,0,3.106,25.6L16.761,39.254a3.23,3.23,0,0,0,2.363.993,3.463,3.463,0,0,0,3.425-3.425,3.246,3.246,0,0,0-.993-2.363l-7.911-7.911H46.522a3.425,3.425,0,0,0,0-6.85Z" transform="translate(64.987 326.836)" fill="#fff"/>
  </g>
</svg>
