<svg xmlns="http://www.w3.org/2000/svg" width="31.034" height="31.029" viewBox="0 0 31.034 31.029">
  <path id="favorite" d="M18.326,2.9l3.44,7.485a1.582,1.582,0,0,0,1.047.9l7.778,1.2a1.356,1.356,0,0,1,.9,2.4L25.8,20.72a2.091,2.091,0,0,0-.449,1.347L26.7,30.151A1.5,1.5,0,0,1,24.608,31.8l-7.03-3.892a1.121,1.121,0,0,0-1.346,0L9.2,31.8a1.444,1.444,0,0,1-2.094-1.647l1.346-8.084a1.51,1.51,0,0,0-.449-1.347L2.321,14.881a1.556,1.556,0,0,1,.9-2.545L11,11.139a1.283,1.283,0,0,0,1.047-.9l3.44-7.485A1.622,1.622,0,0,1,18.326,2.9Z" transform="translate(-1.44 -1.486)" fill="none" stroke="#000" stroke-width="1"/>
</svg>
