<svg id="iconfinder_Email_4550857" xmlns="http://www.w3.org/2000/svg" width="100" height="100" viewBox="0 0 100 100">
  <path id="Trazado_257" data-name="Trazado 257" d="M50,100h0a50,50,0,0,0,50-50h0A50,50,0,0,0,50,0h0A50,50,0,0,0,0,50H0A50,50,0,0,0,50,100Z" fill="#33bafb" fill-rule="evenodd"/>
  <path id="Trazado_258" data-name="Trazado 258" d="M18,27V55.316A2.69,2.69,0,0,0,20.681,58.1H64.868a2.7,2.7,0,0,0,2.681-2.789V27a2.721,2.721,0,0,0-2.681-3H20.681A2.7,2.7,0,0,0,18,27m4.074,2.466A.986.986,0,0,1,23.147,28.4c.408,0,16.465,10.174,17.437,10.771L43.1,40.731c.8-.534,1.6-.99,2.423-1.544C47.2,38.11,62.2,28.4,62.615,28.4a.985.985,0,0,1,1.073,1.073c0,.723-1.392,1.44-2.3,1.994C55.694,34.934,50,38.718,44.361,42.318c-.329.223-.966.7-1.444.626-.532-.082-16.871-10.579-19.844-12.327-.447-.263-1-.5-1-1.147" transform="translate(7 9.333)" fill="#fff" fill-rule="evenodd"/>
</svg>
