<svg xmlns="http://www.w3.org/2000/svg" width="71.92" height="71.92" viewBox="0 0 71.92 71.92">
  <g id="Grupo_1454" data-name="Grupo 1454" transform="translate(-54.96 -310.08)">
    <path id="Trazado_254" data-name="Trazado 254" d="M35.96,0A35.96,35.96,0,1,1,0,35.96,35.96,35.96,0,0,1,35.96,0Z" transform="translate(54.96 310.08)" fill="#fd2c25"/>
    <g id="Grupo_1455" data-name="Grupo 1455" transform="translate(41.114 296.234)">
      <g id="Grupo_1452" data-name="Grupo 1452" transform="translate(33.374 33.374)">
        <path id="Trazado_256" data-name="Trazado 256" d="M56.357,50.158l9.3-9.3a4.384,4.384,0,1,0-6.2-6.2l-9.3,9.3-9.3-9.3a4.384,4.384,0,1,0-6.2,6.2l9.3,9.3-9.3,9.3a4.384,4.384,0,1,0,6.2,6.2l9.3-9.3,9.3,9.3a4.384,4.384,0,1,0,6.2-6.2Z" transform="translate(-33.374 -33.374)" fill="#fff"/>
      </g>
    </g>
  </g>
</svg>
