<svg xmlns="http://www.w3.org/2000/svg" width="6990" height="466" viewBox="0 0 6990 466">
  <g id="Grupo_1463" data-name="Grupo 1463" transform="translate(6759 -3511)">
    <rect id="Rectángulo_133" data-name="Rectángulo 133" width="466" height="466" transform="translate(-6759 3511)" fill="none"/>
    <g id="Grupo_1459" data-name="Grupo 1459" transform="translate(-6705.197 3663.408)">
      <g id="Grupo_1450" data-name="Grupo 1450" transform="translate(-0.001)">
        <rect id="Rectángulo_127" data-name="Rectángulo 127" width="323" height="36" transform="translate(18.198 -0.408)"/>
        <circle id="Elipse_59" data-name="Elipse 59" cx="18" cy="18" r="18" transform="translate(0.198 -0.408)"/>
        <ellipse id="Elipse_60" data-name="Elipse 60" cx="17.5" cy="18" rx="17.5" ry="18" transform="translate(323.198 -0.408)"/>
      </g>
      <g id="Grupo_1451" data-name="Grupo 1451" transform="translate(-0.001 125.54)">
        <rect id="Rectángulo_127-2" data-name="Rectángulo 127" width="323" height="36" transform="translate(18.198 0.052)"/>
        <circle id="Elipse_59-2" data-name="Elipse 59" cx="18" cy="18" r="18" transform="translate(0.198 0.052)"/>
        <ellipse id="Elipse_60-2" data-name="Elipse 60" cx="17.5" cy="18" rx="17.5" ry="18" transform="translate(323.198 0.052)"/>
      </g>
    </g>
    <rect id="Rectángulo_133-2" data-name="Rectángulo 133" width="466" height="466" transform="translate(-6293 3511)" fill="none"/>
    <g id="Grupo_1459-2" data-name="Grupo 1459" transform="translate(-6239.197 3663.408)">
      <g id="Grupo_1450-2" data-name="Grupo 1450" transform="translate(-0.001 -5)">
        <rect id="Rectángulo_127-3" data-name="Rectángulo 127" width="323" height="36" transform="translate(18.198 -0.408)"/>
        <circle id="Elipse_59-3" data-name="Elipse 59" cx="18" cy="18" r="18" transform="translate(0.198 -0.408)"/>
        <ellipse id="Elipse_60-3" data-name="Elipse 60" cx="17.5" cy="18" rx="17.5" ry="18" transform="translate(323.198 -0.408)"/>
      </g>
      <g id="Grupo_1451-2" data-name="Grupo 1451" transform="translate(-0.001 130.54)">
        <rect id="Rectángulo_127-4" data-name="Rectángulo 127" width="323" height="36" transform="translate(18.198 0.052)"/>
        <circle id="Elipse_59-4" data-name="Elipse 59" cx="18" cy="18" r="18" transform="translate(0.198 0.052)"/>
        <ellipse id="Elipse_60-4" data-name="Elipse 60" cx="17.5" cy="18" rx="17.5" ry="18" transform="translate(323.198 0.052)"/>
      </g>
    </g>
    <rect id="Rectángulo_133-3" data-name="Rectángulo 133" width="466" height="466" transform="translate(-5827 3511)" fill="none"/>
    <g id="Grupo_1459-3" data-name="Grupo 1459" transform="translate(-5773.197 3663.408)">
      <g id="Grupo_1450-3" data-name="Grupo 1450" transform="translate(-0.001 -13)">
        <rect id="Rectángulo_127-5" data-name="Rectángulo 127" width="323" height="36" transform="translate(18.198 -0.408)"/>
        <circle id="Elipse_59-5" data-name="Elipse 59" cx="18" cy="18" r="18" transform="translate(0.198 -0.408)"/>
        <ellipse id="Elipse_60-5" data-name="Elipse 60" cx="17.5" cy="18" rx="17.5" ry="18" transform="translate(323.198 -0.408)"/>
      </g>
      <g id="Grupo_1451-3" data-name="Grupo 1451" transform="translate(-0.001 138.54)">
        <rect id="Rectángulo_127-6" data-name="Rectángulo 127" width="323" height="36" transform="translate(18.198 0.052)"/>
        <circle id="Elipse_59-6" data-name="Elipse 59" cx="18" cy="18" r="18" transform="translate(0.198 0.052)"/>
        <ellipse id="Elipse_60-6" data-name="Elipse 60" cx="17.5" cy="18" rx="17.5" ry="18" transform="translate(323.198 0.052)"/>
      </g>
    </g>
    <rect id="Rectángulo_133-4" data-name="Rectángulo 133" width="466" height="466" transform="translate(-5361 3511)" fill="none"/>
    <g id="Grupo_1459-4" data-name="Grupo 1459" transform="translate(-5307.197 3663.408)">
      <g id="Grupo_1450-4" data-name="Grupo 1450" transform="translate(-0.001 -27)">
        <rect id="Rectángulo_127-7" data-name="Rectángulo 127" width="323" height="36" transform="translate(18.198 -0.408)"/>
        <circle id="Elipse_59-7" data-name="Elipse 59" cx="18" cy="18" r="18" transform="translate(0.198 -0.408)"/>
        <ellipse id="Elipse_60-7" data-name="Elipse 60" cx="17.5" cy="18" rx="17.5" ry="18" transform="translate(323.198 -0.408)"/>
      </g>
      <g id="Grupo_1451-4" data-name="Grupo 1451" transform="translate(-0.001 153.54)">
        <rect id="Rectángulo_127-8" data-name="Rectángulo 127" width="323" height="36" transform="translate(18.198 0.052)"/>
        <circle id="Elipse_59-8" data-name="Elipse 59" cx="18" cy="18" r="18" transform="translate(0.198 0.052)"/>
        <ellipse id="Elipse_60-8" data-name="Elipse 60" cx="17.5" cy="18" rx="17.5" ry="18" transform="translate(323.198 0.052)"/>
      </g>
    </g>
    <rect id="Rectángulo_133-5" data-name="Rectángulo 133" width="466" height="466" transform="translate(-4895 3511)" fill="none"/>
    <g id="Grupo_1459-5" data-name="Grupo 1459" transform="translate(-4841.197 3663.408)">
      <g id="Grupo_1450-5" data-name="Grupo 1450" transform="translate(-0.001 -24)">
        <rect id="Rectángulo_127-9" data-name="Rectángulo 127" width="323" height="36" transform="translate(18.198 -0.408)"/>
        <circle id="Elipse_59-9" data-name="Elipse 59" cx="18" cy="18" r="18" transform="translate(0.198 -0.408)"/>
        <ellipse id="Elipse_60-9" data-name="Elipse 60" cx="17.5" cy="18" rx="17.5" ry="18" transform="translate(323.198 -0.408)"/>
      </g>
      <g id="Grupo_1451-5" data-name="Grupo 1451" transform="translate(-0.001 150.54)">
        <rect id="Rectángulo_127-10" data-name="Rectángulo 127" width="323" height="36" transform="translate(18.198 0.052)"/>
        <circle id="Elipse_59-10" data-name="Elipse 59" cx="18" cy="18" r="18" transform="translate(0.198 0.052)"/>
        <ellipse id="Elipse_60-10" data-name="Elipse 60" cx="17.5" cy="18" rx="17.5" ry="18" transform="translate(323.198 0.052)"/>
      </g>
    </g>
    <rect id="Rectángulo_133-6" data-name="Rectángulo 133" width="466" height="466" transform="translate(-4429 3511)" fill="none"/>
    <g id="Grupo_1459-6" data-name="Grupo 1459" transform="translate(-4375.197 3663.408)">
      <g id="Grupo_1450-6" data-name="Grupo 1450" transform="translate(-0.001 -16)">
        <rect id="Rectángulo_127-11" data-name="Rectángulo 127" width="323" height="36" transform="translate(18.198 -0.408)"/>
        <circle id="Elipse_59-11" data-name="Elipse 59" cx="18" cy="18" r="18" transform="translate(0.198 -0.408)"/>
        <ellipse id="Elipse_60-11" data-name="Elipse 60" cx="17.5" cy="18" rx="17.5" ry="18" transform="translate(323.198 -0.408)"/>
      </g>
      <g id="Grupo_1451-6" data-name="Grupo 1451" transform="translate(-0.001 142.54)">
        <rect id="Rectángulo_127-12" data-name="Rectángulo 127" width="323" height="36" transform="translate(18.198 0.052)"/>
        <circle id="Elipse_59-12" data-name="Elipse 59" cx="18" cy="18" r="18" transform="translate(0.198 0.052)"/>
        <ellipse id="Elipse_60-12" data-name="Elipse 60" cx="17.5" cy="18" rx="17.5" ry="18" transform="translate(323.198 0.052)"/>
      </g>
    </g>
    <rect id="Rectángulo_133-7" data-name="Rectángulo 133" width="466" height="466" transform="translate(-3963 3511)" fill="none"/>
    <g id="Grupo_1459-7" data-name="Grupo 1459" transform="translate(-3909.197 3663.408)">
      <g id="Grupo_1450-7" data-name="Grupo 1450" transform="translate(-0.001 -4)">
        <rect id="Rectángulo_127-13" data-name="Rectángulo 127" width="323" height="36" transform="translate(18.198 -0.408)"/>
        <circle id="Elipse_59-13" data-name="Elipse 59" cx="18" cy="18" r="18" transform="translate(0.198 -0.408)"/>
        <ellipse id="Elipse_60-13" data-name="Elipse 60" cx="17.5" cy="18" rx="17.5" ry="18" transform="translate(323.198 -0.408)"/>
      </g>
      <g id="Grupo_1451-7" data-name="Grupo 1451" transform="translate(-0.001 129.54)">
        <rect id="Rectángulo_127-14" data-name="Rectángulo 127" width="323" height="36" transform="translate(18.198 0.052)"/>
        <circle id="Elipse_59-14" data-name="Elipse 59" cx="18" cy="18" r="18" transform="translate(0.198 0.052)"/>
        <ellipse id="Elipse_60-14" data-name="Elipse 60" cx="17.5" cy="18" rx="17.5" ry="18" transform="translate(323.198 0.052)"/>
      </g>
    </g>
    <rect id="Rectángulo_133-8" data-name="Rectángulo 133" width="466" height="466" transform="translate(-3497 3511)" fill="none"/>
    <g id="Grupo_1459-8" data-name="Grupo 1459" transform="translate(-3441.197 3665.408)">
      <g id="Grupo_1450-8" data-name="Grupo 1450" transform="translate(-2.001 13)">
        <rect id="Rectángulo_127-15" data-name="Rectángulo 127" width="323" height="36" transform="translate(18.198 -0.408)"/>
        <circle id="Elipse_59-15" data-name="Elipse 59" cx="18" cy="18" r="18" transform="translate(0.198 -0.408)"/>
        <ellipse id="Elipse_60-15" data-name="Elipse 60" cx="17.5" cy="18" rx="17.5" ry="18" transform="translate(323.198 -0.408)"/>
      </g>
      <g id="Grupo_1451-8" data-name="Grupo 1451" transform="translate(-2.001 108.54)">
        <rect id="Rectángulo_127-16" data-name="Rectángulo 127" width="323" height="36" transform="translate(18.198 0.052)"/>
        <circle id="Elipse_59-16" data-name="Elipse 59" cx="18" cy="18" r="18" transform="translate(0.198 0.052)"/>
        <ellipse id="Elipse_60-16" data-name="Elipse 60" cx="17.5" cy="18" rx="17.5" ry="18" transform="translate(323.198 0.052)"/>
      </g>
    </g>
    <rect id="Rectángulo_133-9" data-name="Rectángulo 133" width="466" height="466" transform="translate(-3031 3511)" fill="none"/>
    <g id="Grupo_1459-9" data-name="Grupo 1459" transform="translate(-2975.197 3665.408)">
      <g id="Grupo_1450-9" data-name="Grupo 1450" transform="translate(-2.001 41)">
        <rect id="Rectángulo_127-17" data-name="Rectángulo 127" width="323" height="36" transform="translate(18.198 -0.408)"/>
        <circle id="Elipse_59-17" data-name="Elipse 59" cx="18" cy="18" r="18" transform="translate(0.198 -0.408)"/>
        <ellipse id="Elipse_60-17" data-name="Elipse 60" cx="17.5" cy="18" rx="17.5" ry="18" transform="translate(323.198 -0.408)"/>
      </g>
      <g id="Grupo_1451-9" data-name="Grupo 1451" transform="translate(-2.001 81.54)">
        <rect id="Rectángulo_127-18" data-name="Rectángulo 127" width="323" height="36" transform="translate(18.198 0.052)"/>
        <circle id="Elipse_59-18" data-name="Elipse 59" cx="18" cy="18" r="18" transform="translate(0.198 0.052)"/>
        <ellipse id="Elipse_60-18" data-name="Elipse 60" cx="17.5" cy="18" rx="17.5" ry="18" transform="translate(323.198 0.052)"/>
      </g>
    </g>
    <rect id="Rectángulo_133-10" data-name="Rectángulo 133" width="466" height="466" transform="translate(-2565 3511)" fill="none"/>
    <g id="Grupo_1459-10" data-name="Grupo 1459" transform="translate(-2509.197 3685.408)">
      <g id="Grupo_1450-10" data-name="Grupo 1450" transform="translate(-2.001 41)">
        <rect id="Rectángulo_127-19" data-name="Rectángulo 127" width="323" height="36" transform="translate(18.198 -0.408)"/>
        <circle id="Elipse_59-19" data-name="Elipse 59" cx="18" cy="18" r="18" transform="translate(0.198 -0.408)"/>
        <ellipse id="Elipse_60-19" data-name="Elipse 60" cx="17.5" cy="18" rx="17.5" ry="18" transform="translate(323.198 -0.408)"/>
      </g>
      <g id="Grupo_1451-10" data-name="Grupo 1451" transform="translate(-2.001 40.54)">
        <rect id="Rectángulo_127-20" data-name="Rectángulo 127" width="323" height="36" transform="translate(18.198 0.052)"/>
        <circle id="Elipse_59-20" data-name="Elipse 59" cx="18" cy="18" r="18" transform="translate(0.198 0.052)"/>
        <ellipse id="Elipse_60-20" data-name="Elipse 60" cx="17.5" cy="18" rx="17.5" ry="18" transform="translate(323.198 0.052)"/>
      </g>
    </g>
    <rect id="Rectángulo_133-11" data-name="Rectángulo 133" width="466" height="466" transform="translate(-2099 3511)" fill="none"/>
    <g id="Grupo_1459-11" data-name="Grupo 1459" transform="translate(-2043.197 3685.408)">
      <g id="Grupo_1450-11" data-name="Grupo 1450" transform="matrix(0.996, -0.087, 0.087, 0.996, -2.852, 56.685)">
        <rect id="Rectángulo_127-21" data-name="Rectángulo 127" width="323" height="36" transform="translate(18.198 -0.408)"/>
        <circle id="Elipse_59-21" data-name="Elipse 59" cx="18" cy="18" r="18" transform="translate(0.198 -0.408)"/>
        <ellipse id="Elipse_60-21" data-name="Elipse 60" cx="17.5" cy="18" rx="17.5" ry="18" transform="translate(323.198 -0.408)"/>
      </g>
      <g id="Grupo_1451-11" data-name="Grupo 1451" transform="matrix(0.996, 0.087, -0.087, 0.996, 0.254, 24.991)">
        <rect id="Rectángulo_127-22" data-name="Rectángulo 127" width="323" height="36" transform="translate(18.198 0.052)"/>
        <circle id="Elipse_59-22" data-name="Elipse 59" cx="18" cy="18" r="18" transform="translate(0.198 0.052)"/>
        <ellipse id="Elipse_60-22" data-name="Elipse 60" cx="17.5" cy="18" rx="17.5" ry="18" transform="translate(323.198 0.052)"/>
      </g>
    </g>
    <rect id="Rectángulo_133-12" data-name="Rectángulo 133" width="466" height="466" transform="translate(-1633 3511)" fill="none"/>
    <g id="Grupo_1459-12" data-name="Grupo 1459" transform="translate(-1577.197 3685.408)">
      <g id="Grupo_1450-12" data-name="Grupo 1450" transform="matrix(0.966, -0.259, 0.259, 0.966, -0.448, 87.979)">
        <rect id="Rectángulo_127-23" data-name="Rectángulo 127" width="323" height="36" transform="translate(18.198 -0.408)"/>
        <circle id="Elipse_59-23" data-name="Elipse 59" cx="18" cy="18" r="18" transform="translate(0.198 -0.408)"/>
        <ellipse id="Elipse_60-23" data-name="Elipse 60" cx="17.5" cy="18" rx="17.5" ry="18" transform="translate(323.198 -0.408)"/>
      </g>
      <g id="Grupo_1451-12" data-name="Grupo 1451" transform="matrix(0.966, 0.259, -0.259, 0.966, 8.777, -5.225)">
        <rect id="Rectángulo_127-24" data-name="Rectángulo 127" width="323" height="36" transform="translate(18.198 0.052)"/>
        <circle id="Elipse_59-24" data-name="Elipse 59" cx="18" cy="18" r="18" transform="translate(0.198 0.052)"/>
        <ellipse id="Elipse_60-24" data-name="Elipse 60" cx="17.5" cy="18" rx="17.5" ry="18" transform="translate(323.198 0.052)"/>
      </g>
    </g>
    <rect id="Rectángulo_133-13" data-name="Rectángulo 133" width="466" height="466" transform="translate(-1167 3511)" fill="none"/>
    <g id="Grupo_1459-13" data-name="Grupo 1459" transform="translate(-1111.197 3685.408)">
      <g id="Grupo_1450-13" data-name="Grupo 1450" transform="translate(13.211 132.956) rotate(-30)">
        <rect id="Rectángulo_127-25" data-name="Rectángulo 127" width="323" height="36" transform="translate(18.198 -0.408)"/>
        <circle id="Elipse_59-25" data-name="Elipse 59" cx="18" cy="18" r="18" transform="translate(0.198 -0.408)"/>
        <ellipse id="Elipse_60-25" data-name="Elipse 60" cx="17.5" cy="18" rx="17.5" ry="18" transform="translate(323.198 -0.408)"/>
      </g>
      <g id="Grupo_1451-13" data-name="Grupo 1451" transform="translate(31.033 -46.64) rotate(30)">
        <rect id="Rectángulo_127-26" data-name="Rectángulo 127" width="323" height="36" transform="translate(18.198 0.052)"/>
        <circle id="Elipse_59-26" data-name="Elipse 59" cx="18" cy="18" r="18" transform="translate(0.198 0.052)"/>
        <ellipse id="Elipse_60-26" data-name="Elipse 60" cx="17.5" cy="18" rx="17.5" ry="18" transform="translate(323.198 0.052)"/>
      </g>
    </g>
    <rect id="Rectángulo_133-14" data-name="Rectángulo 133" width="466" height="466" transform="translate(-701 3511)" fill="none"/>
    <g id="Grupo_1459-14" data-name="Grupo 1459" transform="translate(-645.197 3685.408)">
      <g id="Grupo_1450-14" data-name="Grupo 1450" transform="translate(28.616 160.302) rotate(-40)">
        <rect id="Rectángulo_127-27" data-name="Rectángulo 127" width="323" height="36" transform="translate(18.198 -0.408)"/>
        <circle id="Elipse_59-27" data-name="Elipse 59" cx="18" cy="18" r="18" transform="translate(0.198 -0.408)"/>
        <ellipse id="Elipse_60-27" data-name="Elipse 60" cx="17.5" cy="18" rx="17.5" ry="18" transform="translate(323.198 -0.408)"/>
      </g>
      <g id="Grupo_1451-14" data-name="Grupo 1451" transform="translate(51.527 -70.423) rotate(40)">
        <rect id="Rectángulo_127-28" data-name="Rectángulo 127" width="323" height="36" transform="translate(18.198 0.052)"/>
        <circle id="Elipse_59-28" data-name="Elipse 59" cx="18" cy="18" r="18" transform="translate(0.198 0.052)"/>
        <ellipse id="Elipse_60-28" data-name="Elipse 60" cx="17.5" cy="18" rx="17.5" ry="18" transform="translate(323.198 0.052)"/>
      </g>
    </g>
    <rect id="Rectángulo_133-15" data-name="Rectángulo 133" width="466" height="466" transform="translate(-235 3511)" fill="none"/>
    <g id="Grupo_1459-15" data-name="Grupo 1459" transform="translate(-178.897 3685.708)">
      <g id="Grupo_1450-15" data-name="Grupo 1450" transform="translate(38.046 172.865) rotate(-45)">
        <rect id="Rectángulo_127-29" data-name="Rectángulo 127" width="323" height="36" transform="translate(18.198 -0.408)"/>
        <circle id="Elipse_59-29" data-name="Elipse 59" cx="18" cy="18" r="18" transform="translate(0.198 -0.408)"/>
        <ellipse id="Elipse_60-29" data-name="Elipse 60" cx="17.5" cy="18" rx="17.5" ry="18" transform="translate(323.198 -0.408)"/>
      </g>
      <g id="Grupo_1451-15" data-name="Grupo 1451" transform="translate(63.25 -80.885) rotate(45)">
        <rect id="Rectángulo_127-30" data-name="Rectángulo 127" width="323" height="36" transform="translate(18.198 0.052)"/>
        <circle id="Elipse_59-30" data-name="Elipse 59" cx="18" cy="18" r="18" transform="translate(0.198 0.052)"/>
        <ellipse id="Elipse_60-30" data-name="Elipse 60" cx="17.5" cy="18" rx="17.5" ry="18" transform="translate(323.198 0.052)"/>
      </g>
    </g>
  </g>
</svg>
