<svg xmlns="http://www.w3.org/2000/svg" width="71.92" height="71.92" viewBox="0 0 71.92 71.92">
  <g id="Grupo_1445" data-name="Grupo 1445" transform="translate(-55 -314)">
    <path id="Trazado_254" data-name="Trazado 254" d="M35.96,0A35.96,35.96,0,1,1,0,35.96,35.96,35.96,0,0,1,35.96,0Z" transform="translate(55 314)" fill="#33bafb"/>
    <g id="icons" transform="translate(62.95 325.577)">
      <path id="check" d="M22.383,42.765a6.049,6.049,0,0,1-4.289-1.838L5.838,28.672a5.923,5.923,0,0,1,0-8.579,5.921,5.921,0,0,1,8.579,0l7.966,7.966L42.6,7.838a5.923,5.923,0,0,1,8.579,0,5.923,5.923,0,0,1,0,8.579l-24.51,24.51A6.049,6.049,0,0,1,22.383,42.765Z" transform="translate(0 0)" fill="#fff5f5"/>
    </g>
  </g>
</svg>
