<svg xmlns="http://www.w3.org/2000/svg" width="58.162" height="57.965" viewBox="0 0 58.162 57.965">
  <g id="XMLID_2_" transform="translate(0 0.025)">
    <rect id="XMLID_23_" width="53.121" height="41.229" transform="translate(2.415 16.711)"/>
    <path id="XMLID_22_" d="M19.427,4.88,27.878.292a2.234,2.234,0,0,1,2.294,0L38.684,4.88h11.53a2.375,2.375,0,0,1,1.932.905l5.614,7.183A2.287,2.287,0,0,1,58,15.5a2.341,2.341,0,0,1-2.173,1.328H2.706A2.341,2.341,0,0,1,.533,15.5a2.4,2.4,0,0,1,.241-2.535L6.389,5.785A2.375,2.375,0,0,1,8.32,4.88Z" transform="translate(-0.111 0)" fill-rule="evenodd"/>
    <path id="XMLID_21_" d="M52.146,59.535H28V10.459L40.013,4l12.133,6.519Z" transform="translate(-11.098 -1.595)" fill-rule="evenodd"/>
    <rect id="XMLID_20_" width="57.95" height="2.415" transform="translate(0 55.526)"/>
    <path id="XMLID_19_" d="M75.665,77.491h5.493V62.4H71.5V77.491Z" transform="translate(-28.339 -24.742)" fill="#fff" fill-rule="evenodd"/>
    <rect id="XMLID_18_" width="4.829" height="4.829" transform="translate(45.575 45.505)"/>
    <rect id="XMLID_17_" width="4.829" height="3.018" transform="translate(45.575 40.072)"/>
    <path id="XMLID_16_" d="M12.165,77.491h5.493V62.4H8V77.491Z" transform="translate(-3.171 -24.742)" fill="#fff" fill-rule="evenodd"/>
    <rect id="XMLID_15_" width="4.829" height="4.829" transform="translate(7.244 45.505)"/>
    <rect id="XMLID_14_" width="4.829" height="3.018" transform="translate(7.244 40.072)"/>
    <rect id="XMLID_13_" width="16.902" height="22.939" transform="translate(20.524 32.587)" fill="#fff"/>
    <rect id="XMLID_12_" width="12.073" height="20.524" transform="translate(22.939 35.002)"/>
    <path id="XMLID_11_" d="M75.665,47.091h5.493V32H71.5V47.091Z" transform="translate(-28.339 -12.693)" fill="#fff" fill-rule="evenodd"/>
    <rect id="XMLID_10_" width="4.829" height="4.829" transform="translate(45.575 27.154)"/>
    <rect id="XMLID_9_" width="4.829" height="3.018" transform="translate(45.575 21.721)"/>
    <path id="XMLID_8_" d="M12.165,47.091h5.493V32H8V47.091Z" transform="translate(-3.171 -12.693)" fill="#fff" fill-rule="evenodd"/>
    <rect id="XMLID_7_" width="4.829" height="4.829" transform="translate(7.244 27.154)"/>
    <rect id="XMLID_6_" width="4.829" height="3.018" transform="translate(7.244 21.721)"/>
    <path id="XMLID_5_" d="M44.165,35.091h5.493V20H40V35.091Z" transform="translate(-15.854 -7.937)" fill="#fff" fill-rule="evenodd"/>
    <rect id="XMLID_4_" width="4.829" height="4.829" transform="translate(26.56 19.91)"/>
    <rect id="XMLID_3_" width="4.829" height="3.018" transform="translate(26.56 14.478)"/>
  </g>
</svg>
