<svg xmlns="http://www.w3.org/2000/svg" width="10" height="10" viewBox="0 0 10 10">
  <g id="iconfinder_Search_4781817" transform="translate(-0.051 -0.051)">
    <g id="Layer_2" data-name="Layer 2" transform="translate(0.947 0.947)">
      <path id="Trazado_111" data-name="Trazado 111" d="M6.157,9.314A3.157,3.157,0,1,1,9.314,6.157,3.157,3.157,0,0,1,6.157,9.314Zm0-5.682A2.526,2.526,0,1,0,8.682,6.157,2.526,2.526,0,0,0,6.157,3.631Z" transform="translate(-3 -3)"/>
      <path id="Trazado_112" data-name="Trazado 112" d="M21.838,22.154a.316.316,0,0,1-.224-.092l-2.526-2.526a.317.317,0,0,1,.448-.448l2.526,2.526a.316.316,0,0,1-.224.54Z" transform="translate(-13.946 -13.946)"/>
    </g>
    <g id="frame">
      <rect id="Rectángulo_44" data-name="Rectángulo 44" width="10" height="10" transform="translate(0.051 0.051)" fill="none"/>
    </g>
  </g>
</svg>
