<svg xmlns="http://www.w3.org/2000/svg" xmlns:xlink="http://www.w3.org/1999/xlink" width="253.347" height="65.367" viewBox="0 0 253.347 65.367">
  <defs>
    <style>
      .cls-1 {
        fill: url(#linear-gradient);
      }

      .cls-2 {
        fill: url(#linear-gradient-2);
      }

      .cls-3 {
        fill: url(#linear-gradient-3);
      }

      .cls-4 {
        fill: #f35632;
      }

      .cls-5 {
        fill: #a429a5;
      }

      .cls-6 {
        fill: #feb90a;
      }
    </style>
    <linearGradient id="linear-gradient" x1="0.092" y1="0.909" x2="0.907" y2="0.09" gradientUnits="objectBoundingBox">
      <stop offset="0" stop-color="#ffc107"/>
      <stop offset="0.221" stop-color="#f98d1c"/>
      <stop offset="0.514" stop-color="#f1423b"/>
      <stop offset="0.833" stop-color="#b93088"/>
      <stop offset="0.994" stop-color="#9c27b0"/>
    </linearGradient>
    <linearGradient id="linear-gradient-2" x1="0.147" y1="0.854" x2="0.853" y2="0.146" xlink:href="#linear-gradient"/>
    <linearGradient id="linear-gradient-3" x1="0.147" y1="0.854" x2="0.853" y2="0.146" xlink:href="#linear-gradient"/>
  </defs>
  <g id="Grupo_441" data-name="Grupo 441" transform="translate(91.922 -255)">
    <g id="_x36_2-instagram" transform="translate(95.777 255)">
      <g id="Grupo_216" data-name="Grupo 216" transform="translate(0 0)">
        <path id="Trazado_171" data-name="Trazado 171" class="cls-1" d="M68.011,22H43.428A20.381,20.381,0,0,0,23,42.377V66.848A20.5,20.5,0,0,0,43.428,87.367H68.011A20.68,20.68,0,0,0,88.648,66.848V42.377A20.56,20.56,0,0,0,68.011,22ZM82.463,66.848A14.471,14.471,0,0,1,68.011,81.182H43.428A14.412,14.412,0,0,1,29.045,66.848V42.377A14.411,14.411,0,0,1,43.428,28.045H68.011A14.471,14.471,0,0,1,82.463,42.377Z" transform="translate(-23 -22)"/>
        <path id="Trazado_172" data-name="Trazado 172" class="cls-2" d="M155.563,137.947a16.314,16.314,0,1,0,16.388,16.314A16.352,16.352,0,0,0,155.563,137.947Zm0,26.51a10.2,10.2,0,1,1,10.242-10.2A10.233,10.233,0,0,1,155.563,164.457Z" transform="translate(-122.844 -121.648)"/>
        <path id="Trazado_173" data-name="Trazado 173" class="cls-3" d="M367.726,113.779a2.174,2.174,0,1,0,2.183,2.174A2.179,2.179,0,0,0,367.726,113.779Z" transform="translate(-317.389 -100.877)"/>
      </g>
    </g>
    <path id="Trazado_216" data-name="Trazado 216" class="cls-4" d="M9.976-16.182a6.441,6.441,0,0,1,4.7,1.755,6.753,6.753,0,0,1,1.8,5.06V0h-2.61V-8.99a5.11,5.11,0,0,0-1.189-3.639,4.248,4.248,0,0,0-3.248-1.262A4.35,4.35,0,0,0,6.1-12.586a5.331,5.331,0,0,0-1.233,3.8V0H2.233V-15.892H4.872v2.262A5.239,5.239,0,0,1,7-15.515,6.612,6.612,0,0,1,9.976-16.182ZM27.724.261A8.136,8.136,0,0,1,23.678-.754a7.226,7.226,0,0,1-2.842-2.885,8.847,8.847,0,0,1-1.03-4.336,8.592,8.592,0,0,1,1.059-4.306,7.294,7.294,0,0,1,2.885-2.871,8.371,8.371,0,0,1,4.089-1,8.371,8.371,0,0,1,4.089,1A7.319,7.319,0,0,1,34.814-12.3a8.571,8.571,0,0,1,1.059,4.321,8.469,8.469,0,0,1-1.088,4.336A7.538,7.538,0,0,1,31.842-.754,8.44,8.44,0,0,1,27.724.261Zm0-2.32a5.572,5.572,0,0,0,2.668-.667,5.075,5.075,0,0,0,2.016-2,6.409,6.409,0,0,0,.768-3.248,6.508,6.508,0,0,0-.754-3.248A4.937,4.937,0,0,0,30.45-13.21a5.5,5.5,0,0,0-2.639-.652,5.477,5.477,0,0,0-2.654.652,4.784,4.784,0,0,0-1.928,1.987A6.72,6.72,0,0,0,22.5-7.975,6.9,6.9,0,0,0,23.215-4.7a4.722,4.722,0,0,0,1.9,1.986A5.336,5.336,0,0,0,27.724-2.059Z" transform="translate(-13.575 295)"/>
    <path id="Trazado_217" data-name="Trazado 217" class="cls-5" d="M7.859.261A8.22,8.22,0,0,1,4.582-.363,5.528,5.528,0,0,1,2.291-2.1a4.63,4.63,0,0,1-.928-2.567H4.089A2.675,2.675,0,0,0,5.206-2.726a4.249,4.249,0,0,0,2.625.754,3.819,3.819,0,0,0,2.378-.667,2.038,2.038,0,0,0,.87-1.682,1.659,1.659,0,0,0-.928-1.551,13.011,13.011,0,0,0-2.871-1,21.1,21.1,0,0,1-2.885-.942A5.12,5.12,0,0,1,2.48-9.237a3.709,3.709,0,0,1-.8-2.479,3.757,3.757,0,0,1,.725-2.233,4.915,4.915,0,0,1,2.059-1.609,7.409,7.409,0,0,1,3.045-.595,6.5,6.5,0,0,1,4.263,1.334,4.806,4.806,0,0,1,1.74,3.654H10.875a2.727,2.727,0,0,0-1-2,3.731,3.731,0,0,0-2.451-.754,3.78,3.78,0,0,0-2.262.609,1.882,1.882,0,0,0-.841,1.595,1.748,1.748,0,0,0,.508,1.291A3.707,3.707,0,0,0,6.1-9.613a21.985,21.985,0,0,0,2.132.681,22.958,22.958,0,0,1,2.784.914A4.869,4.869,0,0,1,12.862-6.67a3.606,3.606,0,0,1,.8,2.349,4.022,4.022,0,0,1-.725,2.349A4.835,4.835,0,0,1,10.889-.333,7.308,7.308,0,0,1,7.859.261ZM39.614-8.555a15.531,15.531,0,0,1-.087,1.595h-12.7a5.138,5.138,0,0,0,1.609,3.668,5.119,5.119,0,0,0,3.552,1.319,4.88,4.88,0,0,0,2.856-.8A4.222,4.222,0,0,0,36.453-4.9h2.842a6.832,6.832,0,0,1-2.552,3.727A7.7,7.7,0,0,1,31.987.261,8.033,8.033,0,0,1,27.942-.754a7.185,7.185,0,0,1-2.8-2.885,8.949,8.949,0,0,1-1.015-4.336,9.077,9.077,0,0,1,.986-4.321,6.922,6.922,0,0,1,2.77-2.856,8.244,8.244,0,0,1,4.1-1,7.976,7.976,0,0,1,4,.986,6.827,6.827,0,0,1,2.683,2.711A8,8,0,0,1,39.614-8.555Zm-2.726-.551a4.868,4.868,0,0,0-.667-2.6,4.337,4.337,0,0,0-1.812-1.653,5.653,5.653,0,0,0-2.538-.566,4.891,4.891,0,0,0-3.407,1.276,5.2,5.2,0,0,0-1.61,3.538Zm13.949-7.076a6.441,6.441,0,0,1,4.7,1.755,6.753,6.753,0,0,1,1.8,5.06V0h-2.61V-8.99a5.11,5.11,0,0,0-1.189-3.639,4.248,4.248,0,0,0-3.248-1.262,4.35,4.35,0,0,0-3.32,1.305,5.331,5.331,0,0,0-1.232,3.8V0H43.094V-15.892h2.639v2.262a5.239,5.239,0,0,1,2.132-1.885A6.612,6.612,0,0,1,50.837-16.182Z" transform="translate(23.425 295)"/>
    <path id="Trazado_215" data-name="Trazado 215" class="cls-6" d="M8.642.2A8.645,8.645,0,0,1,5.061-.507,5.968,5.968,0,0,1,2.581-2.48a5.052,5.052,0,0,1-.928-2.914H4.466A3.7,3.7,0,0,0,5.641-3a4.215,4.215,0,0,0,3,.972,4.386,4.386,0,0,0,2.972-.943A3.059,3.059,0,0,0,12.7-5.394a2.748,2.748,0,0,0-.638-1.885,4.076,4.076,0,0,0-1.6-1.1,24.922,24.922,0,0,0-2.581-.812,22.731,22.731,0,0,1-3.2-1.044,5.161,5.161,0,0,1-2.059-1.639,4.813,4.813,0,0,1-.855-3,5.2,5.2,0,0,1,.841-2.929,5.479,5.479,0,0,1,2.363-1.972,8.321,8.321,0,0,1,3.494-.7,7.319,7.319,0,0,1,4.655,1.421,5.249,5.249,0,0,1,2.045,3.77h-2.9a3.128,3.128,0,0,0-1.218-2.045,4.327,4.327,0,0,0-2.842-.884,4.117,4.117,0,0,0-2.7.855,2.921,2.921,0,0,0-1.044,2.393,2.593,2.593,0,0,0,.623,1.8,4.02,4.02,0,0,0,1.537,1.059q.914.363,2.567.826a24.1,24.1,0,0,1,3.219,1.087A5.369,5.369,0,0,1,14.5-8.54a4.807,4.807,0,0,1,.87,3.03,5.322,5.322,0,0,1-.783,2.784,5.755,5.755,0,0,1-2.32,2.117A7.656,7.656,0,0,1,8.642.2ZM20.619-18.473a1.736,1.736,0,0,1-1.276-.522,1.736,1.736,0,0,1-.522-1.276,1.736,1.736,0,0,1,.522-1.276,1.736,1.736,0,0,1,1.276-.522,1.655,1.655,0,0,1,1.233.522,1.761,1.761,0,0,1,.507,1.276,1.761,1.761,0,0,1-.507,1.276A1.655,1.655,0,0,1,20.619-18.473ZM21.9-15.892V0H19.256V-15.892Zm11.049-.261a7.072,7.072,0,0,1,3.611.9,5.966,5.966,0,0,1,2.306,2.262v-2.9h2.668V.348A7.935,7.935,0,0,1,40.6,4.22a6.614,6.614,0,0,1-2.653,2.654,8.147,8.147,0,0,1-4.016.957,8.807,8.807,0,0,1-5.22-1.479A5.78,5.78,0,0,1,26.245,2.32h2.61a4.152,4.152,0,0,0,1.8,2.335,5.889,5.889,0,0,0,3.277.885,4.836,4.836,0,0,0,3.552-1.363A5.144,5.144,0,0,0,38.86.348V-2.987a6.351,6.351,0,0,1-2.32,2.32,6.822,6.822,0,0,1-3.6.928A7.279,7.279,0,0,1,29.1-.783,7.288,7.288,0,0,1,26.39-3.712,9.122,9.122,0,0,1,25.4-8a8.927,8.927,0,0,1,.986-4.278A7.154,7.154,0,0,1,29.1-15.138,7.437,7.437,0,0,1,32.944-16.153ZM38.86-7.975a6.461,6.461,0,0,0-.725-3.132,5.12,5.12,0,0,0-1.958-2.045,5.333,5.333,0,0,0-2.711-.71,5.34,5.34,0,0,0-2.7.7,5.049,5.049,0,0,0-1.943,2.03A6.461,6.461,0,0,0,28.1-8a6.61,6.61,0,0,0,.725,3.175A5.129,5.129,0,0,0,30.769-2.77a5.255,5.255,0,0,0,2.7.711,5.333,5.333,0,0,0,2.711-.711,5.1,5.1,0,0,0,1.958-2.059A6.546,6.546,0,0,0,38.86-7.975Zm21.228-7.917V0H57.449V-2.349a5.138,5.138,0,0,1-2.1,1.9,6.5,6.5,0,0,1-2.973.682,7.125,7.125,0,0,1-3.335-.768A5.587,5.587,0,0,1,46.7-2.842a7.59,7.59,0,0,1-.855-3.741v-9.309h2.61v8.961a5.066,5.066,0,0,0,1.189,3.61A4.248,4.248,0,0,0,52.9-2.059a4.34,4.34,0,0,0,3.335-1.3,5.372,5.372,0,0,0,1.218-3.8v-8.729ZM79.054-8.555a15.529,15.529,0,0,1-.087,1.595h-12.7a5.138,5.138,0,0,0,1.609,3.668,5.119,5.119,0,0,0,3.553,1.319,4.88,4.88,0,0,0,2.856-.8A4.222,4.222,0,0,0,75.893-4.9h2.842a6.832,6.832,0,0,1-2.552,3.727A7.7,7.7,0,0,1,71.427.261,8.033,8.033,0,0,1,67.382-.754a7.185,7.185,0,0,1-2.8-2.885,8.949,8.949,0,0,1-1.015-4.336,9.077,9.077,0,0,1,.986-4.321,6.922,6.922,0,0,1,2.77-2.856,8.244,8.244,0,0,1,4.1-1,7.976,7.976,0,0,1,4,.986,6.827,6.827,0,0,1,2.682,2.711A8,8,0,0,1,79.054-8.555Zm-2.726-.551a4.868,4.868,0,0,0-.667-2.6,4.337,4.337,0,0,0-1.812-1.653,5.653,5.653,0,0,0-2.537-.566A4.891,4.891,0,0,0,67.9-12.644a5.2,5.2,0,0,0-1.609,3.538Z" transform="translate(-93.575 295)"/>
  </g>
</svg>
