<svg xmlns="http://www.w3.org/2000/svg" width="69" height="69" viewBox="0 0 69 69">
  <g id="Grupo_1921" data-name="Grupo 1921" transform="translate(-88 -8616)">
    <rect id="Rectángulo_245" data-name="Rectángulo 245" width="69" height="69" transform="translate(88 8616)" fill="none"/>
    <g id="Grupo_1920" data-name="Grupo 1920" transform="translate(-36.613 8326.164)">
      <path id="Trazado_12" data-name="Trazado 12" d="M42.053,45.6a60.542,60.542,0,0,1-.132-6.166c1.069-.561,2.985-4.138,3.309-7.159.841-.069,2.166-.889,2.554-4.127a3.023,3.023,0,0,0-1.129-3.024C48.023,21.01,50.864,8.283,41.4,6.967c-.974-1.711-3.468-2.576-6.709-2.576C21.722,4.63,20.158,14.183,23,25.124a3.029,3.029,0,0,0-1.129,3.024c.39,3.238,1.714,4.058,2.554,4.127.322,3.02,2.314,6.6,3.386,7.159a60.556,60.556,0,0,1-.133,6.166C25.113,52.5,7.8,50.563,7,63.868H62.656C61.858,50.563,44.619,52.5,42.053,45.6Z" transform="translate(124.285 294.967)"/>
    </g>
  </g>
</svg>
