<svg xmlns="http://www.w3.org/2000/svg" width="192.485" height="45.057" viewBox="0 0 192.485 45.057">
  <g id="_2-jugadores.icon" data-name="2-jugadores.icon" transform="translate(-68.479 -1080.5)">
    <g id="Grupo_1861" data-name="Grupo 1861">
      <g id="categoria-en-pareja" transform="translate(52.418 1068.836)">
        <g id="icons" transform="translate(16.582 12.164)">
          <path id="favorite" d="M26,3.334l5.052,10.983a2.322,2.322,0,0,0,1.538,1.318l11.422,1.757a1.989,1.989,0,0,1,1.318,3.515l-8.347,8.567a3.066,3.066,0,0,0-.659,1.977L38.3,43.312c.22,1.757-1.538,3.295-3.075,2.416L24.9,40.017a1.647,1.647,0,0,0-1.977,0L12.6,45.729a2.12,2.12,0,0,1-3.075-2.416L11.5,31.45a2.214,2.214,0,0,0-.659-1.977L2.493,20.907A2.282,2.282,0,0,1,3.81,17.172l11.422-1.757A1.884,1.884,0,0,0,16.771,14.1L21.823,3.114A2.382,2.382,0,0,1,26,3.334Z" transform="translate(-1.956 -1.987)" fill="none" stroke="#000" stroke-width="1"/>
        </g>
      </g>
      <path id="Trazado_458" data-name="Trazado 458" d="M5.325,0A1.049,1.049,0,0,1,4.55-.3a.988.988,0,0,1-.3-.725V-15.25l.3.35-2.9,1.75a1.012,1.012,0,0,1-.5.125.936.936,0,0,1-.725-.337,1.035,1.035,0,0,1-.3-.687.99.99,0,0,1,.525-.875L4.725-17.35a1.319,1.319,0,0,1,.75-.15.849.849,0,0,1,.675.288,1.047,1.047,0,0,1,.25.712V-1.025A.988.988,0,0,1,6.1-.3,1.049,1.049,0,0,1,5.325,0Z" transform="translate(86 1114)"/>
    </g>
    <g id="Grupo_280" data-name="Grupo 280" transform="translate(93.058 787.875)">
      <path id="Trazado_13" data-name="Trazado 13" d="M25.648,26.249c-.02-.224-.035-.583-.047-.955,3.386-.347,5.76-1.159,5.76-2.1-.009,0-.009-.039-.009-.055-2.531-2.281,2.194-18.488-6.6-18.159a4.475,4.475,0,0,0-2.906-.883c-11.914.9-6.646,16.207-9.361,19.1h-.005s0,0,0,0v0h0c.011.926,2.306,1.724,5.593,2.079-.009.226-.029.506-.072.974-1.365,3.67-10.576,2.64-11,9.718H36.609C36.184,28.888,27.013,29.919,25.648,26.249Z" transform="translate(131.297 295.033)" fill="#787878"/>
      <path id="Trazado_12" data-name="Trazado 12" d="M25.648,26.315a32.208,32.208,0,0,1-.07-3.28c.569-.3,1.588-2.2,1.76-3.809.447-.037,1.152-.473,1.359-2.2a1.608,1.608,0,0,0-.6-1.609c.728-2.189,2.239-8.96-2.8-9.659-.518-.91-1.845-1.371-3.569-1.371-6.9.127-7.731,5.21-6.219,11.03a1.611,1.611,0,0,0-.6,1.609c.207,1.723.912,2.159,1.359,2.2a6.406,6.406,0,0,0,1.8,3.809A32.216,32.216,0,0,1,18,26.315c-1.365,3.67-10.576,2.64-11,9.718H36.609C36.184,28.955,27.013,29.985,25.648,26.315Z" transform="translate(124.285 294.967)"/>
    </g>
    <path id="Trazado_459" data-name="Trazado 459" d="M6.325.25A5.1,5.1,0,0,1,3.563-.525,5.459,5.459,0,0,1,1.625-2.6a1.144,1.144,0,0,1-.175-.575.841.841,0,0,1,.325-.687,1.035,1.035,0,0,1,.65-.263.942.942,0,0,1,.512.15A1.605,1.605,0,0,1,3.35-3.6,4.068,4.068,0,0,0,4.6-2.25a3.037,3.037,0,0,0,1.725.5A3.588,3.588,0,0,0,8.138-2.2a3.361,3.361,0,0,0,1.25-1.237A3.463,3.463,0,0,0,9.85-5.225V-16.5a.929.929,0,0,1,.313-.712,1.085,1.085,0,0,1,.762-.288,1,1,0,0,1,.738.288.968.968,0,0,1,.287.712V-5.225a5.359,5.359,0,0,1-.737,2.775,5.413,5.413,0,0,1-2,1.975A5.694,5.694,0,0,1,6.325.25ZM25.65-12.925a.957.957,0,0,1,.725.287.991.991,0,0,1,.275.713V-5.1a5.236,5.236,0,0,1-1.413,3.912A5.378,5.378,0,0,1,21.3.2a5.343,5.343,0,0,1-3.912-1.388A5.236,5.236,0,0,1,15.975-5.1v-6.825a.968.968,0,0,1,.288-.713.968.968,0,0,1,.712-.287.957.957,0,0,1,.725.287.991.991,0,0,1,.275.713V-5.1a3.491,3.491,0,0,0,.875,2.575,3.312,3.312,0,0,0,2.45.875,3.339,3.339,0,0,0,2.488-.875A3.522,3.522,0,0,0,24.65-5.1v-6.825a.968.968,0,0,1,.288-.713A.968.968,0,0,1,25.65-12.925Zm9.75-.325a5.5,5.5,0,0,1,2.025.362,5.773,5.773,0,0,1,1.612.938,5.073,5.073,0,0,1,1.075,1.2A2.252,2.252,0,0,1,40.5-9.575l-.5-.3V-12.05a.968.968,0,0,1,.287-.713A.968.968,0,0,1,41-13.05a.957.957,0,0,1,.725.287A.991.991,0,0,1,42-12.05V-1.1a6.267,6.267,0,0,1-.862,3.413,5.285,5.285,0,0,1-2.312,2.025A7.67,7.67,0,0,1,35.6,5a8.322,8.322,0,0,1-1.662-.187,9.054,9.054,0,0,1-1.612-.475,1.8,1.8,0,0,1-.875-.587,1.153,1.153,0,0,1-.463-.575.675.675,0,0,1,.088-.575.685.685,0,0,1,.6-.363,3.1,3.1,0,0,1,.9.213q.25.075.725.25a8.465,8.465,0,0,0,1.1.313,5.691,5.691,0,0,0,1.225.138,4.46,4.46,0,0,0,3.25-1.1A3.937,3.937,0,0,0,40-.9V-3.225l.275.125a3.3,3.3,0,0,1-.6,1.3A4.835,4.835,0,0,1,38.563-.738a5.528,5.528,0,0,1-1.475.725A5.3,5.3,0,0,1,35.45.25a5.758,5.758,0,0,1-3.138-.875,6.247,6.247,0,0,1-2.2-2.4A7.276,7.276,0,0,1,29.3-6.5a7.33,7.33,0,0,1,.813-3.5A6.186,6.186,0,0,1,32.3-12.387,5.712,5.712,0,0,1,35.4-13.25Zm.275,1.85a4.186,4.186,0,0,0-2.3.637A4.474,4.474,0,0,0,31.8-9.025,5.371,5.371,0,0,0,31.225-6.5,5.337,5.337,0,0,0,31.8-4.013,4.546,4.546,0,0,0,33.375-2.25a4.126,4.126,0,0,0,2.3.65,4.186,4.186,0,0,0,2.3-.637A4.474,4.474,0,0,0,39.55-3.975,5.371,5.371,0,0,0,40.125-6.5a5.427,5.427,0,0,0-.575-2.55,4.381,4.381,0,0,0-1.575-1.725A4.248,4.248,0,0,0,35.675-11.4ZM56.1-13.05a.957.957,0,0,1,.725.287.991.991,0,0,1,.275.713V-1.025a1.01,1.01,0,0,1-.287.725A.947.947,0,0,1,56.1,0a.947.947,0,0,1-.713-.3,1.01,1.01,0,0,1-.287-.725V-3.4l.475-.05a2.434,2.434,0,0,1-.375,1.2,4.757,4.757,0,0,1-1.025,1.213,5.562,5.562,0,0,1-1.525.925,4.915,4.915,0,0,1-1.9.362,5.489,5.489,0,0,1-3.062-.887A6.129,6.129,0,0,1,45.55-3.05a7.563,7.563,0,0,1-.775-3.475,7.444,7.444,0,0,1,.788-3.487,6.125,6.125,0,0,1,2.125-2.375A5.439,5.439,0,0,1,50.7-13.25a5.605,5.605,0,0,1,2,.35,5.253,5.253,0,0,1,1.613.95,4.516,4.516,0,0,1,1.063,1.325,3.132,3.132,0,0,1,.375,1.45l-.65-.15V-12.05a.968.968,0,0,1,.287-.713A.968.968,0,0,1,56.1-13.05ZM50.95-1.6a3.86,3.86,0,0,0,2.213-.65,4.466,4.466,0,0,0,1.513-1.763,5.594,5.594,0,0,0,.55-2.512,5.536,5.536,0,0,0-.55-2.487,4.372,4.372,0,0,0-1.513-1.75A3.914,3.914,0,0,0,50.95-11.4a3.928,3.928,0,0,0-2.187.625A4.3,4.3,0,0,0,47.25-9.05a5.573,5.573,0,0,0-.55,2.525,5.593,5.593,0,0,0,.55,2.512A4.466,4.466,0,0,0,48.762-2.25,3.818,3.818,0,0,0,50.95-1.6ZM71.325-18.5a.957.957,0,0,1,.725.288.991.991,0,0,1,.275.712V-1.025a1.01,1.01,0,0,1-.288.725.947.947,0,0,1-.713.3.947.947,0,0,1-.712-.3,1.01,1.01,0,0,1-.288-.725V-3.4l.475-.175a2.637,2.637,0,0,1-.363,1.263,4.53,4.53,0,0,1-1.025,1.237,5.827,5.827,0,0,1-1.537.95,4.772,4.772,0,0,1-1.9.375,5.485,5.485,0,0,1-3.05-.875,6.164,6.164,0,0,1-2.137-2.4A7.464,7.464,0,0,1,60-6.5a7.52,7.52,0,0,1,.788-3.5,6.1,6.1,0,0,1,2.125-2.387,5.439,5.439,0,0,1,3.013-.862,5.433,5.433,0,0,1,1.962.35,5.457,5.457,0,0,1,1.613.95,4.615,4.615,0,0,1,1.088,1.325,3.052,3.052,0,0,1,.387,1.45l-.65-.15V-17.5a.968.968,0,0,1,.288-.712A.968.968,0,0,1,71.325-18.5ZM66.175-1.6A3.9,3.9,0,0,0,68.4-2.237a4.409,4.409,0,0,0,1.5-1.75A5.594,5.594,0,0,0,70.45-6.5a5.573,5.573,0,0,0-.55-2.525,4.391,4.391,0,0,0-1.513-1.738,3.914,3.914,0,0,0-2.212-.637,3.872,3.872,0,0,0-2.188.637,4.391,4.391,0,0,0-1.512,1.738,5.573,5.573,0,0,0-.55,2.525,5.536,5.536,0,0,0,.55,2.487A4.466,4.466,0,0,0,63.987-2.25,3.818,3.818,0,0,0,66.175-1.6Zm22-4.9a7.016,7.016,0,0,1-.85,3.475,6.337,6.337,0,0,1-2.312,2.4A6.326,6.326,0,0,1,81.7.25a6.279,6.279,0,0,1-3.287-.875,6.431,6.431,0,0,1-2.325-2.4A6.935,6.935,0,0,1,75.225-6.5a6.935,6.935,0,0,1,.862-3.475,6.431,6.431,0,0,1,2.325-2.4A6.279,6.279,0,0,1,81.7-13.25a6.326,6.326,0,0,1,3.313.875,6.337,6.337,0,0,1,2.313,2.4A7.016,7.016,0,0,1,88.175-6.5Zm-2,0a5.332,5.332,0,0,0-.588-2.55,4.44,4.44,0,0,0-1.6-1.725A4.266,4.266,0,0,0,81.7-11.4a4.285,4.285,0,0,0-2.275.625A4.409,4.409,0,0,0,77.813-9.05a5.332,5.332,0,0,0-.587,2.55,5.277,5.277,0,0,0,.587,2.525,4.5,4.5,0,0,0,1.613,1.737A4.221,4.221,0,0,0,81.7-1.6a4.2,4.2,0,0,0,2.287-.637,4.534,4.534,0,0,0,1.6-1.737A5.277,5.277,0,0,0,86.175-6.5Zm5.9,6.5a.947.947,0,0,1-.713-.3,1.01,1.01,0,0,1-.287-.725v-10.9a.968.968,0,0,1,.287-.713.968.968,0,0,1,.713-.287.957.957,0,0,1,.725.287.991.991,0,0,1,.275.713v3.3l-.3-.525a5.479,5.479,0,0,1,.537-1.512,5.283,5.283,0,0,1,.987-1.325,4.539,4.539,0,0,1,1.375-.925,4.212,4.212,0,0,1,1.7-.337,2.016,2.016,0,0,1,1.012.262.813.813,0,0,1,.463.738,1,1,0,0,1-.275.775.9.9,0,0,1-.625.25,1.484,1.484,0,0,1-.625-.137,1.8,1.8,0,0,0-.75-.137,2.54,2.54,0,0,0-1.237.337,3.9,3.9,0,0,0-1.125.963,5.285,5.285,0,0,0-.825,1.412A4.533,4.533,0,0,0,93.075-7.1v6.075a1.01,1.01,0,0,1-.287.725A.947.947,0,0,1,92.075,0Z" transform="translate(117 1111.5)"/>
  </g>
</svg>
