<svg xmlns="http://www.w3.org/2000/svg" width="129.482" height="24.079" viewBox="0 0 129.482 24.079">
  <g id="Grupo_1456" data-name="Grupo 1456" transform="translate(-3.769 0.5)">
    <text id="_2" data-name="2" transform="translate(39.25 16.679)" font-size="12" font-family="Quicksand-Regular, Quicksand"><tspan x="0" y="0">2</tspan></text>
    <text id="jugadores" transform="translate(59.25 16.679)" font-size="15" font-family="Quicksand-Regular, Quicksand"><tspan x="0" y="0">jugadores</tspan></text>
    <g id="icons" transform="translate(30.981 0)">
      <path id="favorite" d="M14.547,2.692l2.646,5.752a1.216,1.216,0,0,0,.805.69l5.982.92a1.042,1.042,0,0,1,.69,1.841L20.3,16.383a1.606,1.606,0,0,0-.345,1.035l1.035,6.212A1.155,1.155,0,0,1,19.379,24.9L13.971,21.9a.863.863,0,0,0-1.035,0L7.529,24.9a1.11,1.11,0,0,1-1.611-1.266l1.035-6.212a1.16,1.16,0,0,0-.345-1.035L2.237,11.9a1.2,1.2,0,0,1,.69-1.956l5.982-.92a.987.987,0,0,0,.805-.69l2.646-5.752A1.248,1.248,0,0,1,14.547,2.692Z" transform="translate(-1.956 -1.987)" fill="none" stroke="#272727" stroke-width="1"/>
    </g>
    <g id="Grupo_1518" data-name="Grupo 1518" transform="translate(-127.517 -293.997)">
      <path id="Trazado_13" data-name="Trazado 13" d="M15.835,14.589c-.01-.106-.017-.276-.022-.453,1.6-.164,2.729-.549,2.729-1,0,0,0-.018,0-.026-1.2-1.08,1.039-8.759-3.128-8.6a2.12,2.12,0,0,0-1.377-.418c-5.645.427-3.149,7.678-4.435,9.047h0v0h0c.005.439,1.092.817,2.65.985,0,.107-.014.24-.034.461-.647,1.739-5.01,1.251-5.212,4.6H21.027C20.826,15.839,16.481,16.327,15.835,14.589Z" transform="translate(127.607 295.033)" fill="#e2e2e2"/>
      <path id="Trazado_12" data-name="Trazado 12" d="M15.835,14.777a15.259,15.259,0,0,1-.033-1.554,3.042,3.042,0,0,0,.834-1.8c.212-.017.546-.224.644-1.04a.762.762,0,0,0-.285-.762c.345-1.037,1.061-4.245-1.324-4.576a1.876,1.876,0,0,0-1.691-.649c-3.268.06-3.663,2.468-2.946,5.226a.763.763,0,0,0-.285.762c.1.816.432,1.023.644,1.04a3.035,3.035,0,0,0,.853,1.8,15.263,15.263,0,0,1-.034,1.554c-.647,1.739-5.01,1.251-5.212,4.6H21.027C20.826,16.028,16.481,16.516,15.835,14.777Z" transform="translate(124.285 294.845)"/>
    </g>
  </g>
</svg>
