<svg xmlns="http://www.w3.org/2000/svg" width="28.627" height="27.73" viewBox="0 0 28.627 27.73">
  <g id="Grupo_1514" data-name="Grupo 1514" transform="translate(-154.855 -355)">
    <g id="icons" transform="translate(161.072 359.561)">
      <path id="favorite" d="M10.969,2.492,12.863,6.61a.871.871,0,0,0,.576.494l4.283.659a.746.746,0,0,1,.494,1.318l-3.13,3.212a1.15,1.15,0,0,0-.247.741l.741,4.447a.827.827,0,0,1-1.153.906l-3.871-2.141a.618.618,0,0,0-.741,0L5.945,18.387a.8.8,0,0,1-1.153-.906l.741-4.447a.83.83,0,0,0-.247-.741L2.157,9.08a.856.856,0,0,1,.494-1.4l4.283-.659a.706.706,0,0,0,.576-.494L9.4,2.409A.893.893,0,0,1,10.969,2.492Z" transform="translate(-1.956 -1.987)" fill="none" stroke="#000" stroke-width="1"/>
    </g>
    <path id="Trazado_312" data-name="Trazado 312" d="M3.381-4.648A.141.141,0,0,0,3.4-4.725.173.173,0,0,0,3.227-4.9H.938a.173.173,0,0,0-.175.175.173.173,0,0,0,.175.175H2.814L1.6-3.3a.177.177,0,0,0,0,.252H1.6a.183.183,0,0,0,.14.07,1.281,1.281,0,0,1,.924.385,1.281,1.281,0,0,1,.385.924,1.309,1.309,0,0,1-.385.931,1.331,1.331,0,0,1-.931.378A1.315,1.315,0,0,1,.812-.735a.169.169,0,0,0-.245,0,.169.169,0,0,0,0,.245A1.632,1.632,0,0,0,1.736,0,1.665,1.665,0,0,0,2.912-.49,1.636,1.636,0,0,0,3.4-1.666a1.658,1.658,0,0,0-.483-1.176,1.647,1.647,0,0,0-.84-.448l1.267-1.3A.152.152,0,0,0,3.381-4.648Z" transform="translate(167.331 371.365)"/>
    <g id="_x35_57_x2C__award_x2C__cup_x2C__prize_x2C__reward_x2C__victory" transform="translate(154.855 355)">
      <g id="Grupo_1375" data-name="Grupo 1375">
        <path id="Trazado_178" data-name="Trazado 178" d="M48.266,28.164a4.276,4.276,0,0,0,.438.622,4.477,4.477,0,0,0,.54.535,4.386,4.386,0,0,0,.628.43,4.32,4.32,0,0,0,1.408.492,4.23,4.23,0,0,0-.056-.736,4.3,4.3,0,0,0-.191-.737,4.375,4.375,0,0,0-.318-.691,4.289,4.289,0,0,0-1.6-1.588,4.208,4.208,0,0,0-.692-.31A4.343,4.343,0,0,0,47.7,26a4.247,4.247,0,0,0,.249,1.473A4.395,4.395,0,0,0,48.266,28.164Zm-7.607.622a4.186,4.186,0,0,0,.755-1.313,4.273,4.273,0,0,0,.192-.737A4.223,4.223,0,0,0,41.662,26a4.36,4.36,0,0,0-.717.181,4.2,4.2,0,0,0-.692.31,4.311,4.311,0,0,0-.626.431,4.255,4.255,0,0,0-.542.536,4.323,4.323,0,0,0-.437.621,4.375,4.375,0,0,0-.318.691,4.289,4.289,0,0,0-.191.737,4.234,4.234,0,0,0-.057.736,4.318,4.318,0,0,0,1.409-.492,4.383,4.383,0,0,0,.628-.43A4.456,4.456,0,0,0,40.659,28.787Zm-5.048,2.081c.233-.221.477-.432.728-.637.324-.264.662-.511,1.009-.743a.233.233,0,1,1,.257.388c-.337.224-.662.465-.974.718s-.59.5-.868.773c.024.1.045.194.063.291a4.693,4.693,0,0,1-.583,3.225,4.765,4.765,0,0,1-.482.669l-.007.007a4.694,4.694,0,0,1-1.073-3.9,4.7,4.7,0,0,1,1.065-2.228l.008-.007a4.721,4.721,0,0,1,.488.676,4.481,4.481,0,0,1,.362.753Zm-3.2,6.047,0,.012c.112.108.219.222.321.343a4.73,4.73,0,0,1,.482.683,4.854,4.854,0,0,1,.353.762,4.6,4.6,0,0,1,.21.805,4.71,4.71,0,0,1,.064.836,4.758,4.758,0,0,1-.086.827,4.689,4.689,0,0,1-.76-.339,4.623,4.623,0,0,1-.692-.472,4.7,4.7,0,0,1-1.068-1.261l-.01-.016a4.66,4.66,0,0,1-.538-3.225,4.682,4.682,0,0,1,.761.341,4.41,4.41,0,0,1,.578.382c.123-.393.263-.779.419-1.153a13.2,13.2,0,0,1,.619-1.284.233.233,0,0,1,.408.224,12.776,12.776,0,0,0-1.056,2.535Zm-.187,6.537a.242.242,0,0,1,.005.05,4.748,4.748,0,0,1,.623.176,4.845,4.845,0,0,1,.761.353,4.945,4.945,0,0,1,.684.482,4.705,4.705,0,0,1,1.4,2.045,4.621,4.621,0,0,1-.829.086,4.693,4.693,0,0,1-.834-.063,4.762,4.762,0,0,1-.808-.21,4.844,4.844,0,0,1-.761-.355,4.537,4.537,0,0,1-.683-.481,4.607,4.607,0,0,1-1.058-1.284,4.594,4.594,0,0,1-.341-.761,4.617,4.617,0,0,1,.829-.086,4.352,4.352,0,0,1,.529.023q-.143-.646-.222-1.306a13.232,13.232,0,0,1-.092-1.455.232.232,0,0,1,.465-.005,12.915,12.915,0,0,0,.333,2.789Zm3.151,5.866a.293.293,0,0,1,.037.052,4.7,4.7,0,0,1,3.228.018,4.849,4.849,0,0,1,.752.362,4.638,4.638,0,0,1,.668.483l.008.007a4.678,4.678,0,0,1-6.128.007l-.007-.007a4.632,4.632,0,0,1,.675-.49c.115-.068.233-.133.354-.19a13.438,13.438,0,0,1-1.726-2.326.232.232,0,0,1,.4-.235,12.889,12.889,0,0,0,.8,1.207A12.514,12.514,0,0,0,35.376,49.317ZM55.755,47a.232.232,0,0,1,.4.235,13.232,13.232,0,0,1-.831,1.252,13.379,13.379,0,0,1-.894,1.074c.122.057.24.122.356.19a4.83,4.83,0,0,1,.674.49l-.008.007a4.751,4.751,0,0,1-.668.482,4.672,4.672,0,0,1-4.031.361A4.592,4.592,0,0,1,50,50.727a4.669,4.669,0,0,1-.675-.488l.008-.007A4.694,4.694,0,0,1,50,49.749a4.891,4.891,0,0,1,.752-.362,4.7,4.7,0,0,1,3.228-.018.253.253,0,0,1,.038-.052A12.894,12.894,0,0,0,55.755,47ZM57.5,40.662a.233.233,0,0,1,.465.005,13.432,13.432,0,0,1-.093,1.455,13.025,13.025,0,0,1-.222,1.306,4.392,4.392,0,0,1,.531-.023,4.629,4.629,0,0,1,.829.086,4.663,4.663,0,0,1-1.4,2.045,4.555,4.555,0,0,1-.685.481,4.639,4.639,0,0,1-2.4.628,4.635,4.635,0,0,1-.829-.086,4.818,4.818,0,0,1,.341-.761A4.652,4.652,0,0,1,55.1,44.513a4.883,4.883,0,0,1,.685-.482,4.658,4.658,0,0,1,1.383-.529.233.233,0,0,1,.005-.05,12.916,12.916,0,0,0,.333-2.789ZM55.926,34.38a.233.233,0,1,1,.409-.224,13.238,13.238,0,0,1,.619,1.284c.156.375.3.761.418,1.154a4.468,4.468,0,0,1,.579-.382,4.664,4.664,0,0,1,.76-.341,4.793,4.793,0,0,1,.087.829,4.664,4.664,0,0,1-.065.834,4.567,4.567,0,0,1-.21.807,4.7,4.7,0,0,1-.351.755l-.01.016a4.786,4.786,0,0,1-.479.68,4.686,4.686,0,0,1-.59.581,4.528,4.528,0,0,1-.691.472,4.654,4.654,0,0,1-.761.339,4.668,4.668,0,0,1-.086-.827,4.8,4.8,0,0,1,.064-.836,4.671,4.671,0,0,1,.564-1.566,4.622,4.622,0,0,1,.482-.685,4.47,4.47,0,0,1,.32-.343l0-.013a12.7,12.7,0,0,0-1.057-2.535Zm-4.163-4.522a.232.232,0,1,1,.257-.388q.53.35,1.024.752.382.309.741.646l.006-.016a4.552,4.552,0,0,1,.361-.753,4.815,4.815,0,0,1,.49-.676l.007.007a4.8,4.8,0,0,1,.482.669,4.7,4.7,0,0,1,.583,3.225,4.638,4.638,0,0,1-.222.805,4.405,4.405,0,0,1-.361.753,4.616,4.616,0,0,1-.489.676l-.007-.007a4.679,4.679,0,0,1-.844-1.422,4.715,4.715,0,0,1-.222-2.472c.017-.1.038-.2.062-.291q-.422-.412-.881-.784C52.434,30.326,52.1,30.084,51.762,29.858Zm-8.5,23.873a13.027,13.027,0,0,1-1.937-.355A13.255,13.255,0,0,1,38.173,52.1a.233.233,0,0,1,.231-.406,12.6,12.6,0,0,0,3.035,1.232,12.911,12.911,0,0,0,6.517,0,12.619,12.619,0,0,0,3.035-1.232.233.233,0,0,1,.23.406,13.24,13.24,0,0,1-3.148,1.279,13.026,13.026,0,0,1-1.937.355Z" transform="translate(-30.384 -26.001)" fill-rule="evenodd"/>
      </g>
    </g>
  </g>
</svg>
