<svg id="Grupo_1492" data-name="Grupo 1492" xmlns="http://www.w3.org/2000/svg" width="49.291" height="47.746" viewBox="0 0 49.291 47.746">
  <g id="_x35_57_x2C__award_x2C__cup_x2C__prize_x2C__reward_x2C__victory">
    <g id="Grupo_1375" data-name="Grupo 1375">
      <path id="Trazado_178" data-name="Trazado 178" d="M61.174,29.726a7.361,7.361,0,0,0,.754,1.072,7.71,7.71,0,0,0,.93.921,7.552,7.552,0,0,0,1.081.741,7.438,7.438,0,0,0,2.424.846,7.283,7.283,0,0,0-.1-1.266,7.408,7.408,0,0,0-.329-1.269,7.534,7.534,0,0,0-.548-1.189,7.384,7.384,0,0,0-2.763-2.733,7.244,7.244,0,0,0-1.192-.534A7.478,7.478,0,0,0,60.2,26a7.313,7.313,0,0,0,.429,2.536A7.567,7.567,0,0,0,61.174,29.726ZM48.075,30.8a7.208,7.208,0,0,0,1.3-2.261,7.357,7.357,0,0,0,.33-1.269A7.272,7.272,0,0,0,49.8,26a7.507,7.507,0,0,0-1.234.312,7.233,7.233,0,0,0-1.192.534,7.423,7.423,0,0,0-1.078.741,7.326,7.326,0,0,0-.933.923,7.443,7.443,0,0,0-.752,1.069,7.534,7.534,0,0,0-.548,1.189,7.385,7.385,0,0,0-.329,1.269,7.29,7.29,0,0,0-.1,1.266,7.435,7.435,0,0,0,2.426-.846,7.547,7.547,0,0,0,1.081-.741A7.672,7.672,0,0,0,48.075,30.8ZM39.384,34.38c.4-.38.822-.744,1.254-1.1.558-.454,1.14-.88,1.737-1.279a.4.4,0,1,1,.443.667c-.581.386-1.14.8-1.677,1.235-.516.42-1.016.865-1.495,1.331.042.164.077.334.108.5a8.081,8.081,0,0,1-1,5.553,8.2,8.2,0,0,1-.831,1.152l-.012.012a8.082,8.082,0,0,1-1.847-6.718A8.088,8.088,0,0,1,37.894,31.9l.014-.012a8.129,8.129,0,0,1,.84,1.164,7.716,7.716,0,0,1,.624,1.3ZM33.877,44.792l-.008.021c.193.185.377.383.553.59a8.144,8.144,0,0,1,.829,1.177,8.357,8.357,0,0,1,.608,1.313,7.913,7.913,0,0,1,.362,1.387,8.109,8.109,0,0,1,.11,1.439,8.192,8.192,0,0,1-.148,1.424,8.073,8.073,0,0,1-1.308-.584,7.96,7.96,0,0,1-1.192-.812,8.089,8.089,0,0,1-1.839-2.171l-.017-.028a8.024,8.024,0,0,1-.927-5.553,8.061,8.061,0,0,1,1.31.587,7.593,7.593,0,0,1,1,.658c.212-.676.453-1.341.721-1.986a22.725,22.725,0,0,1,1.066-2.211.4.4,0,0,1,.7.386,22,22,0,0,0-1.818,4.364Zm-.323,11.255a.417.417,0,0,1,.009.087,8.176,8.176,0,0,1,1.073.3,8.343,8.343,0,0,1,1.31.608,8.514,8.514,0,0,1,1.178.831A8.1,8.1,0,0,1,39.534,61.4a7.956,7.956,0,0,1-1.427.148,8.08,8.08,0,0,1-1.436-.108,8.2,8.2,0,0,1-1.391-.361,8.34,8.34,0,0,1-1.309-.612,7.812,7.812,0,0,1-1.177-.828,7.932,7.932,0,0,1-1.822-2.211,7.91,7.91,0,0,1-.587-1.31,7.95,7.95,0,0,1,1.427-.148,7.494,7.494,0,0,1,.911.04q-.246-1.112-.381-2.249a22.783,22.783,0,0,1-.159-2.5.4.4,0,0,1,.8-.009,22.238,22.238,0,0,0,.573,4.8Zm5.425,10.1a.5.5,0,0,1,.063.089,8.091,8.091,0,0,1,5.558.031,8.349,8.349,0,0,1,1.3.624,7.985,7.985,0,0,1,1.15.831l.014.012a8.055,8.055,0,0,1-10.552.012l-.012-.012a7.975,7.975,0,0,1,1.163-.843c.2-.117.4-.229.61-.327A23.139,23.139,0,0,1,35.3,62.558a.4.4,0,0,1,.69-.4,22.193,22.193,0,0,0,1.382,2.079A21.545,21.545,0,0,0,38.98,66.146Zm35.09-3.994a.4.4,0,0,1,.69.4,22.783,22.783,0,0,1-1.432,2.156,23.037,23.037,0,0,1-1.54,1.85c.21.1.414.21.613.327a8.316,8.316,0,0,1,1.161.843l-.014.012a8.181,8.181,0,0,1-1.151.831,8.045,8.045,0,0,1-6.941.621,7.907,7.907,0,0,1-1.3-.624A8.039,8.039,0,0,1,63,67.734l.014-.012a8.082,8.082,0,0,1,1.15-.831,8.423,8.423,0,0,1,1.3-.624,8.086,8.086,0,0,1,5.558-.031.436.436,0,0,1,.065-.089,22.2,22.2,0,0,0,2.99-3.994Zm3.007-10.909a.4.4,0,0,1,.8.009,23.127,23.127,0,0,1-.161,2.5,22.429,22.429,0,0,1-.383,2.249,7.561,7.561,0,0,1,.914-.04,7.97,7.97,0,0,1,1.427.148,8.03,8.03,0,0,1-2.409,3.521,7.843,7.843,0,0,1-1.18.828,7.987,7.987,0,0,1-4.135,1.081,7.98,7.98,0,0,1-1.427-.148,8.3,8.3,0,0,1,.587-1.31,8.01,8.01,0,0,1,1.822-2.211,8.408,8.408,0,0,1,1.18-.831,8.02,8.02,0,0,1,2.381-.911.4.4,0,0,1,.009-.087,22.24,22.24,0,0,0,.573-4.8ZM74.362,40.428a.4.4,0,1,1,.7-.386,22.794,22.794,0,0,1,1.066,2.211c.269.645.51,1.31.72,1.986a7.693,7.693,0,0,1,1-.658,8.031,8.031,0,0,1,1.308-.587,8.251,8.251,0,0,1,.15,1.427,8.031,8.031,0,0,1-.111,1.436,7.864,7.864,0,0,1-.361,1.39,8.088,8.088,0,0,1-.6,1.3l-.017.028a8.242,8.242,0,0,1-.825,1.171,8.067,8.067,0,0,1-1.016,1,7.8,7.8,0,0,1-1.189.812,8.013,8.013,0,0,1-1.31.584,8.036,8.036,0,0,1-.148-1.424,8.257,8.257,0,0,1,.11-1.439,8.042,8.042,0,0,1,.971-2.7,7.957,7.957,0,0,1,.829-1.18,7.7,7.7,0,0,1,.551-.59l-.006-.022a21.875,21.875,0,0,0-1.819-4.365Zm-7.168-7.786a.4.4,0,1,1,.442-.667q.912.6,1.764,1.294.658.533,1.276,1.112l.011-.028a7.838,7.838,0,0,1,.622-1.3,8.29,8.29,0,0,1,.843-1.164l.012.012a8.27,8.27,0,0,1,.831,1.152,8.1,8.1,0,0,1,1,5.553A7.987,7.987,0,0,1,73.615,40a7.586,7.586,0,0,1-.622,1.3,7.948,7.948,0,0,1-.842,1.164l-.012-.012A8.057,8.057,0,0,1,70.686,40a8.119,8.119,0,0,1-.381-4.256c.029-.167.065-.337.107-.5q-.727-.709-1.517-1.35C68.35,33.448,67.78,33.031,67.194,32.641ZM52.552,73.747a22.431,22.431,0,0,1-3.336-.612,22.822,22.822,0,0,1-5.421-2.2.4.4,0,0,1,.4-.7,21.7,21.7,0,0,0,5.226,2.122,22.23,22.23,0,0,0,11.221,0,21.728,21.728,0,0,0,5.226-2.122.4.4,0,0,1,.4.7,22.8,22.8,0,0,1-5.421,2.2,22.429,22.429,0,0,1-3.336.612Z" transform="translate(-30.384 -26.001)" fill-rule="evenodd"/>
    </g>
  </g>
  <path id="Intersección_5" data-name="Intersección 5" d="M2.409,33.635A7.931,7.931,0,0,1,.587,31.423,7.907,7.907,0,0,1,0,30.114a7.949,7.949,0,0,1,1.427-.148,7.488,7.488,0,0,1,.911.04q-.246-1.112-.381-2.249a22.777,22.777,0,0,1-.159-2.5.4.4,0,0,1,.8-.009,22.236,22.236,0,0,0,.573,4.8.417.417,0,0,1,.009.087,8.176,8.176,0,0,1,1.073.3,8.339,8.339,0,0,1,1.309.608,8.508,8.508,0,0,1,1.178.831,8.1,8.1,0,0,1,.874.86c-1.577.605-3.018,1.131-4.282,1.577A7.813,7.813,0,0,1,2.409,33.635Zm2.082-8.077A7.959,7.959,0,0,1,3.3,24.745a8.089,8.089,0,0,1-1.839-2.171l-.017-.028a8.024,8.024,0,0,1-.927-5.553,8.058,8.058,0,0,1,1.309.587,7.6,7.6,0,0,1,1,.658c.212-.676.453-1.341.721-1.986a22.727,22.727,0,0,1,1.066-2.211.4.4,0,0,1,.7.386,22,22,0,0,0-1.818,4.364l-.008.022c.193.185.377.383.553.59a8.144,8.144,0,0,1,.829,1.177,8.358,8.358,0,0,1,.608,1.313,7.914,7.914,0,0,1,.362,1.387,8.108,8.108,0,0,1,.11,1.439A8.192,8.192,0,0,1,5.8,26.142,8.072,8.072,0,0,1,4.491,25.558Zm2.19-10.266a8.1,8.1,0,0,1-1-5.553A8.087,8.087,0,0,1,7.51,5.9l.014-.012a8.129,8.129,0,0,1,.84,1.164,7.717,7.717,0,0,1,.624,1.3L9,8.379c.4-.38.822-.744,1.254-1.1.558-.454,1.14-.88,1.737-1.279a.4.4,0,1,1,.443.667c-.581.386-1.14.8-1.677,1.235-.516.42-1.016.865-1.495,1.331.042.164.077.334.108.5A8.047,8.047,0,0,1,9.5,11.175a8.028,8.028,0,0,1-.127,1.433,8,8,0,0,1-.383,1.387,8.066,8.066,0,0,1-.621,1.3,8.2,8.2,0,0,1-.831,1.152l-.012.012A7.983,7.983,0,0,1,6.681,15.292Zm33.621-1.3a8.118,8.118,0,0,1-.381-4.256c.029-.167.065-.337.107-.5q-.727-.709-1.517-1.35c-.544-.442-1.114-.859-1.7-1.248a.4.4,0,1,1,.442-.667q.913.6,1.764,1.294.658.533,1.276,1.112l.011-.028a7.837,7.837,0,0,1,.622-1.3,8.293,8.293,0,0,1,.843-1.164l.012.012a8.272,8.272,0,0,1,.831,1.152,8.011,8.011,0,0,1,1.131,4.11c-1.028,1.1-2.131,2.157-3.3,3.187Q40.369,14.175,40.3,13.994Zm-5.555-7a7.24,7.24,0,0,1-1.192-.534,7.555,7.555,0,0,1-1.081-.741,7.712,7.712,0,0,1-.93-.921,7.363,7.363,0,0,1-.754-1.072,7.57,7.57,0,0,1-.547-1.189,7.4,7.4,0,0,1-.33-1.269A7.46,7.46,0,0,1,29.814,0a7.479,7.479,0,0,1,1.235.312,7.247,7.247,0,0,1,1.192.534A7.394,7.394,0,0,1,35,3.58a7.532,7.532,0,0,1,.548,1.189,7.406,7.406,0,0,1,.329,1.269,7.284,7.284,0,0,1,.1,1.266A7.19,7.19,0,0,1,34.746,6.993ZM13.353,6.038a7.382,7.382,0,0,1,.329-1.269A7.529,7.529,0,0,1,14.23,3.58a7.444,7.444,0,0,1,.752-1.069,7.331,7.331,0,0,1,.933-.923A7.424,7.424,0,0,1,16.993.846,7.231,7.231,0,0,1,18.185.312,7.508,7.508,0,0,1,19.419,0a7.27,7.27,0,0,1-.1,1.266,7.356,7.356,0,0,1-.33,1.269,7.514,7.514,0,0,1-.547,1.189A7.482,7.482,0,0,1,17.691,4.8a7.67,7.67,0,0,1-.93.92,7.543,7.543,0,0,1-1.081.741,7.236,7.236,0,0,1-1.192.534,7.2,7.2,0,0,1-1.234.312A7.286,7.286,0,0,1,13.353,6.038Z" opacity="0.1"/>
  <g id="Grupo_1377" data-name="Grupo 1377" transform="translate(14.085 14.598)">
    <path id="Unión_32" data-name="Unión 32" d="M.04,22.453c.5-3.426,4.942-8.822,4.161-9.665a.437.437,0,0,1-.074-.111Q.19,7.2.777,4.283c.571-2.832,3.869-.106,5.537.755a.658.658,0,0,0,.809-.4C7.187,3.483,7.32,0,10.965,0c4.282,0,3.716,4.809,3.887,4.994.342.373,8.238,1.966,8.1,5.239s-4.328,1.592-5.222,2.555c-.781.843,3.664,6.239,4.161,9.665.162,1.117-.154,1.333-1.248,1.333H15.018c-.788,0-1.068-.449-1.475-1.068-.9-1.37-1.987-3.573-2.579-3.573s-1.679,2.2-2.579,3.573c-.407.619-.687,1.069-1.475,1.069H1.288C.194,23.786-.122,23.57.04,22.453Z" transform="translate(0 0.021)" fill="#dbbf5f"/>
    <path id="Sustracción_5" data-name="Sustracción 5" d="M1.337,17.645h0c.228-.41.457-.81.679-1.2h0c.5-.879.977-1.708,1.267-2.349.321-.708.389-1.124.217-1.311a.44.44,0,0,1-.074-.111C2.772,11.768,2.205,10.9,1.74,10.1A17.481,17.481,0,0,1,.62,7.84,10.637,10.637,0,0,1,.272,6.831,7.545,7.545,0,0,1,.065,5.9,5.409,5.409,0,0,1,0,5.052a4.048,4.048,0,0,1,.076-.769A2.363,2.363,0,0,1,.268,3.7a1.307,1.307,0,0,1,.286-.388,1.041,1.041,0,0,1,.366-.215,1.337,1.337,0,0,1,.432-.066,3.77,3.77,0,0,1,1.563.46c.557.27,1.137.624,1.649.937h0c.383.234.745.455,1.049.613a.738.738,0,0,0,.2.028.593.593,0,0,0,.312-.086.833.833,0,0,0,.3-.345l0-.046V4.58a10.579,10.579,0,0,1,.123-1.223A6.321,6.321,0,0,1,6.723,2.6a4.686,4.686,0,0,1,.3-.763,3.559,3.559,0,0,1,.466-.707A3.038,3.038,0,0,1,8.158.546a3.268,3.268,0,0,1,.911-.4A4.551,4.551,0,0,1,10.259,0h.01A4.552,4.552,0,0,1,11.46.147a3.269,3.269,0,0,1,.911.4,3.038,3.038,0,0,1,.669.585,3.557,3.557,0,0,1,.465.707,4.683,4.683,0,0,1,.3.763,6.319,6.319,0,0,1,.174.755A10.583,10.583,0,0,1,14.1,4.579a1.332,1.332,0,0,0,.049.415,5.455,5.455,0,0,0,1.155.428c.573.183,1.286.412,2.049.7a18.343,18.343,0,0,1,2.3,1.015C18.9,7.8,18.114,8.452,17.3,9.081c-.771.6-1.581,1.186-2.407,1.75-.782.533-1.6,1.058-2.428,1.56-.78.472-1.591.936-2.411,1.379-1.479.8-3.033,1.556-4.62,2.249C4.1,16.6,2.718,17.151,1.337,17.645Z" transform="translate(0.697 0)" fill="#fff" opacity="0.1"/>
  </g>
  <g id="Grupo_1378" data-name="Grupo 1378" transform="translate(14.074 7.998)">
    <g id="Grupo_245" data-name="Grupo 245" transform="translate(0 0.015)">
      <g id="Grupo_219" data-name="Grupo 219" transform="translate(0 0)">
        <path id="Trazado_144" data-name="Trazado 144" d="M169.2,332h8.717v1.6q-5.122,6.132-5.192,12.358h-2.561l-.352-.517q2.584-8.035,4.934-11.184a24.259,24.259,0,0,0-5.451.07A6.739,6.739,0,0,1,169.2,332Z" transform="translate(-169.139 -332)" fill="#868484"/>
      </g>
    </g>
    <path id="Intersección_4" data-name="Intersección 4" d="M5.609,2.256a24.254,24.254,0,0,0-5.451.07A6.738,6.738,0,0,1,.064,0H8.781V1.6A20.677,20.677,0,0,0,3.7,12.244C2.8,12.5,1.846,12.72.851,12.9Q3.339,5.3,5.609,2.256Z" transform="translate(0)" fill="#fff" opacity="0.2"/>
  </g>
</svg>
