<svg id="Grupo_1382" data-name="Grupo 1382" xmlns="http://www.w3.org/2000/svg" width="118.636" height="27.629" viewBox="0 0 118.636 27.629">
  <path id="Trazado_310" data-name="Trazado 310" d="M4.62-8.344,1.33-.336a.551.551,0,0,1-.2.273.483.483,0,0,1-.294.1A.489.489,0,0,1,.448-.1.511.511,0,0,1,.322-.448.424.424,0,0,1,.35-.658l3.626-8.82a.533.533,0,0,1,.217-.287.532.532,0,0,1,.329-.077.58.58,0,0,1,.329.1.5.5,0,0,1,.2.266L8.666-.742a.634.634,0,0,1,.042.224.525.525,0,0,1-.168.406.545.545,0,0,1-.378.154.5.5,0,0,1-.308-.1.632.632,0,0,1-.21-.287L4.312-8.358ZM2.03-2.618,2.506-3.71H6.664l.21,1.092ZM18.466-7.364a.537.537,0,0,1,.385.154.536.536,0,0,1,.161.406,1.08,1.08,0,0,1-.007.119.351.351,0,0,1-.035.119l-2.156,6.2a.584.584,0,0,1-.231.287A.477.477,0,0,1,16.24,0a.559.559,0,0,1-.49-.364L13.986-4.788l.28.042L12.67-.364A.539.539,0,0,1,12.18,0a.5.5,0,0,1-.35-.077.505.505,0,0,1-.224-.287l-2.2-6.2A.754.754,0,0,1,9.366-6.8.562.562,0,0,1,9.52-7.2a.542.542,0,0,1,.42-.168.587.587,0,0,1,.308.084.449.449,0,0,1,.2.266L12.334-1.5l-.294-.014,1.638-4.2a.515.515,0,0,1,.518-.35.505.505,0,0,1,.315.091.523.523,0,0,1,.175.259l1.708,4.2-.35.028,1.89-5.53A.51.51,0,0,1,18.466-7.364Zm8.008.056a.536.536,0,0,1,.406.161.555.555,0,0,1,.154.4V-.574a.565.565,0,0,1-.161.406.53.53,0,0,1-.4.168.53.53,0,0,1-.4-.168.565.565,0,0,1-.161-.406V-1.9l.266-.028a1.363,1.363,0,0,1-.21.672,2.664,2.664,0,0,1-.574.679,3.114,3.114,0,0,1-.854.518,2.753,2.753,0,0,1-1.064.2,3.074,3.074,0,0,1-1.715-.5,3.432,3.432,0,0,1-1.2-1.351,4.236,4.236,0,0,1-.434-1.946,4.169,4.169,0,0,1,.441-1.953,3.43,3.43,0,0,1,1.19-1.33A3.046,3.046,0,0,1,23.45-7.42a3.139,3.139,0,0,1,1.12.2,2.942,2.942,0,0,1,.9.532,2.529,2.529,0,0,1,.6.742,1.754,1.754,0,0,1,.21.812l-.364-.084V-6.748a.542.542,0,0,1,.161-.4A.542.542,0,0,1,26.474-7.308ZM23.59-.9a2.161,2.161,0,0,0,1.239-.364,2.5,2.5,0,0,0,.847-.987,3.132,3.132,0,0,0,.308-1.407,3.1,3.1,0,0,0-.308-1.393,2.448,2.448,0,0,0-.847-.98,2.192,2.192,0,0,0-1.239-.357,2.2,2.2,0,0,0-1.225.35,2.407,2.407,0,0,0-.847.966,3.121,3.121,0,0,0-.308,1.414,3.132,3.132,0,0,0,.308,1.407,2.5,2.5,0,0,0,.847.987A2.138,2.138,0,0,0,23.59-.9Zm6.076.9a.53.53,0,0,1-.4-.168.565.565,0,0,1-.161-.406v-6.1a.542.542,0,0,1,.161-.4.542.542,0,0,1,.4-.161.536.536,0,0,1,.406.161.555.555,0,0,1,.154.4V-4.83l-.168-.294a3.068,3.068,0,0,1,.3-.847,2.959,2.959,0,0,1,.553-.742,2.542,2.542,0,0,1,.77-.518,2.359,2.359,0,0,1,.952-.189,1.129,1.129,0,0,1,.567.147.455.455,0,0,1,.259.413.559.559,0,0,1-.154.434.506.506,0,0,1-.35.14.831.831,0,0,1-.35-.077,1.008,1.008,0,0,0-.42-.077,1.423,1.423,0,0,0-.693.189,2.182,2.182,0,0,0-.63.539,2.96,2.96,0,0,0-.462.791,2.538,2.538,0,0,0-.175.945v3.4a.565.565,0,0,1-.161.406A.53.53,0,0,1,29.666,0Zm10.64-10.36a.536.536,0,0,1,.406.161.555.555,0,0,1,.154.4V-.574a.565.565,0,0,1-.161.406.53.53,0,0,1-.4.168.53.53,0,0,1-.4-.168.565.565,0,0,1-.161-.406V-1.9l.266-.1a1.477,1.477,0,0,1-.2.707,2.537,2.537,0,0,1-.574.693,3.263,3.263,0,0,1-.861.532A2.672,2.672,0,0,1,37.31.14,3.072,3.072,0,0,1,35.6-.35a3.452,3.452,0,0,1-1.2-1.344,4.18,4.18,0,0,1-.441-1.946A4.211,4.211,0,0,1,34.4-5.6,3.418,3.418,0,0,1,35.6-6.937a3.046,3.046,0,0,1,1.687-.483,3.043,3.043,0,0,1,1.1.2,3.056,3.056,0,0,1,.9.532,2.584,2.584,0,0,1,.609.742,1.709,1.709,0,0,1,.217.812l-.364-.084V-9.8a.542.542,0,0,1,.161-.4A.542.542,0,0,1,40.306-10.36ZM37.422-.9a2.183,2.183,0,0,0,1.246-.357,2.469,2.469,0,0,0,.84-.98,3.132,3.132,0,0,0,.308-1.407,3.121,3.121,0,0,0-.308-1.414,2.459,2.459,0,0,0-.847-.973,2.192,2.192,0,0,0-1.239-.357,2.168,2.168,0,0,0-1.225.357,2.459,2.459,0,0,0-.847.973,3.121,3.121,0,0,0-.308,1.414,3.1,3.1,0,0,0,.308,1.393,2.5,2.5,0,0,0,.847.987A2.138,2.138,0,0,0,37.422-.9Zm5.11-.252a.59.59,0,0,1-.112-.385.478.478,0,0,1,.238-.357.493.493,0,0,1,.329-.084.512.512,0,0,1,.343.182,3.119,3.119,0,0,0,.9.735,2.557,2.557,0,0,0,1.232.273A2.811,2.811,0,0,0,46.13-.9a1.241,1.241,0,0,0,.567-.343.91.91,0,0,0,.231-.651.828.828,0,0,0-.238-.623,1.817,1.817,0,0,0-.616-.378,6.9,6.9,0,0,0-.826-.259q-.462-.126-.91-.287a3.517,3.517,0,0,1-.805-.406,1.906,1.906,0,0,1-.574-.616,1.76,1.76,0,0,1-.217-.9,1.781,1.781,0,0,1,.343-1.092,2.225,2.225,0,0,1,.924-.714,3.15,3.15,0,0,1,1.267-.252,3.93,3.93,0,0,1,.819.091,3.159,3.159,0,0,1,.833.308,2.34,2.34,0,0,1,.714.6.562.562,0,0,1,.14.35A.449.449,0,0,1,47.6-5.7a.5.5,0,0,1-.343.1.48.48,0,0,1-.315-.14,1.943,1.943,0,0,0-.735-.539,2.445,2.445,0,0,0-.973-.189,2.248,2.248,0,0,0-.658.1,1.206,1.206,0,0,0-.539.329.893.893,0,0,0-.217.637.882.882,0,0,0,.252.616,1.727,1.727,0,0,0,.644.385q.406.147.9.287.448.112.861.259a3.067,3.067,0,0,1,.749.385,1.719,1.719,0,0,1,.532.609,1.979,1.979,0,0,1,.2.931,1.762,1.762,0,0,1-.364,1.113,2.289,2.289,0,0,1-.959.714A3.331,3.331,0,0,1,45.346.14a4.126,4.126,0,0,1-1.519-.294A3.044,3.044,0,0,1,42.532-1.148Z" transform="translate(70.686 19.348)"/>
  <g id="Grupo_1381" data-name="Grupo 1381" transform="translate(0 0)">
    <g id="Grupo_219" data-name="Grupo 219" transform="translate(0)">
      <path id="Trazado_144" data-name="Trazado 144" d="M169.266,332h17.256v3.163q-10.14,12.14-10.279,24.466h-5.07l-.7-1.023q5.116-15.908,9.768-22.14-9.117-.419-10.791.14Q168.94,332.791,169.266,332Z" transform="translate(-169.139 -332)" fill="#9e9d9d"/>
    </g>
  </g>
  <path id="Trazado_309" data-name="Trazado 309" d="M11.116-.322A.326.326,0,0,0,11.438,0a.329.329,0,0,0,.336-.322V-4.06A2.784,2.784,0,0,0,8.988-6.846,2.839,2.839,0,0,0,6.524-5.39a2.783,2.783,0,0,0-2.45-1.456,2.739,2.739,0,0,0-2.114.98v-.658a.32.32,0,0,0-.336-.322.326.326,0,0,0-.322.322V-.252A.365.365,0,0,0,1.582,0h.084c.028,0,.042,0,.056-.014a.16.16,0,0,0,.084-.042A.3.3,0,0,0,1.96-.322V-4.06A2.124,2.124,0,0,1,4.074-6.188,2.124,2.124,0,0,1,6.188-4.06V-.252A.051.051,0,0,1,6.2-.21a.043.043,0,0,1,.014.028c.014.014.014.014.014.028s.014.014.028.028L6.3-.084c.014.014.028.028.042.028s.056.042.084.042A.049.049,0,0,0,6.454,0h.07a.373.373,0,0,0,.168-.042A.356.356,0,0,0,6.86-.224V-.252A.049.049,0,0,0,6.874-.28V-4.06A2.133,2.133,0,0,1,8.988-6.188,2.154,2.154,0,0,1,11.116-4.06ZM17.458,0A3.269,3.269,0,0,0,20.23-1.554a.357.357,0,0,0-.112-.476.327.327,0,0,0-.448.112A2.579,2.579,0,0,1,17.458-.672,2.7,2.7,0,0,1,14.8-3.3h5.628a.317.317,0,0,0,.336-.308v-.056a3.363,3.363,0,0,0-3.3-3.192,3.383,3.383,0,0,0-3.332,3.444A3.377,3.377,0,0,0,17.458,0Zm0-6.188a2.648,2.648,0,0,1,2.576,2.226H14.84A2.679,2.679,0,0,1,17.458-6.188ZM25.984,0a3.269,3.269,0,0,0,2.772-1.554.357.357,0,0,0-.112-.476.327.327,0,0,0-.448.112A2.579,2.579,0,0,1,25.984-.672,2.7,2.7,0,0,1,23.324-3.3h5.628a.317.317,0,0,0,.336-.308v-.056a3.363,3.363,0,0,0-3.3-3.192,3.383,3.383,0,0,0-3.332,3.444A3.377,3.377,0,0,0,25.984,0Zm0-6.188A2.648,2.648,0,0,1,28.56-3.962H23.366A2.679,2.679,0,0,1,25.984-6.188Zm5.684,8.722a.343.343,0,0,0,.686,0v-3.92a3.221,3.221,0,0,0,2.6,1.344,3.374,3.374,0,0,0,3.318-3.416,3.353,3.353,0,0,0-3.318-3.4,3.247,3.247,0,0,0-2.6,1.33v-.994A.344.344,0,0,0,32-6.86a.341.341,0,0,0-.336.336V2.534Zm.686-6.1a2.664,2.664,0,0,1,2.6-2.6A2.666,2.666,0,0,1,37.59-3.458,2.7,2.7,0,0,1,34.958-.714a2.7,2.7,0,0,1-2.6-2.744ZM40.726-.336A.341.341,0,0,0,41.062,0a.344.344,0,0,0,.35-.336V-9.464a.344.344,0,0,0-.35-.336.341.341,0,0,0-.336.336ZM47.586,0a3.269,3.269,0,0,0,2.772-1.554.357.357,0,0,0-.112-.476.327.327,0,0,0-.448.112A2.579,2.579,0,0,1,47.586-.672,2.7,2.7,0,0,1,44.926-3.3h5.628a.317.317,0,0,0,.336-.308v-.056a3.363,3.363,0,0,0-3.3-3.192,3.383,3.383,0,0,0-3.332,3.444A3.377,3.377,0,0,0,47.586,0Zm0-6.188a2.648,2.648,0,0,1,2.576,2.226H44.968A2.679,2.679,0,0,1,47.586-6.188ZM52.836-.98A4.165,4.165,0,0,0,55.37,0a2.8,2.8,0,0,0,1.708-.546,1.745,1.745,0,0,0,.784-1.386,1.712,1.712,0,0,0-.77-1.4,4.769,4.769,0,0,0-1.666-.56H55.4A3.452,3.452,0,0,1,54-4.368a.83.83,0,0,1-.392-.686,1.03,1.03,0,0,1,.434-.784,2.06,2.06,0,0,1,1.3-.392,3,3,0,0,1,1.68.686.336.336,0,0,0,.462-.1.356.356,0,0,0-.1-.476,3.684,3.684,0,0,0-2.044-.742,2.951,2.951,0,0,0-1.68.462,1.7,1.7,0,0,0-.742,1.344,1.432,1.432,0,0,0,.742,1.232,3.909,3.909,0,0,0,1.554.532l.028.014a3.409,3.409,0,0,1,1.456.5,1.081,1.081,0,0,1,.49.84,1.04,1.04,0,0,1-.518.84,2.069,2.069,0,0,1-1.3.42,3.672,3.672,0,0,1-2.1-.8.334.334,0,0,0-.476.042A.315.315,0,0,0,52.836-.98Z" transform="translate(11.686 19.214)" fill="#baa45a"/>
</svg>
