<svg xmlns="http://www.w3.org/2000/svg" width="234.546" height="17.229" viewBox="0 0 234.546 17.229">
  <g id="Grupo_1864" data-name="Grupo 1864" transform="translate(-82.6 -320)">
    <g id="iconfinder_weight_7055825" transform="translate(267.559 298)">
      <path id="Trazado_14" data-name="Trazado 14" d="M11.116,35.874H8.531a.861.861,0,0,1-.861-.861V27.5a.861.861,0,0,1,.861-.861h2.584a.861.861,0,0,1,.861.861v7.512A.861.861,0,0,1,11.116,35.874ZM9.393,34.152h.861V28.363H9.393Z" transform="translate(0 -0.643)" fill="#231f20"/>
      <path id="Trazado_15" data-name="Trazado 15" d="M14.977,37.486H11.531a.861.861,0,0,1-.861-.861V25.271a.861.861,0,0,1,.861-.861h3.446a.861.861,0,0,1,.861.861V36.625A.861.861,0,0,1,14.977,37.486Zm-2.584-1.723h1.723V26.133H12.393Z" transform="translate(-0.416 -0.334)" fill="#231f20"/>
      <path id="Trazado_16" data-name="Trazado 16" d="M21.26,39.229H15.531a.861.861,0,0,1-.861-.861V22.861A.861.861,0,0,1,15.531,22H21.26a.861.861,0,0,1,.861.861V38.367A.861.861,0,0,1,21.26,39.229Zm-4.867-1.723H20.4V23.723H16.393Z" transform="translate(-0.97 0)" fill="#231f20"/>
      <path id="Trazado_17" data-name="Trazado 17" d="M54.776,35.874H52.191a.861.861,0,0,1-.861-.861V27.5a.861.861,0,0,1,.861-.861h2.584a.861.861,0,0,1,.861.861v7.512A.861.861,0,0,1,54.776,35.874Zm-1.723-1.723h.861V28.363h-.861Z" transform="translate(-6.05 -0.643)" fill="#231f20"/>
      <path id="Trazado_18" data-name="Trazado 18" d="M51.627,37.486H48.181a.861.861,0,0,1-.861-.861V25.271a.861.861,0,0,1,.861-.861h3.446a.861.861,0,0,1,.861.861V36.625A.861.861,0,0,1,51.627,37.486Zm-2.584-1.723h1.723V26.133H49.043Z" transform="translate(-5.494 -0.334)" fill="#231f20"/>
      <path id="Trazado_19" data-name="Trazado 19" d="M47.26,39.229H41.531a.861.861,0,0,1-.861-.861V22.861A.861.861,0,0,1,41.531,22H47.26a.861.861,0,0,1,.861.861V38.367A.861.861,0,0,1,47.26,39.229Zm-4.867-1.723H46.4V23.723H42.393Z" transform="translate(-4.573 0)" fill="#231f20"/>
      <path id="Trazado_20" data-name="Trazado 20" d="M38.85,34.169H22.181a.861.861,0,0,1-.861-.861V29.861A.861.861,0,0,1,22.181,29H38.85a.861.861,0,0,1,.861.861v3.446A.861.861,0,0,1,38.85,34.169ZM23.043,32.446H37.989V30.723H23.043Z" transform="translate(-1.892 -0.97)" fill="#231f20"/>
    </g>
    <path id="Trazado_452" data-name="Trazado 452" d="M-37.536,0a5.942,5.942,0,0,0,5.95-5.933,5.971,5.971,0,0,0-5.95-5.967h-2.227a.414.414,0,0,0-.408.408V-.408A.408.408,0,0,0-39.8,0h2.261Zm-1.8-.833V-11.067h1.8a5.137,5.137,0,0,1,5.117,5.134,5.108,5.108,0,0,1-5.117,5.1Zm11.22.425A.414.414,0,0,0-27.71,0a.417.417,0,0,0,.425-.408V-7.922a.407.407,0,0,0-.425-.408.4.4,0,0,0-.408.408Zm0-9.843a.433.433,0,0,0,.408.442.436.436,0,0,0,.425-.442v-.391a.417.417,0,0,0-.425-.408.414.414,0,0,0-.408.408Zm8.024-1.632a2.208,2.208,0,0,0-1.683.6,2.958,2.958,0,0,0-.544,1.938v.884h-1.1a.414.414,0,0,0-.408.408.417.417,0,0,0,.408.425h1.1V-.391A.417.417,0,0,0-21.9.017a.414.414,0,0,0,.408-.408V-7.633h1.173a.421.421,0,0,0,.425-.425.417.417,0,0,0-.425-.408h-1.173V-9.35a2.042,2.042,0,0,1,.34-1.377,1.288,1.288,0,0,1,1.054-.323.414.414,0,0,0,.408-.408A.417.417,0,0,0-20.094-11.883ZM-17.187-.408A.414.414,0,0,0-16.779,0a.417.417,0,0,0,.425-.408V-7.922a.407.407,0,0,0-.425-.408.4.4,0,0,0-.408.408Zm0-9.843a.433.433,0,0,0,.408.442.436.436,0,0,0,.425-.442v-.391a.417.417,0,0,0-.425-.408.414.414,0,0,0-.408.408ZM-8.738,0h0A4.3,4.3,0,0,0-6.12-.884a.4.4,0,0,0,.085-.595A.418.418,0,0,0-6.6-1.547h0a3.506,3.506,0,0,1-2.142.731,3.4,3.4,0,0,1-3.468-3.366A3.4,3.4,0,0,1-8.738-7.531,3.418,3.418,0,0,1-6.6-6.783a.418.418,0,0,0,.561-.068.384.384,0,0,0-.051-.561A4.287,4.287,0,0,0-8.738-8.33a4.2,4.2,0,0,0-4.284,4.148A4.2,4.2,0,0,0-8.738,0ZM-2.89-3.4A3.381,3.381,0,0,0,.476,0,3.4,3.4,0,0,0,3.893-3.4V-7.939a.407.407,0,0,0-.425-.408.413.413,0,0,0-.408.408V-3.4A2.594,2.594,0,0,1,.476-.816,2.576,2.576,0,0,1-2.074-3.4V-7.939a.4.4,0,0,0-.408-.408.4.4,0,0,0-.408.408ZM7.293-.408A.414.414,0,0,0,7.7,0a.417.417,0,0,0,.425-.408V-11.492A.417.417,0,0,0,7.7-11.9a.414.414,0,0,0-.408.408ZM13.906-8.33H12.835v-3.094a.458.458,0,0,0-.442-.408.439.439,0,0,0-.408.408V-8.33H10.948c-.408,0-.408.2-.408.408s0,.408.408.408h1.037v6.069A1.417,1.417,0,0,0,13.447,0a.455.455,0,0,0,.425-.408.471.471,0,0,0-.425-.425.651.651,0,0,1-.612-.612V-7.514h1.071a.439.439,0,0,0,.408-.408A.439.439,0,0,0,13.906-8.33Zm10.37,0a.4.4,0,0,0-.408.408V-6.7A3.872,3.872,0,0,0,20.74-8.33,4.064,4.064,0,0,0,16.8-4.165,4.064,4.064,0,0,0,20.74,0a3.888,3.888,0,0,0,3.128-1.649V-.408A.414.414,0,0,0,24.276,0a.414.414,0,0,0,.408-.408V-7.922A.4.4,0,0,0,24.276-8.33ZM20.74-.816a3.249,3.249,0,0,1-3.128-3.349A3.265,3.265,0,0,1,20.74-7.531a3.253,3.253,0,0,1,3.128,3.366A3.238,3.238,0,0,1,20.74-.816Zm14.144.408A.417.417,0,0,0,35.309,0a.414.414,0,0,0,.408-.408V-11.492a.414.414,0,0,0-.408-.408.417.417,0,0,0-.425.408V-6.7a3.975,3.975,0,0,0-3.2-1.632,4.094,4.094,0,0,0-4.029,4.182A4.086,4.086,0,0,0,31.688,0a3.96,3.96,0,0,0,3.2-1.615Zm-3.2-.425a3.263,3.263,0,0,1-3.2-3.315,3.282,3.282,0,0,1,3.2-3.349,3.274,3.274,0,0,1,3.2,3.213v.272A3.256,3.256,0,0,1,31.688-.833Zm7.65-.017a.842.842,0,0,0,.85.85.842.842,0,0,0,.85-.85.842.842,0,0,0-.85-.85A.842.842,0,0,0,39.338-.85Zm0-7.14a.842.842,0,0,0,.85.85.842.842,0,0,0,.85-.85.842.842,0,0,0-.85-.85A.842.842,0,0,0,39.338-7.99Z" transform="translate(122.771 335)"/>
    <g id="Grupo_1863" data-name="Grupo 1863" transform="translate(0 -1)">
      <g id="Rectángulo_227" data-name="Rectángulo 227" transform="translate(172 322)" fill="#ccc" stroke="#000" stroke-width="0.5">
        <rect width="16" height="16" rx="5" stroke="none"/>
        <rect x="0.25" y="0.25" width="15.5" height="15.5" rx="4.75" fill="none"/>
      </g>
      <g id="Rectángulo_228" data-name="Rectángulo 228" transform="translate(192 322)" fill="#ccc" stroke="#000" stroke-width="0.5">
        <rect width="16" height="16" rx="5" stroke="none"/>
        <rect x="0.25" y="0.25" width="15.5" height="15.5" rx="4.75" fill="none"/>
      </g>
      <g id="Rectángulo_230" data-name="Rectángulo 230" transform="translate(232 322)" fill="#fff" stroke="#000" stroke-width="0.5">
        <rect width="16" height="16" rx="5" stroke="none"/>
        <rect x="0.25" y="0.25" width="15.5" height="15.5" rx="4.75" fill="none"/>
      </g>
      <g id="Rectángulo_231" data-name="Rectángulo 231" transform="translate(252 322)" fill="#fff" stroke="#000" stroke-width="0.5">
        <rect width="16" height="16" rx="5" stroke="none"/>
        <rect x="0.25" y="0.25" width="15.5" height="15.5" rx="4.75" fill="none"/>
      </g>
      <g id="Grupo_1862" data-name="Grupo 1862" transform="translate(-92 50)">
        <path id="Sustracción_23" data-name="Sustracción 23" d="M809-8366h-3a5,5,0,0,1-5-5v-6a5.006,5.006,0,0,1,5-5h3v16Z" transform="translate(-496.999 8654)" fill="#ccc"/>
        <g id="Rectángulo_233" data-name="Rectángulo 233" transform="translate(304 272)" fill="none" stroke="#000" stroke-width="0.5">
          <rect width="16" height="16" rx="5" stroke="none"/>
          <rect x="0.25" y="0.25" width="15.5" height="15.5" rx="4.75" fill="none"/>
        </g>
      </g>
    </g>
  </g>
</svg>
