<svg xmlns="http://www.w3.org/2000/svg" width="122.914" height="21.269" viewBox="0 0 122.914 21.269">
  <g id="Grupo_1865" data-name="Grupo 1865" transform="translate(-67.386 -267)">
    <path id="Trazado_457" data-name="Trazado 457" d="M-46.614-4.573a5.89,5.89,0,0,0,.034.782A3.924,3.924,0,0,0-42.653,0a3.922,3.922,0,0,0,3.944-3.927,3.932,3.932,0,0,0-3.944-3.927,3.909,3.909,0,0,0-2.941,1.343,7.774,7.774,0,0,1,.85-2.38,4.031,4.031,0,0,1,3.468-2.159.445.445,0,0,0,.408-.442.414.414,0,0,0-.425-.391A4.828,4.828,0,0,0-45.458-9.3,9.817,9.817,0,0,0-46.614-4.573Zm.867.646a3.105,3.105,0,0,1,3.094-3.094,3.113,3.113,0,0,1,3.128,3.094A3.113,3.113,0,0,1-42.653-.833,3.115,3.115,0,0,1-45.73-3.519a.252.252,0,0,0,.017-.119.861.861,0,0,1-.034-.221Zm11.2,2.125A3.683,3.683,0,0,0-31.569,0a3.683,3.683,0,0,0,2.975-1.8A7.63,7.63,0,0,0-27.438-5.95a7.732,7.732,0,0,0-1.156-4.165A3.706,3.706,0,0,0-31.569-11.9a3.706,3.706,0,0,0-2.975,1.785A7.581,7.581,0,0,0-35.683-5.95,7.481,7.481,0,0,0-34.544-1.8Zm.7-7.837a2.78,2.78,0,0,1,2.278-1.428h0a2.8,2.8,0,0,1,2.278,1.428,6.751,6.751,0,0,1,1.02,3.689,6.751,6.751,0,0,1-1.02,3.689A2.885,2.885,0,0,1-31.569-.833a2.86,2.86,0,0,1-2.278-1.428,6.748,6.748,0,0,1-1-3.689A6.748,6.748,0,0,1-33.847-9.639ZM-6.12-.391A.4.4,0,0,0-5.729,0a.4.4,0,0,0,.408-.391V-4.93A3.381,3.381,0,0,0-8.7-8.313,3.447,3.447,0,0,0-11.7-6.545a3.379,3.379,0,0,0-2.975-1.768,3.326,3.326,0,0,0-2.567,1.19v-.8a.389.389,0,0,0-.408-.391.4.4,0,0,0-.391.391V-.306A.443.443,0,0,0-17.7,0h.1c.034,0,.051,0,.068-.017a.194.194,0,0,0,.1-.051.364.364,0,0,0,.187-.323V-4.93a2.579,2.579,0,0,1,2.567-2.584A2.579,2.579,0,0,1-12.1-4.93V-.306a.062.062,0,0,1,.017.051.053.053,0,0,1,.017.034c.017.017.017.017.017.034.017,0,.017.017.034.034l.051.051c.017.017.034.034.051.034.034.017.068.051.1.051A.059.059,0,0,0-11.781,0h.085a.453.453,0,0,0,.2-.051.432.432,0,0,0,.2-.221V-.306a.059.059,0,0,0,.017-.034V-4.93A2.59,2.59,0,0,1-8.7-7.514,2.616,2.616,0,0,1-6.12-4.93Zm4.267-.017A.414.414,0,0,0-1.445,0,.417.417,0,0,0-1.02-.408V-7.922a.407.407,0,0,0-.425-.408.4.4,0,0,0-.408.408Zm0-9.843a.433.433,0,0,0,.408.442.436.436,0,0,0,.425-.442v-.391a.417.417,0,0,0-.425-.408.414.414,0,0,0-.408.408ZM8.857-.408A.4.4,0,0,0,9.265,0a.4.4,0,0,0,.408-.408V-4.93A3.392,3.392,0,0,0,6.29-8.313,3.376,3.376,0,0,0,3.706-7.106v-.8a.4.4,0,0,0-.391-.408.4.4,0,0,0-.408.408v7.6a.059.059,0,0,1,.017.034.062.062,0,0,0,.017.051A.446.446,0,0,0,3.213,0h.1a.364.364,0,0,0,.306-.153A.377.377,0,0,0,3.706-.34V-4.93A2.613,2.613,0,0,1,6.29-7.5,2.565,2.565,0,0,1,8.857-4.93Zm4.3-2.992A3.381,3.381,0,0,0,16.524,0a3.4,3.4,0,0,0,3.417-3.4V-7.939a.407.407,0,0,0-.425-.408.413.413,0,0,0-.408.408V-3.4A2.594,2.594,0,0,1,16.524-.816,2.576,2.576,0,0,1,13.974-3.4V-7.939a.4.4,0,0,0-.408-.408.4.4,0,0,0-.408.408Zm13.09-4.93H25.177v-3.094a.458.458,0,0,0-.442-.408.439.439,0,0,0-.408.408V-8.33H23.29c-.408,0-.408.2-.408.408s0,.408.408.408h1.037v6.069A1.417,1.417,0,0,0,25.789,0a.455.455,0,0,0,.425-.408.471.471,0,0,0-.425-.425.651.651,0,0,1-.612-.612V-7.514h1.071a.439.439,0,0,0,.408-.408A.439.439,0,0,0,26.248-8.33ZM29.9-4.165A4.086,4.086,0,0,0,33.847,0a4.074,4.074,0,0,0,3.944-4.165A4.074,4.074,0,0,0,33.847-8.33,4.086,4.086,0,0,0,29.9-4.165Zm.816,0a3.276,3.276,0,0,1,3.128-3.366,3.276,3.276,0,0,1,3.128,3.366A3.26,3.26,0,0,1,33.847-.816,3.26,3.26,0,0,1,30.719-4.165ZM40.392-1.19A5.058,5.058,0,0,0,43.469,0a3.4,3.4,0,0,0,2.074-.663A2.119,2.119,0,0,0,46.5-2.346a2.079,2.079,0,0,0-.935-1.7,5.791,5.791,0,0,0-2.023-.68H43.5A4.192,4.192,0,0,1,41.8-5.3a1.008,1.008,0,0,1-.476-.833,1.251,1.251,0,0,1,.527-.952,2.5,2.5,0,0,1,1.581-.476,3.643,3.643,0,0,1,2.04.833.409.409,0,0,0,.561-.119.433.433,0,0,0-.119-.578,4.473,4.473,0,0,0-2.482-.9,3.584,3.584,0,0,0-2.04.561,2.065,2.065,0,0,0-.9,1.632,1.739,1.739,0,0,0,.9,1.5,4.746,4.746,0,0,0,1.887.646l.034.017a4.14,4.14,0,0,1,1.768.612,1.313,1.313,0,0,1,.6,1.02,1.263,1.263,0,0,1-.629,1.02,2.512,2.512,0,0,1-1.581.51,4.459,4.459,0,0,1-2.55-.969.4.4,0,0,0-.578.051A.382.382,0,0,0,40.392-1.19Z" transform="translate(114 284)"/>
    <g id="Layer_2" data-name="Layer 2" transform="translate(172 267)">
      <path id="Trazado_1" data-name="Trazado 1" d="M4,14.508A8.508,8.508,0,1,0,12.508,6,8.508,8.508,0,0,0,4,14.508Zm8.508-6.381a6.381,6.381,0,1,1-6.381,6.381A6.381,6.381,0,0,1,12.508,8.127Z" transform="translate(-2.715 -1.746)"/>
      <rect id="Rectángulo_1" data-name="Rectángulo 1" width="4.254" height="2.127" transform="translate(7.665 0)"/>
      <rect id="Rectángulo_2" data-name="Rectángulo 2" width="4.509" height="2.127" transform="translate(0 5.093) rotate(-45)"/>
      <rect id="Rectángulo_3" data-name="Rectángulo 3" width="2.127" height="5.317" transform="translate(8.729 8.508)"/>
    </g>
  </g>
</svg>
