<svg xmlns="http://www.w3.org/2000/svg" width="313.117" height="38.002" viewBox="0 0 313.117 38.002">
  <g id="_2-jugadores.icon" data-name="2-jugadores.icon" transform="translate(33.769 -1080.5)">
    <path id="Trazado_451" data-name="Trazado 451" d="M-56.781-2.753A4.282,4.282,0,0,1-59.1-3.4a4.584,4.584,0,0,1-1.627-1.743.961.961,0,0,1-.147-.483.707.707,0,0,1,.273-.577.869.869,0,0,1,.546-.22.791.791,0,0,1,.43.126,1.348,1.348,0,0,1,.346.315,3.417,3.417,0,0,0,1.05,1.134,2.551,2.551,0,0,0,1.449.42,3.014,3.014,0,0,0,1.522-.378,2.822,2.822,0,0,0,1.05-1.039,2.908,2.908,0,0,0,.388-1.5V-16.82a.78.78,0,0,1,.262-.6.911.911,0,0,1,.64-.241.839.839,0,0,1,.619.241.813.813,0,0,1,.241.6v9.469a4.5,4.5,0,0,1-.619,2.331,4.546,4.546,0,0,1-1.68,1.659A4.782,4.782,0,0,1-56.781-2.753Zm16.23-11.065a.8.8,0,0,1,.609.241.832.832,0,0,1,.231.6v5.732A4.4,4.4,0,0,1-40.9-3.96,4.517,4.517,0,0,1-44.2-2.8,4.487,4.487,0,0,1-47.49-3.96a4.4,4.4,0,0,1-1.186-3.286v-5.732a.813.813,0,0,1,.241-.6.813.813,0,0,1,.6-.241.8.8,0,0,1,.609.241.832.832,0,0,1,.231.6v5.732a2.932,2.932,0,0,0,.735,2.163,2.782,2.782,0,0,0,2.058.735,2.8,2.8,0,0,0,2.089-.735,2.958,2.958,0,0,0,.724-2.163v-5.732a.813.813,0,0,1,.241-.6A.813.813,0,0,1-40.551-13.818Zm8.188-.273a4.622,4.622,0,0,1,1.7.3A4.849,4.849,0,0,1-29.308-13a4.26,4.26,0,0,1,.9,1.008,1.891,1.891,0,0,1,.325.987l-.42-.252v-1.827a.813.813,0,0,1,.241-.6.813.813,0,0,1,.6-.241.8.8,0,0,1,.609.241.832.832,0,0,1,.231.6v9.2a5.263,5.263,0,0,1-.724,2.866A4.438,4.438,0,0,1-29.486.68a6.442,6.442,0,0,1-2.708.556,6.989,6.989,0,0,1-1.4-.157,7.6,7.6,0,0,1-1.354-.4A1.51,1.51,0,0,1-35.68.186.968.968,0,0,1-36.068-.3a.567.567,0,0,1,.073-.483.575.575,0,0,1,.5-.3,2.6,2.6,0,0,1,.756.178q.21.063.609.21a7.109,7.109,0,0,0,.924.262,4.78,4.78,0,0,0,1.029.115,3.746,3.746,0,0,0,2.729-.924A3.307,3.307,0,0,0-28.5-3.719V-5.672l.231.1a2.772,2.772,0,0,1-.5,1.092,4.061,4.061,0,0,1-.934.892,4.642,4.642,0,0,1-1.239.609,4.449,4.449,0,0,1-1.375.22,4.836,4.836,0,0,1-2.635-.735A5.247,5.247,0,0,1-36.8-5.5a6.11,6.11,0,0,1-.682-2.918,6.156,6.156,0,0,1,.682-2.939,5.2,5.2,0,0,1,1.837-2.005A4.8,4.8,0,0,1-32.363-14.091Zm.231,1.554A3.515,3.515,0,0,0-34.063-12a3.757,3.757,0,0,0-1.323,1.459,4.511,4.511,0,0,0-.483,2.121,4.482,4.482,0,0,0,.483,2.089,3.818,3.818,0,0,0,1.323,1.48,3.465,3.465,0,0,0,1.932.546A3.515,3.515,0,0,0-30.2-4.842,3.757,3.757,0,0,0-28.877-6.3a4.511,4.511,0,0,0,.483-2.121,4.558,4.558,0,0,0-.483-2.142A3.679,3.679,0,0,0-30.2-12.012,3.568,3.568,0,0,0-32.132-12.537Zm17.154-1.386a.8.8,0,0,1,.609.241.832.832,0,0,1,.231.6v9.259a.848.848,0,0,1-.241.609.8.8,0,0,1-.6.252.8.8,0,0,1-.6-.252.848.848,0,0,1-.241-.609V-5.818l.4-.042a2.044,2.044,0,0,1-.315,1.008,4,4,0,0,1-.861,1.018,4.671,4.671,0,0,1-1.281.777,4.128,4.128,0,0,1-1.6.3A4.61,4.61,0,0,1-22.043-3.5a5.148,5.148,0,0,1-1.8-2.026,6.352,6.352,0,0,1-.651-2.918,6.252,6.252,0,0,1,.661-2.929,5.144,5.144,0,0,1,1.785-1.995,4.568,4.568,0,0,1,2.53-.724,4.708,4.708,0,0,1,1.68.294,4.411,4.411,0,0,1,1.354.8,3.792,3.792,0,0,1,.892,1.113,2.63,2.63,0,0,1,.315,1.218l-.546-.126v-2.289a.813.813,0,0,1,.241-.6A.813.813,0,0,1-14.978-13.923ZM-19.3-4.307a3.242,3.242,0,0,0,1.858-.546,3.751,3.751,0,0,0,1.27-1.48,4.7,4.7,0,0,0,.462-2.11,4.649,4.649,0,0,0-.462-2.089A3.672,3.672,0,0,0-17.445-12a3.287,3.287,0,0,0-1.858-.535,3.3,3.3,0,0,0-1.837.525,3.61,3.61,0,0,0-1.27,1.449,4.68,4.68,0,0,0-.462,2.121,4.7,4.7,0,0,0,.462,2.11,3.751,3.751,0,0,0,1.27,1.48A3.206,3.206,0,0,0-19.3-4.307ZM-2.192-18.5a.8.8,0,0,1,.609.241.832.832,0,0,1,.231.6V-3.824a.848.848,0,0,1-.241.609.8.8,0,0,1-.6.252.8.8,0,0,1-.6-.252.848.848,0,0,1-.241-.609V-5.818l.4-.147a2.215,2.215,0,0,1-.3,1.06A3.8,3.8,0,0,1-3.8-3.866a4.894,4.894,0,0,1-1.291.8,4.008,4.008,0,0,1-1.6.315,4.607,4.607,0,0,1-2.561-.735,5.177,5.177,0,0,1-1.8-2.016A6.269,6.269,0,0,1-11.7-8.422a6.316,6.316,0,0,1,.661-2.939,5.126,5.126,0,0,1,1.785-2.005,4.568,4.568,0,0,1,2.53-.724,4.563,4.563,0,0,1,1.648.294,4.583,4.583,0,0,1,1.354.8,3.876,3.876,0,0,1,.913,1.113,2.563,2.563,0,0,1,.325,1.218l-.546-.126V-17.66a.813.813,0,0,1,.241-.6A.813.813,0,0,1-2.192-18.5ZM-6.517-4.307a3.274,3.274,0,0,0,1.869-.535,3.7,3.7,0,0,0,1.26-1.47,4.7,4.7,0,0,0,.462-2.11,4.68,4.68,0,0,0-.462-2.121A3.688,3.688,0,0,0-4.659-12a3.287,3.287,0,0,0-1.858-.535A3.251,3.251,0,0,0-8.354-12a3.688,3.688,0,0,0-1.27,1.459,4.68,4.68,0,0,0-.462,2.121,4.649,4.649,0,0,0,.462,2.089,3.751,3.751,0,0,0,1.27,1.48A3.206,3.206,0,0,0-6.517-4.307ZM11.96-8.422A5.892,5.892,0,0,1,11.246-5.5,5.322,5.322,0,0,1,9.3-3.488a5.313,5.313,0,0,1-2.782.735,5.274,5.274,0,0,1-2.761-.735A5.4,5.4,0,0,1,1.808-5.5a5.824,5.824,0,0,1-.724-2.918,5.824,5.824,0,0,1,.724-2.918,5.4,5.4,0,0,1,1.953-2.016,5.274,5.274,0,0,1,2.761-.735,5.313,5.313,0,0,1,2.782.735,5.322,5.322,0,0,1,1.942,2.016A5.892,5.892,0,0,1,11.96-8.422Zm-1.68,0a4.478,4.478,0,0,0-.493-2.142,3.729,3.729,0,0,0-1.344-1.449,3.583,3.583,0,0,0-1.921-.525,3.6,3.6,0,0,0-1.911.525,3.7,3.7,0,0,0-1.354,1.449,4.478,4.478,0,0,0-.493,2.142A4.432,4.432,0,0,0,3.257-6.3,3.781,3.781,0,0,0,4.611-4.842a3.545,3.545,0,0,0,1.911.535,3.53,3.53,0,0,0,1.921-.535A3.808,3.808,0,0,0,9.787-6.3,4.432,4.432,0,0,0,10.28-8.422Zm4.955,5.459a.8.8,0,0,1-.6-.252.848.848,0,0,1-.241-.609v-9.154a.813.813,0,0,1,.241-.6.813.813,0,0,1,.6-.241.8.8,0,0,1,.609.241.832.832,0,0,1,.231.6v2.771l-.252-.441a4.6,4.6,0,0,1,.451-1.27,4.437,4.437,0,0,1,.829-1.113,3.812,3.812,0,0,1,1.155-.777,3.537,3.537,0,0,1,1.428-.283,1.693,1.693,0,0,1,.85.22.683.683,0,0,1,.388.619.838.838,0,0,1-.231.651.759.759,0,0,1-.525.21,1.246,1.246,0,0,1-.525-.115,1.512,1.512,0,0,0-.63-.115,2.133,2.133,0,0,0-1.039.283,3.273,3.273,0,0,0-.945.808,4.438,4.438,0,0,0-.693,1.186,3.807,3.807,0,0,0-.262,1.417v5.1a.848.848,0,0,1-.241.609A.8.8,0,0,1,15.235-2.963Zm12.031.21a5.861,5.861,0,0,1-2.939-.714A5.015,5.015,0,0,1,22.374-5.43a5.854,5.854,0,0,1-.693-2.887,6.281,6.281,0,0,1,.724-3.118,5.164,5.164,0,0,1,1.879-1.974,4.751,4.751,0,0,1,2.457-.682,5.013,5.013,0,0,1,1.879.357,4.871,4.871,0,0,1,1.6,1.039,5.128,5.128,0,0,1,1.123,1.638,5.489,5.489,0,0,1,.441,2.131.812.812,0,0,1-.273.567.843.843,0,0,1-.588.231H22.626l-.378-1.449h8.083L30-9.283v-.462a2.623,2.623,0,0,0-.556-1.48,3.345,3.345,0,0,0-1.207-.955,3.461,3.461,0,0,0-1.491-.336,3.7,3.7,0,0,0-1.249.22,2.972,2.972,0,0,0-1.113.714,3.535,3.535,0,0,0-.787,1.27A5.29,5.29,0,0,0,23.3-8.443,4.478,4.478,0,0,0,23.791-6.3a3.73,3.73,0,0,0,1.375,1.459,3.846,3.846,0,0,0,2.037.535A3.992,3.992,0,0,0,28.5-4.5a3.539,3.539,0,0,0,.934-.472,4.6,4.6,0,0,0,.661-.577.954.954,0,0,1,.546-.189.687.687,0,0,1,.5.21.687.687,0,0,1,.21.5.8.8,0,0,1-.336.63,5.526,5.526,0,0,1-1.606,1.144A4.787,4.787,0,0,1,27.266-2.753Zm6.32-1.932a.885.885,0,0,1-.168-.577.717.717,0,0,1,.357-.535.739.739,0,0,1,.493-.126.768.768,0,0,1,.514.273,4.677,4.677,0,0,0,1.344,1.1,3.835,3.835,0,0,0,1.848.409,4.215,4.215,0,0,0,1.008-.168,1.862,1.862,0,0,0,.85-.514,1.365,1.365,0,0,0,.346-.976,1.242,1.242,0,0,0-.357-.934A2.725,2.725,0,0,0,38.9-7.3a10.34,10.34,0,0,0-1.239-.388q-.693-.189-1.365-.43a5.274,5.274,0,0,1-1.207-.609,2.858,2.858,0,0,1-.861-.924A2.64,2.64,0,0,1,33.9-11a2.671,2.671,0,0,1,.514-1.638A3.337,3.337,0,0,1,35.8-13.713a4.724,4.724,0,0,1,1.9-.378,5.893,5.893,0,0,1,1.228.136,4.737,4.737,0,0,1,1.249.462,3.509,3.509,0,0,1,1.071.892.843.843,0,0,1,.21.525.673.673,0,0,1-.273.567.754.754,0,0,1-.514.147.72.72,0,0,1-.472-.21,2.914,2.914,0,0,0-1.1-.808,3.667,3.667,0,0,0-1.459-.283,3.371,3.371,0,0,0-.987.147,1.808,1.808,0,0,0-.808.493,1.34,1.34,0,0,0-.325.955,1.323,1.323,0,0,0,.378.924,2.589,2.589,0,0,0,.966.577q.609.22,1.344.43.672.168,1.291.388a4.6,4.6,0,0,1,1.123.577,2.578,2.578,0,0,1,.8.913,2.969,2.969,0,0,1,.294,1.4,2.642,2.642,0,0,1-.546,1.669,3.433,3.433,0,0,1-1.438,1.071,5,5,0,0,1-1.921.367,6.188,6.188,0,0,1-2.278-.441A4.565,4.565,0,0,1,33.585-4.685Z" transform="translate(197.587 1111.573)"/>
    <g id="Grupo_1861" data-name="Grupo 1861" transform="translate(52.623 1081)">
      <g id="categoria-en-pareja" transform="translate(0 0)">
        <g id="icons" transform="translate(0 0)">
          <path id="favorite" d="M22.146,3.118l4.243,9.224a1.951,1.951,0,0,0,1.291,1.107l9.593,1.476a1.67,1.67,0,0,1,1.107,2.952l-7.01,7.195a2.575,2.575,0,0,0-.553,1.66l1.66,9.962a1.852,1.852,0,0,1-2.583,2.029l-8.671-4.8a1.384,1.384,0,0,0-1.66,0l-8.671,4.8A1.78,1.78,0,0,1,8.31,36.693l1.66-9.962a1.86,1.86,0,0,0-.553-1.66l-7.01-7.195A1.917,1.917,0,0,1,3.513,14.74l9.593-1.476A1.583,1.583,0,0,0,14.4,12.157l4.243-9.224A2,2,0,0,1,22.146,3.118Z" transform="translate(-1.956 -1.987)" fill="none" stroke="#000" stroke-width="1"/>
        </g>
      </g>
      <path id="Trazado_455" data-name="Trazado 455" d="M5.842-3.13a6.618,6.618,0,0,1-1.985-.317,5.308,5.308,0,0,1-1.766-.925,1.271,1.271,0,0,1-.317-.438,1.236,1.236,0,0,1-.122-.511.85.85,0,0,1,.256-.572.864.864,0,0,1,.67-.28,1.269,1.269,0,0,1,.731.317A4.487,4.487,0,0,0,4.5-5.2a3.764,3.764,0,0,0,1.315.244,4.767,4.767,0,0,0,2.289-.536A4.04,4.04,0,0,0,9.678-6.966a3.963,3.963,0,0,0,.572-2.107,3.766,3.766,0,0,0-.5-1.961,3.412,3.412,0,0,0-1.388-1.3A4.34,4.34,0,0,0,6.329-12.8a4.345,4.345,0,0,0-1.534.256,9.01,9.01,0,0,0-1.169.524,1.78,1.78,0,0,1-.8.268,1.166,1.166,0,0,1-.731-.207.964.964,0,0,1-.353-.524,1.326,1.326,0,0,1-.037-.585l.95-6.454a1.015,1.015,0,0,1,.341-.548A.971.971,0,0,1,3.65-20.3h7.234a.894.894,0,0,1,.658.268.894.894,0,0,1,.268.658.894.894,0,0,1-.268.658.894.894,0,0,1-.658.268H4.137l.244-.219-.9,5.626-.39-.511a3.113,3.113,0,0,1,.816-.487,7.246,7.246,0,0,1,1.266-.414,6.36,6.36,0,0,1,1.473-.17,5.605,5.605,0,0,1,2.837.718,5.348,5.348,0,0,1,1.985,1.961A5.514,5.514,0,0,1,12.2-9.1a5.852,5.852,0,0,1-.475,2.375,5.642,5.642,0,0,1-1.34,1.888A6.286,6.286,0,0,1,8.363-3.58,6.887,6.887,0,0,1,5.842-3.13Z" transform="translate(11.574 32.646)"/>
    </g>
    <g id="Grupo_280" data-name="Grupo 280" transform="translate(248.593 1086.039)">
      <path id="Trazado_13" data-name="Trazado 13" d="M22.661,22.7c-.017-.188-.029-.489-.039-.8,2.843-.291,4.838-.973,4.838-1.767-.008,0-.007-.033-.007-.046C25.327,18.169,29.3,4.557,21.908,4.833a3.758,3.758,0,0,0-2.441-.741C9.461,4.849,13.885,17.7,11.606,20.13h0s0,0,0,0h0c.009.778,1.936,1.447,4.7,1.746-.008.19-.024.425-.06.818C15.093,25.782,7.357,24.917,7,30.861H31.866C31.51,24.917,23.808,25.782,22.661,22.7Z" transform="translate(-1.111 -4.092)" fill="#787878"/>
      <path id="Trazado_12" data-name="Trazado 12" d="M22.661,22.8a27.049,27.049,0,0,1-.059-2.755,5.392,5.392,0,0,0,1.478-3.2c.376-.031.968-.4,1.141-1.844a1.351,1.351,0,0,0-.5-1.351c.611-1.838,1.881-7.525-2.348-8.112-.435-.764-1.55-1.151-3-1.151-5.794.107-6.493,4.375-5.223,9.263a1.353,1.353,0,0,0-.5,1.351c.174,1.447.766,1.813,1.141,1.844a5.38,5.38,0,0,0,1.513,3.2,27.056,27.056,0,0,1-.06,2.755C15.093,25.885,7.357,25.02,7,30.965H31.866C31.51,25.02,23.808,25.885,22.661,22.8Z" transform="translate(-7 -4.195)"/>
    </g>
    <g id="Grupo_1866" data-name="Grupo 1866" transform="translate(9.687 1081)">
      <g id="categoria-en-pareja-2" data-name="categoria-en-pareja" transform="translate(0 0)">
        <g id="icons-2" data-name="icons" transform="translate(0 0)">
          <path id="favorite-2" data-name="favorite" d="M22.146,3.118l4.243,9.224a1.951,1.951,0,0,0,1.291,1.107l9.593,1.476a1.67,1.67,0,0,1,1.107,2.952l-7.01,7.195a2.575,2.575,0,0,0-.553,1.66l1.66,9.962a1.852,1.852,0,0,1-2.583,2.029l-8.671-4.8a1.384,1.384,0,0,0-1.66,0l-8.671,4.8A1.78,1.78,0,0,1,8.31,36.693l1.66-9.962a1.86,1.86,0,0,0-.553-1.66l-7.01-7.195A1.917,1.917,0,0,1,3.513,14.74l9.593-1.476A1.583,1.583,0,0,0,14.4,12.157l4.243-9.224A2,2,0,0,1,22.146,3.118Z" transform="translate(-1.956 -1.987)" fill="none" stroke="#000" stroke-width="1"/>
        </g>
      </g>
      <path id="Trazado_454" data-name="Trazado 454" d="M10.354-3.251a.923.923,0,0,1-.694-.292.984.984,0,0,1-.28-.706V-17.572l.39.146-5.821,7.6-.1-.292h8.914a.894.894,0,0,1,.658.268.894.894,0,0,1,.268.658.827.827,0,0,1-.268.621.916.916,0,0,1-.658.256H2.511a.949.949,0,0,1-.67-.292.917.917,0,0,1-.3-.682.91.91,0,0,1,.244-.633L9.55-19.91a.917.917,0,0,1,.39-.3,1.2,1.2,0,0,1,.438-.085.9.9,0,0,1,.682.28.965.965,0,0,1,.268.694V-4.25a.984.984,0,0,1-.28.706A.923.923,0,0,1,10.354-3.251Z" transform="translate(9.937 32.646)"/>
    </g>
    <g id="Grupo_1867" data-name="Grupo 1867" transform="translate(-33.25 1081)">
      <g id="categoria-en-pareja-3" data-name="categoria-en-pareja" transform="translate(0 0)">
        <g id="icons-3" data-name="icons" transform="translate(0 0)">
          <path id="favorite-3" data-name="favorite" d="M22.146,3.118l4.243,9.224a1.951,1.951,0,0,0,1.291,1.107l9.593,1.476a1.67,1.67,0,0,1,1.107,2.952l-7.01,7.195a2.575,2.575,0,0,0-.553,1.66l1.66,9.962a1.852,1.852,0,0,1-2.583,2.029l-8.671-4.8a1.384,1.384,0,0,0-1.66,0l-8.671,4.8A1.78,1.78,0,0,1,8.31,36.693l1.66-9.962a1.86,1.86,0,0,0-.553-1.66l-7.01-7.195A1.917,1.917,0,0,1,3.513,14.74l9.593-1.476A1.583,1.583,0,0,0,14.4,12.157l4.243-9.224A2,2,0,0,1,22.146,3.118Z" transform="translate(-1.956 -1.987)" fill="none" stroke="#000" stroke-width="1"/>
        </g>
      </g>
    </g>
    <path id="Trazado_453" data-name="Trazado 453" d="M2.426-6.077a1.052,1.052,0,0,1,.329.061,1.212,1.212,0,0,1,.4.256A3.883,3.883,0,0,0,4.3-5.054a3.977,3.977,0,0,0,1.51.268,3.974,3.974,0,0,0,1.924-.475A3.789,3.789,0,0,0,9.161-6.612a3.734,3.734,0,0,0,.548-2.021,3.5,3.5,0,0,0-.548-2.034,3.324,3.324,0,0,0-1.388-1.169,4.261,4.261,0,0,0-1.766-.378,3.858,3.858,0,0,0-.633.049,4.971,4.971,0,0,0-.548.122,1.736,1.736,0,0,1-.475.073.743.743,0,0,1-.609-.268,1,1,0,0,1-.219-.658,1.073,1.073,0,0,1,.073-.4,1.344,1.344,0,0,1,.244-.378l4.774-5.261.39.463H2.085a.894.894,0,0,1-.658-.268A.894.894,0,0,1,1.16-19.4a.854.854,0,0,1,.268-.645.916.916,0,0,1,.658-.256h7.94a.939.939,0,0,1,.779.3,1.048,1.048,0,0,1,.244.67.84.84,0,0,1-.1.4,1.5,1.5,0,0,1-.268.353L5.934-13.286l-.56-.487a1.5,1.5,0,0,1,.56-.183,3.959,3.959,0,0,1,.731-.085,4.948,4.948,0,0,1,2.509.658A4.879,4.879,0,0,1,11-11.532a5.5,5.5,0,0,1,.682,2.776,5.641,5.641,0,0,1-.8,3.044,5.409,5.409,0,0,1-2.2,2,6.905,6.905,0,0,1-3.154.706,6.154,6.154,0,0,1-1.912-.3A4.674,4.674,0,0,1,1.988-4.2a.962.962,0,0,1-.426-.39.973.973,0,0,1-.11-.438,1.1,1.1,0,0,1,.28-.706A.864.864,0,0,1,2.426-6.077Z" transform="translate(-21.17 1113.372)"/>
    <g id="Grupo_1868" data-name="Grupo 1868" transform="translate(95.455 1081)">
      <g id="categoria-en-pareja-4" data-name="categoria-en-pareja" transform="translate(0 0)">
        <g id="icons-4" data-name="icons" transform="translate(0 0)">
          <path id="favorite-4" data-name="favorite" d="M22.146,3.118l4.243,9.224a1.951,1.951,0,0,0,1.291,1.107l9.593,1.476a1.67,1.67,0,0,1,1.107,2.952l-7.01,7.195a2.575,2.575,0,0,0-.553,1.66l1.66,9.962a1.852,1.852,0,0,1-2.583,2.029l-8.671-4.8a1.384,1.384,0,0,0-1.66,0l-8.671,4.8A1.78,1.78,0,0,1,8.31,36.693l1.66-9.962a1.86,1.86,0,0,0-.553-1.66l-7.01-7.195A1.917,1.917,0,0,1,3.513,14.74l9.593-1.476A1.583,1.583,0,0,0,14.4,12.157l4.243-9.224A2,2,0,0,1,22.146,3.118Z" transform="translate(-1.956 -1.987)" fill="none" stroke="#000" stroke-width="1"/>
        </g>
      </g>
      <path id="Trazado_456" data-name="Trazado 456" d="M7.1-3.077A5.457,5.457,0,0,1,4.653-3.6,5.057,5.057,0,0,1,2.887-5.026,6.53,6.53,0,0,1,1.815-7.047,7.416,7.416,0,0,1,1.45-9.361,11.605,11.605,0,0,1,1.718-11.7a15.34,15.34,0,0,1,.816-2.643,12.885,12.885,0,0,1,1.425-2.594,11.093,11.093,0,0,1,2.095-2.229,8.978,8.978,0,0,1,2.8-1.522,1.82,1.82,0,0,1,.39-.049,1.205,1.205,0,0,1,.694.207.834.834,0,0,1,.3.743.889.889,0,0,1-.219.6,1.285,1.285,0,0,1-.585.378,7.856,7.856,0,0,0-1.912,1.059A10.221,10.221,0,0,0,5.8-16.12,11.319,11.319,0,0,0,4.434-14.1a7.932,7.932,0,0,0-.792,2.253l-.585.195A6.171,6.171,0,0,1,4.1-12.893a5.22,5.22,0,0,1,1.473-.95,4.562,4.562,0,0,1,1.839-.365,4.4,4.4,0,0,1,2,.463A5.514,5.514,0,0,1,11.046-12.5a5.87,5.87,0,0,1,1.108,1.79,5.651,5.651,0,0,1,.4,2.107,5.417,5.417,0,0,1-.718,2.74A5.669,5.669,0,0,1,9.889-3.845,5.16,5.16,0,0,1,7.1-3.077ZM7.076-4.9a3.411,3.411,0,0,0,1.79-.475A3.431,3.431,0,0,0,10.12-6.694a3.9,3.9,0,0,0,.463-1.912,4.18,4.18,0,0,0-.414-1.851,3.471,3.471,0,0,0-1.181-1.376,3.183,3.183,0,0,0-1.839-.524,3.68,3.68,0,0,0-1.973.511A3.478,3.478,0,0,0,3.9-10.469a4.074,4.074,0,0,0-.451,1.912,3.793,3.793,0,0,0,.438,1.8A3.484,3.484,0,0,0,5.14-5.416,3.57,3.57,0,0,0,7.076-4.9Z" transform="translate(11.987 32.493)"/>
    </g>
  </g>
</svg>
