<svg xmlns="http://www.w3.org/2000/svg" width="130" height="151.667" viewBox="0 0 130 151.667">
  <g id="iconfinder_calendar_285670_1_" data-name="iconfinder_calendar_285670 (1)" transform="translate(-3 -1029.4)">
    <path id="Trazado_315" data-name="Trazado 315" d="M17.444,1032.4A14.465,14.465,0,0,0,3,1046.845v101.111A14.466,14.466,0,0,0,17.444,1162.4H118.556A14.464,14.464,0,0,0,133,1147.956V1046.845a14.464,14.464,0,0,0-14.444-14.444H17.444Z" transform="translate(0 18.666)" fill="#bdc3c7"/>
    <path id="Trazado_316" data-name="Trazado 316" d="M17.444,3A14.444,14.444,0,0,0,3,17.444V118.556A14.442,14.442,0,0,0,17.444,133H118.556A14.44,14.44,0,0,0,133,118.556V17.444A14.442,14.442,0,0,0,118.556,3H17.444Z" transform="translate(0 1040.844)" fill="#ecf0f1"/>
    <path id="Trazado_317" data-name="Trazado 317" d="M17.444,1031.4A14.465,14.465,0,0,0,3,1045.845v21.667H133v-21.667a14.464,14.464,0,0,0-14.444-14.444H17.444Z" transform="translate(0 12.444)" fill="#e74c3c"/>
    <path id="Trazado_318" data-name="Trazado 318" d="M25.667,14.833A10.833,10.833,0,1,1,14.833,4,10.833,10.833,0,0,1,25.667,14.833Z" transform="translate(9.833 1047.067)" fill="#c0392b"/>
    <path id="Trazado_319" data-name="Trazado 319" d="M12.222,1A7.222,7.222,0,0,0,5,8.222V29.889a7.222,7.222,0,1,0,14.444,0V8.222A7.222,7.222,0,0,0,12.222,1Z" transform="translate(12.444 1028.4)" fill="#bdc3c7"/>
    <path id="Trazado_320" data-name="Trazado 320" d="M25.667,14.833A10.833,10.833,0,1,1,14.833,4,10.833,10.833,0,0,1,25.667,14.833Z" transform="translate(96.5 1047.067)" fill="#c0392b"/>
    <g id="Grupo_1525" data-name="Grupo 1525" transform="translate(17.444 1029.4)">
      <path id="Trazado_321" data-name="Trazado 321" d="M24.222,1029.4A7.013,7.013,0,0,0,17,1036.622v21.667a7.478,7.478,0,0,0,7.222,7.222,7.478,7.478,0,0,0,7.222-7.222v-21.667A7.013,7.013,0,0,0,24.222,1029.4Z" transform="translate(69.667 -1029.4)" fill="#bdc3c7"/>
    </g>
    <rect id="Rectángulo_160" data-name="Rectángulo 160" width="130" height="7.222" transform="translate(3 1079.956)" fill="#c0392b"/>
  </g>
</svg>
