<svg xmlns="http://www.w3.org/2000/svg" width="39.265" height="51.536" viewBox="0 0 39.265 51.536">
  <g id="Grupo_1493" data-name="Grupo 1493" transform="translate(14285.396 -14861.039)">
    <g id="Grupo_1396" data-name="Grupo 1396" transform="translate(-14285.396 14861.039)">
      <g id="Director" transform="translate(0 0)">
        <path id="Trazado_234" data-name="Trazado 234" d="M131.454,79.4a3.2,3.2,0,1,0-1.517-6.219c-.989.23-2.038.437-3.138.621V67.157h3.515a.972.972,0,0,0,.972-.972V48.413a.972.972,0,0,0-.972-.972h-.686V47.4H126.8V44.928a.972.972,0,1,0-1.944,0v2.512H103.629V44.928a.972.972,0,1,0-1.944,0V47.4h-3.76v.076a.972.972,0,0,0-.727.94V66.184a.972.972,0,0,0,.972.972h3.515v6.975c-1.126-.15-2.214-.323-3.257-.519a3.2,3.2,0,0,0-3.8,3.144V76.8a3.206,3.206,0,0,0,2.549,3.134q1.328.272,2.753.494l12.118,6L97.493,93.649a.972.972,0,1,0,.863,1.742l15.886-7.87,15.886,7.87a.972.972,0,1,0,.863-1.742l-14.559-7.213,13.43-6.654Q130.682,79.6,131.454,79.4Zm-6.6-30.017V65.212H103.629V49.385ZM103.629,67.157h21.226V74.1a87.781,87.781,0,0,1-11.7.751,90.585,90.585,0,0,1-9.526-.485Zm10.613,18.195-8.592-4.257c2.407.191,4.925.289,7.5.289a92.085,92.085,0,0,0,10.2-.548Z" transform="translate(-94.632 -43.956)"/>
      </g>
      <g id="Grupo_1394" data-name="Grupo 1394" transform="translate(8.972 11.165)">
        <g id="Grupo_1389" data-name="Grupo 1389" transform="translate(2.332 0)">
          <path id="Unión_32" data-name="Unión 32" d="M.033,18.576c.411-2.835,4.089-7.3,3.442-8a.362.362,0,0,1-.061-.092Q.157,5.957.643,3.543c.472-2.343,3.2-.088,4.581.624a.544.544,0,0,0,.67-.333C5.946,2.881,6.056,0,9.071,0c3.543,0,3.074,3.978,3.215,4.132.283.309,6.815,1.627,6.7,4.334s-3.581,1.317-4.32,2.114c-.646.7,3.031,5.162,3.442,8,.134.924-.128,1.1-1.033,1.1H12.425c-.652,0-.884-.372-1.22-.884-.745-1.134-1.644-2.956-2.133-2.956S7.683,17.66,6.938,18.794c-.336.512-.568.884-1.22.884H1.066C.161,19.679-.1,19.5.033,18.576Z" transform="translate(0 0.017)" fill="#ea4335"/>
          <path id="Sustracción_5" data-name="Sustracción 5" d="M1.106,14.6h0c.189-.339.378-.67.562-.991h0c.416-.727.808-1.413,1.048-1.943.265-.586.322-.93.179-1.084a.364.364,0,0,1-.061-.092c-.54-.751-1.01-1.469-1.395-2.133A14.463,14.463,0,0,1,.513,6.486a8.8,8.8,0,0,1-.288-.835,6.242,6.242,0,0,1-.171-.769A4.475,4.475,0,0,1,0,4.18a3.349,3.349,0,0,1,.063-.637,1.955,1.955,0,0,1,.158-.484,1.081,1.081,0,0,1,.236-.321.861.861,0,0,1,.3-.178A1.106,1.106,0,0,1,1.118,2.5a3.119,3.119,0,0,1,1.293.38c.461.223.941.517,1.364.775h0c.317.194.616.377.868.507a.611.611,0,0,0,.164.023.491.491,0,0,0,.258-.071.689.689,0,0,0,.247-.285l0-.038V3.789a8.753,8.753,0,0,1,.1-1.012,5.23,5.23,0,0,1,.144-.624,3.877,3.877,0,0,1,.249-.631A2.944,2.944,0,0,1,6.2.936,2.514,2.514,0,0,1,6.749.452,2.7,2.7,0,0,1,7.5.122,3.765,3.765,0,0,1,8.487,0H8.5a3.766,3.766,0,0,1,.985.122,2.7,2.7,0,0,1,.753.33,2.513,2.513,0,0,1,.553.484,2.943,2.943,0,0,1,.385.585,3.875,3.875,0,0,1,.249.631,5.227,5.227,0,0,1,.144.624,8.756,8.756,0,0,1,.1,1.012,1.1,1.1,0,0,0,.04.343,4.513,4.513,0,0,0,.956.354c.474.152,1.064.341,1.695.576a15.175,15.175,0,0,1,1.9.84c-.618.549-1.272,1.092-1.943,1.612-.638.494-1.308.981-1.991,1.448-.647.441-1.322.875-2.009,1.291-.645.391-1.316.775-1.994,1.141-1.224.661-2.51,1.287-3.822,1.86C3.39,13.737,2.248,14.189,1.106,14.6Z" transform="translate(0.577)" fill="#fff" opacity="0.1"/>
        </g>
        <g id="Layer_8" transform="translate(0 1.065)">
          <path id="Trazado_223" data-name="Trazado 223" d="M22.268,12.69a.408.408,0,0,0-.625-.347.408.408,0,1,0-.755-.309.4.4,0,0,0-.458-.012.408.408,0,0,0-.757-.267.4.4,0,0,0-.2-.053.409.409,0,0,0-.409.409.385.385,0,0,0,0,.044.406.406,0,0,0-.182-.044c-.011,0-.021,0-.032,0a.409.409,0,1,0-.787-.158c0,.006,0,.011,0,.016a.4.4,0,0,0-.109-.016.4.4,0,0,0-.065.007s0,0,0-.007a.409.409,0,1,0-.819,0,.409.409,0,0,0-.409.409.4.4,0,0,0,.007.067.408.408,0,0,0-.031.8l-.2.268,2.624.644,2.206-.43.782-.362-.04-.286A.41.41,0,0,0,22.268,12.69Z" transform="translate(-16.15 -11.548)" fill="#fff" stroke="#191919" stroke-miterlimit="10" stroke-width="0.2"/>
          <g id="Grupo_1384" data-name="Grupo 1384" transform="translate(0 1.342)">
            <path id="Trazado_224" data-name="Trazado 224" d="M15.414,32.56a.178.178,0,0,1-.176-.149l-.913-5.482a.179.179,0,0,1,.176-.208h5.955a.179.179,0,0,1,.176.208L19.72,32.41a.178.178,0,0,1-.176.149Z" transform="translate(-14.322 -26.72)" fill="#efefef" stroke="#000" stroke-width="0.2"/>
          </g>
          <path id="Trazado_226" data-name="Trazado 226" d="M15.652,31.587l-.562.006-.1-.073-.933-5.6.081-.141.828-.012Z" transform="translate(-14.048 -24.419)" fill="#a52929"/>
          <path id="Trazado_227" data-name="Trazado 227" d="M35.842,33.048h-.624l-.411-5.828h.9Z" transform="translate(-32.996 -25.878)" fill="#a52929"/>
          <path id="Trazado_228" data-name="Trazado 228" d="M53.96,31.8l-.628.012.139-5.827h.9Z" transform="translate(-49.87 -24.631)" fill="#a52929"/>
          <path id="Trazado_229" data-name="Trazado 229" d="M68.054,32.052l-.646.019.69-5.812h.749l.158.08Z" transform="translate(-62.701 -24.9)" fill="#a52929"/>
          <g id="Grupo_1390" data-name="Grupo 1390" transform="translate(0 1.342)">
            <path id="Trazado_224-2" data-name="Trazado 224" d="M15.414,32.56a.178.178,0,0,1-.176-.149l-.913-5.482a.179.179,0,0,1,.176-.208h5.955a.179.179,0,0,1,.176.208L19.72,32.41a.178.178,0,0,1-.176.149Z" transform="translate(-14.322 -26.72)" fill="none" stroke="#000" stroke-width="0.2"/>
          </g>
        </g>
      </g>
      <g id="Grupo_1395" data-name="Grupo 1395" transform="translate(2.523 30.849)">
        <g id="Grupo_245" data-name="Grupo 245" transform="translate(0 0.004)">
          <g id="Grupo_219" data-name="Grupo 219" transform="translate(0 0)">
            <path id="Trazado_144" data-name="Trazado 144" d="M169.157,332h2.388v.438a5.381,5.381,0,0,0-1.422,3.386h-.7l-.1-.142a11.3,11.3,0,0,1,1.352-3.064,6.645,6.645,0,0,0-1.493.019A1.844,1.844,0,0,1,169.157,332Z" transform="translate(-169.139 -332)"/>
          </g>
        </g>
        <path id="Intersección_4" data-name="Intersección 4" d="M1.537.618A6.645,6.645,0,0,0,.043.637,1.846,1.846,0,0,1,.018,0H2.406V.438A5.665,5.665,0,0,0,1.015,3.354c-.248.07-.509.13-.781.179A10.894,10.894,0,0,1,1.537.618Z" transform="translate(0)" fill="#fff"/>
      </g>
    </g>
  </g>
</svg>
