<svg xmlns="http://www.w3.org/2000/svg" width="6.514" height="7.382" viewBox="0 0 6.514 7.382">
  <g id="Layer_8" transform="translate(0.101 0.1)">
    <path id="Trazado_223" data-name="Trazado 223" d="M22.268,12.69a.408.408,0,0,0-.625-.347.408.408,0,1,0-.755-.309.4.4,0,0,0-.458-.012.408.408,0,0,0-.757-.267.4.4,0,0,0-.2-.053.409.409,0,0,0-.409.409.385.385,0,0,0,0,.044.406.406,0,0,0-.182-.044c-.011,0-.021,0-.032,0a.409.409,0,1,0-.787-.158c0,.006,0,.011,0,.016a.4.4,0,0,0-.109-.016.4.4,0,0,0-.065.007s0,0,0-.007a.409.409,0,1,0-.819,0,.409.409,0,0,0-.409.409.4.4,0,0,0,.007.067.408.408,0,0,0-.031.8l-.2.268,2.624.644,2.206-.43.782-.362-.04-.286A.41.41,0,0,0,22.268,12.69Z" transform="translate(-16.15 -11.548)" fill="#fff" stroke="#191919" stroke-miterlimit="10" stroke-width="0.2"/>
    <g id="Grupo_1384" data-name="Grupo 1384" transform="translate(0 1.342)">
      <path id="Trazado_224" data-name="Trazado 224" d="M15.414,32.56a.178.178,0,0,1-.176-.149l-.913-5.482a.179.179,0,0,1,.176-.208h5.955a.179.179,0,0,1,.176.208L19.72,32.41a.178.178,0,0,1-.176.149Z" transform="translate(-14.322 -26.72)" fill="#efefef" stroke="#000" stroke-width="0.2"/>
    </g>
    <path id="Trazado_226" data-name="Trazado 226" d="M15.652,31.587l-.562.006-.1-.073-.933-5.6.081-.141.828-.012Z" transform="translate(-14.048 -24.419)" fill="#a52929"/>
    <path id="Trazado_227" data-name="Trazado 227" d="M35.842,33.048h-.624l-.411-5.828h.9Z" transform="translate(-32.996 -25.878)" fill="#a52929"/>
    <path id="Trazado_228" data-name="Trazado 228" d="M53.96,31.8l-.628.012.139-5.827h.9Z" transform="translate(-49.87 -24.631)" fill="#a52929"/>
    <path id="Trazado_229" data-name="Trazado 229" d="M68.054,32.052l-.646.019.69-5.812h.749l.158.08Z" transform="translate(-62.701 -24.9)" fill="#a52929"/>
    <g id="Grupo_1390" data-name="Grupo 1390" transform="translate(0 1.342)">
      <path id="Trazado_224-2" data-name="Trazado 224" d="M15.414,32.56a.178.178,0,0,1-.176-.149l-.913-5.482a.179.179,0,0,1,.176-.208h5.955a.179.179,0,0,1,.176.208L19.72,32.41a.178.178,0,0,1-.176.149Z" transform="translate(-14.322 -26.72)" fill="none" stroke="#000" stroke-width="0.2"/>
    </g>
  </g>
</svg>
